{"glyphs":{"0":{"ha":855,"x_min":71,"x_max":784,"o":"m 427 1012 q 694 876 604 1012 q 784 496 784 739 q 694 114 784 251 q 427 -24 604 -24 q 160 114 249 -24 q 71 496 71 251 q 160 876 71 739 q 427 1012 249 1012 m 427 849 q 317 768 352 849 q 282 496 282 687 q 284 384 282 433 q 291 298 286 335 l 531 801 q 489 839 514 828 q 427 849 464 849 m 571 496 q 568 634 571 578 l 340 165 q 378 144 356 150 q 427 138 400 138 q 510 172 478 138 q 556 285 541 207 q 571 496 571 364 z "},"1":{"ha":855,"x_min":83,"x_max":785,"o":"m 785 170 l 785 0 l 143 0 l 143 170 l 381 170 l 381 766 l 178 639 l 83 793 l 401 987 l 600 987 l 600 170 l 785 170 z "},"2":{"ha":855,"x_min":56,"x_max":756,"o":"m 393 1012 q 582 973 506 1012 q 696 869 657 934 q 734 729 734 805 q 713 612 734 670 q 647 491 693 555 q 524 350 600 427 q 335 172 447 272 l 756 172 l 732 0 l 76 0 l 76 160 q 280 362 198 277 q 412 508 363 447 q 483 618 462 570 q 504 709 504 665 q 470 804 504 769 q 372 839 435 839 q 274 816 316 839 q 194 739 233 792 l 56 843 q 193 966 112 920 q 393 1012 274 1012 z "},"3":{"ha":855,"x_min":26,"x_max":755,"o":"m 387 1012 q 569 978 494 1012 q 684 886 645 943 q 724 759 724 828 q 668 607 724 665 q 522 523 613 549 q 689 453 624 509 q 755 278 755 397 q 709 126 755 194 q 578 17 663 58 q 373 -24 492 -24 q 175 15 263 -24 q 26 124 88 53 l 152 242 q 248 171 195 193 q 358 148 300 148 q 478 186 432 148 q 524 293 524 223 q 480 406 524 372 q 357 441 437 441 l 267 441 l 293 596 l 357 596 q 464 628 422 596 q 506 725 506 660 q 466 813 506 781 q 363 845 426 845 q 255 822 303 845 q 165 759 207 799 l 50 879 q 202 978 118 944 q 387 1012 286 1012 z "},"4":{"ha":855,"x_min":63,"x_max":788,"o":"m 689 614 l 689 376 l 788 376 l 788 207 l 689 207 l 689 0 l 474 0 l 472 207 l 63 207 l 63 357 l 338 1012 l 529 942 l 296 376 l 473 376 l 499 614 l 689 614 z "},"5":{"ha":855,"x_min":56,"x_max":771,"o":"m 734 987 l 709 826 l 348 826 l 348 613 q 422 637 384 630 q 494 645 461 645 q 633 606 570 645 q 733 496 696 568 q 771 324 771 424 q 722 145 771 224 q 586 21 673 66 q 383 -24 499 -24 q 193 16 276 -24 q 56 123 110 56 l 185 241 q 267 172 221 196 q 365 148 314 148 q 491 196 444 148 q 538 321 538 244 q 502 450 538 412 q 405 489 465 489 q 348 482 378 489 q 284 457 317 475 l 132 457 l 132 987 l 734 987 z "},"6":{"ha":855,"x_min":71,"x_max":789,"o":"m 499 1012 q 619 995 565 1012 q 714 949 672 978 l 628 812 q 567 842 600 833 q 504 852 535 852 q 369 780 423 852 q 306 572 314 708 q 405 640 350 618 q 513 662 460 662 q 652 624 590 662 q 752 512 715 585 q 789 335 789 439 q 746 154 789 236 q 625 24 704 73 q 439 -24 546 -24 q 271 13 340 -24 q 157 116 201 51 q 92 266 113 181 q 71 447 71 351 q 123 741 71 613 q 270 940 175 868 q 499 1012 366 1012 m 454 506 q 306 431 371 506 q 337 210 308 283 q 442 137 366 137 q 535 191 505 137 q 564 322 564 245 q 535 465 564 423 q 454 506 506 506 z "},"7":{"ha":855,"x_min":97,"x_max":759,"o":"m 376 -23 l 162 43 l 531 818 l 97 818 l 97 987 l 759 987 l 759 835 l 376 -23 z "},"8":{"ha":855,"x_min":61,"x_max":794,"o":"m 756 751 q 719 632 756 682 q 603 537 682 582 q 748 419 702 487 q 794 268 794 351 q 752 125 794 192 q 629 17 711 58 q 423 -24 546 -24 q 222 16 303 -24 q 101 121 141 56 q 61 262 61 186 q 110 410 61 347 q 242 509 159 472 q 133 607 167 557 q 99 739 99 657 q 142 885 99 823 q 260 979 186 946 q 429 1012 335 1012 q 599 980 525 1012 q 714 890 672 949 q 756 751 756 831 m 313 739 q 348 653 313 687 q 457 592 383 620 q 524 662 506 627 q 541 738 541 697 q 513 825 541 791 q 429 859 485 859 q 344 829 374 859 q 313 739 313 798 m 569 269 q 550 349 569 318 q 489 402 530 380 q 380 448 447 425 q 311 377 337 420 q 286 276 286 335 q 322 176 286 214 q 429 137 358 137 q 536 176 502 137 q 569 269 569 216 z "},"9":{"ha":855,"x_min":62,"x_max":785,"o":"m 422 1012 q 623 962 543 1012 q 744 824 704 912 q 785 618 785 735 q 721 297 785 429 q 524 83 657 166 q 183 -43 390 0 l 137 115 q 410 232 311 160 q 543 422 509 305 q 451 362 499 383 q 341 341 403 341 q 200 380 264 341 q 99 491 137 420 q 62 657 62 562 q 109 844 62 764 q 238 968 157 924 q 422 1012 320 1012 m 288 664 q 324 536 288 573 q 411 499 360 499 q 486 513 452 499 q 553 556 520 528 q 530 779 554 706 q 420 852 505 852 q 324 806 360 852 q 288 664 288 761 z "},"ʻ":{"ha":855,"x_min":57,"x_max":798,"o":"m 57 1053 l 798 1053 l 798 -74 l 57 -74 l 57 1053 m 721 0 l 721 979 l 135 979 l 135 0 l 721 0 m 437 368 q 426 343 437 352 q 402 333 415 333 q 377 343 388 333 q 366 368 366 352 l 366 487 q 469 516 443 491 q 496 597 496 541 q 479 667 496 639 q 409 695 462 695 q 370 691 387 695 q 335 679 353 687 q 316 675 324 675 q 291 685 301 675 q 282 708 282 694 q 304 740 282 727 q 356 758 325 752 q 415 764 387 764 q 510 740 476 764 q 559 680 545 717 q 573 600 573 642 q 541 484 573 525 q 437 432 509 442 l 437 368 m 352 242 q 366 278 352 264 q 402 292 380 292 q 437 278 423 292 q 452 242 452 264 q 437 205 452 220 q 402 189 423 189 q 366 205 380 189 q 352 242 352 220 z "},"\r":{"ha":855,"x_min":0,"x_max":0,"o":""}," ":{"ha":855,"x_min":0,"x_max":0,"o":""},"!":{"ha":855,"x_min":298,"x_max":556,"o":"m 547 987 l 519 363 l 337 363 l 308 987 l 547 987 m 427 234 q 519 196 481 234 q 556 105 556 157 q 519 14 556 52 q 427 -24 481 -24 q 337 14 375 -24 q 298 105 298 52 q 337 196 298 157 q 427 234 375 234 z "},"\"":{"ha":855,"x_min":184,"x_max":671,"o":"m 211 659 l 184 1057 l 397 1057 l 370 659 l 211 659 m 483 659 l 457 1057 l 671 1057 l 644 659 l 483 659 z "},"#":{"ha":855,"x_min":51,"x_max":806,"o":"m 699 636 l 664 354 l 753 354 l 753 206 l 644 206 l 617 0 l 431 0 l 458 206 l 323 206 l 296 0 l 110 0 l 135 206 l 51 206 l 51 354 l 155 354 l 192 636 l 103 636 l 103 785 l 212 785 l 238 987 l 425 987 l 397 785 l 533 785 l 561 987 l 746 987 l 719 785 l 806 785 l 806 636 l 699 636 m 341 354 l 476 354 l 514 636 l 378 636 l 341 354 z "},"$":{"ha":855,"x_min":59,"x_max":796,"o":"m 497 1219 l 497 1008 q 655 970 585 1001 q 777 895 725 939 l 668 781 q 585 830 629 813 q 497 850 541 848 l 497 602 q 659 530 593 570 q 761 433 726 491 q 796 290 796 375 q 718 85 796 171 q 497 -19 641 0 l 497 -231 l 382 -231 l 382 -23 q 194 24 277 -15 q 59 113 112 63 l 168 238 q 268 172 217 197 q 382 142 319 147 l 382 439 q 162 558 228 489 q 95 729 95 627 q 173 919 95 844 q 382 1007 250 994 l 382 1219 l 497 1219 m 382 849 q 318 815 339 842 q 297 755 297 788 q 312 696 297 719 q 382 645 326 672 l 382 849 m 497 393 l 497 147 q 585 264 585 167 q 568 336 585 305 q 497 393 550 367 z "},"%":{"ha":855,"x_min":5,"x_max":848,"o":"m 605 1020 l 726 970 l 239 -41 l 120 9 l 605 1020 m 209 1012 q 358 951 304 1012 q 411 788 411 890 q 358 627 411 687 q 209 566 304 566 q 59 627 113 566 q 5 788 5 687 q 59 949 5 886 q 209 1012 113 1012 m 209 902 q 163 871 174 902 q 152 788 152 841 q 164 707 152 738 q 209 677 176 677 q 255 706 244 677 q 266 788 266 736 q 255 874 266 845 q 209 902 244 902 m 646 437 q 795 376 741 437 q 848 214 848 316 q 795 52 848 113 q 646 -9 741 -9 q 496 52 550 -9 q 442 214 442 113 q 496 374 442 311 q 646 437 550 437 m 646 327 q 600 297 611 327 q 589 214 589 266 q 601 132 589 163 q 646 102 613 102 q 692 131 682 102 q 703 214 703 161 q 692 299 703 271 q 646 327 682 327 z "},"&":{"ha":855,"x_min":53,"x_max":823,"o":"m 397 1011 q 550 986 484 1011 q 675 899 616 961 l 553 794 q 493 843 521 828 q 424 858 465 858 q 346 827 373 858 q 318 746 318 797 q 355 653 318 689 q 451 616 392 616 l 823 616 l 823 472 l 729 472 l 729 100 q 606 15 685 53 q 400 -24 528 -24 q 210 16 288 -24 q 93 126 133 56 q 53 282 53 195 q 111 465 53 400 q 270 554 170 530 l 270 560 q 102 774 102 605 q 140 895 102 841 q 245 979 179 948 q 397 1011 312 1011 m 521 472 l 438 472 q 344 447 381 472 q 290 383 308 422 q 273 298 273 343 q 308 184 273 228 q 412 140 344 140 q 476 150 449 140 q 521 179 504 161 l 521 472 z "},"'":{"ha":855,"x_min":320,"x_max":533,"o":"m 347 659 l 320 1057 l 533 1057 l 506 659 l 347 659 z "},"(":{"ha":855,"x_min":143,"x_max":642,"o":"m 371 499 q 385 336 371 410 q 429 192 398 261 q 513 50 461 122 q 642 -106 565 -23 l 511 -224 q 316 -20 398 -127 q 188 215 233 88 q 143 499 143 343 q 188 782 143 655 q 316 1017 233 910 q 511 1222 398 1125 l 642 1103 q 486 906 546 999 q 399 714 427 812 q 371 499 371 616 z "},")":{"ha":855,"x_min":213,"x_max":712,"o":"m 484 499 q 456 714 484 616 q 369 906 428 812 q 213 1103 309 999 l 344 1222 q 539 1017 457 1125 q 667 782 622 910 q 712 499 712 655 q 667 215 712 343 q 539 -20 622 88 q 344 -224 457 -127 l 213 -106 q 342 50 290 -23 q 425 192 394 122 q 470 336 457 261 q 484 499 484 410 z "},"*":{"ha":855,"x_min":39,"x_max":816,"o":"m 321 844 l 534 844 l 504 575 l 749 688 l 816 485 l 550 432 l 732 231 l 561 108 l 427 341 l 294 108 l 123 231 l 305 432 l 39 485 l 105 688 l 351 575 l 321 844 z "},"+":{"ha":855,"x_min":47,"x_max":808,"o":"m 521 825 l 521 532 l 808 532 l 808 358 l 521 358 l 521 66 l 333 66 l 333 358 l 47 358 l 47 532 l 333 532 l 333 825 l 521 825 z "},",":{"ha":855,"x_min":269,"x_max":583,"o":"m 427 293 q 538 249 494 293 q 583 139 583 204 q 567 55 583 97 q 521 -57 552 13 l 418 -290 l 269 -290 l 341 13 q 291 67 308 33 q 274 140 274 100 q 318 249 274 205 q 427 293 362 293 z "},"-":{"ha":855,"x_min":119,"x_max":736,"o":"m 119 358 l 119 533 l 736 533 l 736 358 l 119 358 z "},".":{"ha":855,"x_min":269,"x_max":586,"o":"m 269 135 q 290 214 269 178 q 348 272 311 250 q 427 293 384 293 q 507 272 472 293 q 565 214 543 250 q 586 135 586 178 q 565 56 586 92 q 507 -2 543 19 q 427 -24 472 -24 q 348 -2 384 -24 q 290 56 311 19 q 269 135 269 92 z "},"/":{"ha":855,"x_min":41,"x_max":814,"o":"m 217 -160 l 41 -79 l 640 1164 l 814 1083 l 217 -160 z "},":":{"ha":855,"x_min":277,"x_max":576,"o":"m 277 618 q 297 693 277 659 q 352 747 318 726 q 427 768 386 768 q 533 723 490 768 q 576 618 576 679 q 533 514 576 558 q 427 469 490 469 q 321 514 365 469 q 277 618 277 558 m 277 126 q 321 230 277 187 q 427 274 365 274 q 533 230 490 274 q 576 126 576 187 q 533 20 576 65 q 427 -24 490 -24 q 321 20 365 -24 q 277 126 277 65 z "},";":{"ha":855,"x_min":273,"x_max":576,"o":"m 427 768 q 533 723 490 768 q 576 618 576 679 q 533 514 576 558 q 427 469 490 469 q 321 514 365 469 q 277 618 277 558 q 297 693 277 659 q 352 747 318 726 q 427 768 386 768 m 427 281 q 533 238 491 281 q 576 132 576 196 q 561 51 576 93 q 517 -57 546 9 l 418 -281 l 273 -281 l 343 11 q 277 134 277 53 q 321 239 277 197 q 427 281 364 281 z "},"<":{"ha":855,"x_min":99,"x_max":756,"o":"m 657 873 l 756 717 l 293 447 l 756 182 l 654 22 l 99 367 l 99 526 l 657 873 z "},"=":{"ha":855,"x_min":104,"x_max":751,"o":"m 751 681 l 751 505 l 104 505 l 104 681 l 751 681 m 751 381 l 751 207 l 104 207 l 104 381 l 751 381 z "},">":{"ha":855,"x_min":99,"x_max":756,"o":"m 199 873 l 756 528 l 756 367 l 201 22 l 99 175 l 562 447 l 99 711 l 199 873 z "},"?":{"ha":855,"x_min":80,"x_max":749,"o":"m 422 1012 q 603 979 531 1012 q 713 891 676 946 q 749 774 749 837 q 723 661 749 704 q 657 587 696 617 q 578 532 618 558 q 512 474 538 506 q 485 392 485 442 l 485 363 l 279 363 l 279 400 q 303 520 279 473 q 362 596 327 566 q 432 649 397 626 q 491 695 467 671 q 515 754 515 719 q 483 814 515 793 q 401 835 451 835 q 307 813 353 835 q 222 748 261 792 l 80 859 q 225 972 141 931 q 422 1012 310 1012 m 385 234 q 476 196 438 234 q 514 105 514 157 q 476 14 514 52 q 385 -24 438 -24 q 293 14 330 -24 q 256 105 256 52 q 293 196 256 157 q 385 234 330 234 z "},"@":{"ha":855,"x_min":-2,"x_max":853,"o":"m 409 1012 q 675 938 578 1012 q 812 732 771 865 q 853 421 853 599 q 834 118 853 241 q 768 -70 816 -6 q 628 -134 719 -134 q 538 -107 574 -134 q 483 -35 502 -80 q 457 63 464 9 l 452 63 q 378 -31 428 9 q 252 -70 328 -70 q 118 -27 168 -70 q 45 89 67 16 q 22 255 22 163 q 96 535 22 431 q 325 638 170 638 q 444 623 382 638 q 564 575 506 608 l 564 148 q 578 38 564 69 q 621 6 592 6 q 661 46 649 6 q 677 174 674 85 q 680 409 680 262 q 657 662 680 558 q 573 820 634 766 q 397 874 511 874 q 245 844 321 874 q 87 743 170 815 l -2 848 q 194 973 95 933 q 409 1012 293 1012 m 321 497 q 244 444 264 497 q 224 255 224 392 q 238 115 224 158 q 293 71 253 71 q 341 87 325 71 q 365 126 358 103 q 375 172 372 150 l 375 484 q 349 494 361 491 q 321 497 337 497 z "},"A":{"ha":855,"x_min":-16,"x_max":872,"o":"m 570 213 l 281 213 l 229 0 l -16 0 l 286 987 l 570 987 l 872 0 l 622 0 l 570 213 m 318 382 l 531 382 l 425 819 l 318 382 z "},"B":{"ha":855,"x_min":80,"x_max":813,"o":"m 813 289 q 781 147 813 204 q 691 59 748 91 q 561 14 634 27 q 407 0 488 0 l 80 0 l 80 987 l 392 987 q 580 964 494 987 q 718 886 666 942 q 771 735 771 831 q 717 594 771 647 q 590 523 662 541 q 694 490 642 514 q 780 417 746 465 q 813 289 813 368 m 536 712 q 499 796 536 770 q 385 822 462 822 l 313 822 l 313 593 l 392 593 q 502 621 468 593 q 536 712 536 649 m 573 298 q 528 407 573 377 q 410 437 484 437 l 313 437 l 313 170 l 400 170 q 485 180 445 170 q 548 217 524 189 q 573 298 573 245 z "},"C":{"ha":855,"x_min":48,"x_max":840,"o":"m 510 1012 q 691 984 616 1012 q 827 905 765 956 l 712 766 q 623 819 672 800 q 516 839 573 839 q 402 804 454 839 q 321 693 351 769 q 290 496 290 617 q 354 237 290 318 q 520 156 419 156 q 643 184 594 156 q 734 244 692 212 l 840 109 q 703 15 784 54 q 507 -24 622 -24 q 270 35 373 -24 q 107 210 166 95 q 48 496 48 326 q 109 776 48 661 q 275 952 170 892 q 510 1012 380 1012 z "},"D":{"ha":855,"x_min":74,"x_max":818,"o":"m 818 499 q 779 251 818 348 q 672 99 739 153 q 518 22 604 44 q 340 0 432 0 l 74 0 l 74 987 l 323 987 q 507 968 418 987 q 666 896 595 948 q 777 748 736 843 q 818 499 818 652 m 576 499 q 547 700 576 632 q 469 793 519 769 q 358 818 420 818 l 308 818 l 308 169 l 358 169 q 472 197 422 169 q 548 297 521 225 q 576 499 576 369 z "},"E":{"ha":855,"x_min":132,"x_max":778,"o":"m 366 821 l 366 583 l 708 583 l 708 420 l 366 420 l 366 167 l 778 167 l 778 0 l 132 0 l 132 987 l 778 987 l 754 821 l 366 821 z "},"F":{"ha":855,"x_min":154,"x_max":803,"o":"m 388 821 l 388 559 l 734 559 l 734 392 l 388 392 l 388 0 l 154 0 l 154 987 l 803 987 l 778 821 l 388 821 z "},"G":{"ha":855,"x_min":32,"x_max":809,"o":"m 464 -24 q 143 109 254 -24 q 32 496 32 241 q 93 779 32 664 q 259 953 155 894 q 491 1012 363 1012 q 673 979 599 1012 q 805 890 747 945 l 682 764 q 596 823 637 803 q 502 842 555 842 q 384 807 436 842 q 303 695 333 771 q 273 494 273 618 q 294 289 273 365 q 358 180 315 213 q 466 147 400 147 q 531 155 501 147 q 588 177 562 163 l 588 402 l 464 402 l 442 566 l 809 566 l 809 75 q 650 3 735 30 q 464 -24 565 -24 z "},"H":{"ha":855,"x_min":74,"x_max":781,"o":"m 547 0 l 547 416 l 308 416 l 308 0 l 74 0 l 74 987 l 308 987 l 308 608 l 547 608 l 547 987 l 781 987 l 781 0 l 547 0 z "},"I":{"ha":855,"x_min":107,"x_max":748,"o":"m 748 987 l 748 816 l 544 816 l 544 172 l 748 172 l 748 0 l 107 0 l 107 172 l 311 172 l 311 816 l 107 816 l 107 987 l 748 987 z "},"J":{"ha":855,"x_min":56,"x_max":751,"o":"m 751 987 l 751 355 q 647 80 751 182 q 354 -21 543 -21 q 189 3 259 -21 q 56 71 120 28 l 145 215 q 239 166 195 180 q 340 152 283 152 q 467 201 416 152 q 518 353 518 250 l 518 816 l 214 816 l 214 987 l 751 987 z "},"K":{"ha":855,"x_min":84,"x_max":867,"o":"m 318 0 l 84 0 l 84 987 l 318 987 l 318 0 m 325 527 l 595 987 l 840 987 l 561 544 l 867 0 l 596 0 l 325 527 z "},"L":{"ha":855,"x_min":132,"x_max":794,"o":"m 132 0 l 132 987 l 366 987 l 366 184 l 794 184 l 770 0 l 132 0 z "},"M":{"ha":855,"x_min":25,"x_max":830,"o":"m 774 987 l 830 0 l 626 0 l 614 422 q 613 558 612 501 q 618 669 614 616 q 626 788 621 722 l 515 168 l 338 168 l 219 788 q 228 672 224 726 q 233 558 231 618 q 232 419 234 498 l 225 0 l 25 0 l 80 987 l 321 987 l 430 349 l 534 987 l 774 987 z "},"N":{"ha":855,"x_min":74,"x_max":781,"o":"m 497 0 l 237 794 q 252 686 244 752 q 267 540 261 620 q 273 373 273 459 l 273 0 l 74 0 l 74 987 l 365 987 l 618 197 q 594 370 606 265 q 582 609 582 476 l 582 987 l 781 987 l 781 0 l 497 0 z "},"O":{"ha":855,"x_min":32,"x_max":823,"o":"m 823 494 q 778 221 823 338 q 645 40 733 105 q 427 -24 557 -24 q 210 39 298 -24 q 77 218 122 102 q 32 494 32 334 q 77 767 32 651 q 210 948 122 883 q 427 1012 298 1012 q 645 949 557 1012 q 778 771 733 887 q 823 494 823 655 m 583 494 q 547 759 583 677 q 427 842 511 842 q 308 759 344 842 q 271 494 271 676 q 308 229 271 312 q 427 147 345 147 q 548 230 513 147 q 583 494 583 314 z "},"P":{"ha":855,"x_min":89,"x_max":821,"o":"m 821 666 q 772 476 821 551 q 635 365 723 402 q 429 328 546 328 l 323 328 l 323 0 l 89 0 l 89 987 l 400 987 q 711 907 600 987 q 821 666 821 828 m 580 665 q 402 821 580 821 l 323 821 l 323 498 l 415 498 q 537 538 493 498 q 580 665 580 578 z "},"Q":{"ha":855,"x_min":46,"x_max":903,"o":"m 818 494 q 799 312 818 397 q 734 162 780 227 q 610 56 689 96 q 743 18 688 43 q 837 -54 798 -7 q 903 -182 876 -102 l 712 -246 q 645 -122 681 -172 q 554 -46 608 -71 q 413 -20 499 -20 q 137 117 228 -20 q 46 494 46 254 q 89 767 46 651 q 217 948 131 883 q 432 1012 303 1012 q 647 949 561 1012 q 776 771 733 887 q 818 494 818 655 m 575 494 q 546 758 575 675 q 432 840 516 840 q 318 757 348 840 q 288 494 288 675 q 319 230 288 313 q 432 147 350 147 q 546 230 517 147 q 575 494 575 314 z "},"R":{"ha":855,"x_min":83,"x_max":860,"o":"m 800 687 q 742 515 800 581 q 602 417 684 449 l 860 0 l 596 0 l 382 377 l 316 377 l 316 0 l 83 0 l 83 987 l 393 987 q 697 914 595 987 q 800 687 800 840 m 559 687 q 517 791 559 759 q 394 823 476 823 l 316 823 l 316 538 l 403 538 q 519 573 479 538 q 559 687 559 609 z "},"S":{"ha":855,"x_min":17,"x_max":809,"o":"m 809 288 q 761 126 809 197 q 623 16 713 56 q 407 -24 533 -24 q 173 17 268 -24 q 17 118 79 58 l 135 249 q 256 176 190 202 q 402 150 323 150 q 521 181 475 150 q 566 271 566 213 q 528 355 566 325 q 387 417 490 386 q 141 542 214 470 q 68 726 68 613 q 118 880 68 816 q 253 978 168 944 q 439 1012 338 1012 q 642 979 554 1012 q 793 885 729 946 l 683 758 q 575 820 633 800 q 458 840 518 840 q 350 816 391 840 q 310 744 310 791 q 328 691 310 712 q 390 651 345 670 q 512 607 434 632 q 672 539 605 578 q 774 439 739 499 q 809 288 809 380 z "},"T":{"ha":855,"x_min":32,"x_max":831,"o":"m 543 808 l 543 0 l 309 0 l 309 808 l 32 808 l 32 987 l 831 987 l 807 808 l 543 808 z "},"U":{"ha":855,"x_min":60,"x_max":795,"o":"m 795 987 l 795 330 q 754 149 795 229 q 631 22 713 69 q 427 -24 550 -24 q 223 21 304 -24 q 100 145 141 66 q 60 330 60 225 l 60 987 l 294 987 l 294 417 q 318 217 294 284 q 427 150 343 150 q 536 217 512 150 q 561 417 561 284 l 561 987 l 795 987 z "},"V":{"ha":855,"x_min":-1,"x_max":857,"o":"m 432 182 l 618 987 l 857 987 l 572 0 l 283 0 l -1 987 l 247 987 l 432 182 z "},"W":{"ha":855,"x_min":-4,"x_max":859,"o":"m 859 987 l 744 0 l 501 0 l 429 706 l 350 0 l 103 0 l -4 987 l 214 987 l 248 199 l 330 873 l 531 873 l 607 199 l 656 987 l 859 987 z "},"X":{"ha":855,"x_min":5,"x_max":850,"o":"m 27 987 l 278 987 l 427 670 l 580 987 l 826 987 l 564 534 l 850 0 l 599 0 l 425 377 l 253 0 l 5 0 l 286 524 l 27 987 z "},"Y":{"ha":855,"x_min":-11,"x_max":866,"o":"m 544 370 l 544 0 l 311 0 l 311 369 l -11 987 l 244 987 l 432 562 l 620 987 l 866 987 l 544 370 z "},"Z":{"ha":855,"x_min":56,"x_max":801,"o":"m 330 186 l 801 186 l 776 0 l 56 0 l 56 175 l 524 807 l 107 807 l 107 987 l 790 987 l 790 811 l 330 186 z "},"[":{"ha":855,"x_min":222,"x_max":661,"o":"m 222 -175 l 222 1172 l 661 1172 l 661 1004 l 434 1004 l 434 -9 l 661 -9 l 661 -175 l 222 -175 z "},"\\":{"ha":855,"x_min":41,"x_max":814,"o":"m 41 1083 l 217 1164 l 814 -79 l 638 -160 l 41 1083 z "},"]":{"ha":855,"x_min":194,"x_max":632,"o":"m 632 1172 l 632 -175 l 194 -175 l 194 -7 l 420 -7 l 420 1004 l 194 1004 l 194 1172 l 632 1172 z "},"^":{"ha":855,"x_min":56,"x_max":799,"o":"m 530 1202 l 799 751 l 580 751 l 426 1034 l 278 751 l 56 751 l 325 1202 l 530 1202 z "},"_":{"ha":855,"x_min":71,"x_max":783,"o":"m 71 -265 l 71 -88 l 783 -88 l 783 -265 l 71 -265 z "},"`":{"ha":855,"x_min":231,"x_max":630,"o":"m 568 886 l 231 1020 l 319 1189 l 630 1000 l 568 886 z "},"a":{"ha":855,"x_min":50,"x_max":786,"o":"m 736 218 q 748 156 736 175 q 786 127 760 137 l 740 -21 q 627 8 673 -15 q 555 78 581 31 q 444 1 511 26 q 306 -24 376 -24 q 119 42 189 -24 q 50 214 50 109 q 146 404 50 337 q 418 471 243 471 l 520 471 l 520 499 q 370 615 520 615 q 277 605 334 615 q 163 575 220 595 l 111 725 q 264 767 184 753 q 406 781 343 781 q 656 713 575 781 q 736 514 736 644 l 736 218 m 383 137 q 459 158 420 137 q 520 220 499 180 l 520 343 l 464 343 q 326 314 370 343 q 282 229 282 285 q 309 161 282 186 q 383 137 335 137 z "},"b":{"ha":855,"x_min":100,"x_max":798,"o":"m 325 679 q 411 754 360 726 q 519 781 461 781 q 731 673 665 781 q 798 380 798 565 q 763 172 798 264 q 661 28 729 80 q 495 -24 593 -24 q 308 68 376 -24 l 299 0 l 100 0 l 100 1057 l 325 1080 l 325 679 m 436 140 q 531 195 496 140 q 566 377 566 250 q 551 523 566 472 q 510 595 536 575 q 447 615 483 615 q 380 592 410 615 q 325 528 350 568 l 325 209 q 373 157 346 175 q 436 140 399 140 z "},"c":{"ha":855,"x_min":98,"x_max":770,"o":"m 501 153 q 588 171 547 153 q 670 218 629 189 l 770 75 q 649 4 720 33 q 489 -24 577 -24 q 279 26 367 -24 q 145 166 192 76 q 98 373 98 255 q 146 584 98 491 q 282 729 194 676 q 493 781 371 781 q 646 757 579 781 q 770 687 714 734 l 672 551 q 591 593 634 578 q 502 608 548 608 q 379 554 426 608 q 333 373 333 501 q 355 242 333 290 q 415 173 377 194 q 501 153 453 153 z "},"d":{"ha":855,"x_min":57,"x_max":755,"o":"m 530 1080 l 755 1057 l 755 0 l 556 0 l 544 83 q 461 7 513 39 q 335 -24 409 -24 q 179 26 241 -24 q 87 168 118 77 q 57 380 57 259 q 93 588 57 497 q 197 730 130 678 q 358 781 265 781 q 530 712 460 781 l 530 1080 m 419 617 q 325 562 360 617 q 289 379 289 506 q 304 234 289 286 q 345 162 319 182 q 406 141 372 141 q 475 165 444 141 q 530 229 506 188 l 530 555 q 480 600 506 584 q 419 617 454 617 z "},"e":{"ha":855,"x_min":66,"x_max":789,"o":"m 295 313 q 355 180 306 220 q 476 140 405 140 q 577 157 528 140 q 670 202 625 174 l 761 80 q 631 5 707 34 q 459 -24 556 -24 q 241 27 329 -24 q 110 170 154 79 q 66 377 66 260 q 108 581 66 489 q 233 727 151 672 q 434 781 316 781 q 622 735 543 781 q 745 602 702 689 q 789 393 789 515 q 788 352 789 374 q 785 313 787 330 l 295 313 m 434 630 q 337 587 374 630 q 292 448 300 543 l 570 448 q 538 580 569 531 q 434 630 506 630 z "},"f":{"ha":855,"x_min":109,"x_max":840,"o":"m 581 1080 q 727 1067 664 1080 q 840 1033 791 1054 l 778 886 q 698 908 739 901 q 616 915 657 915 q 520 890 549 915 q 491 810 491 866 l 491 709 l 738 709 l 713 553 l 491 553 l 491 0 l 268 0 l 268 553 l 109 553 l 109 709 l 268 709 l 268 818 q 303 952 268 893 q 409 1046 339 1011 q 581 1080 479 1080 z "},"g":{"ha":855,"x_min":44,"x_max":824,"o":"m 771 877 l 824 712 q 731 689 784 697 q 606 682 677 682 q 715 606 677 652 q 752 488 752 561 q 713 357 752 415 q 602 267 674 300 q 432 234 530 234 q 344 243 385 234 q 325 224 332 236 q 319 199 319 212 q 334 167 319 182 q 402 153 348 153 l 526 153 q 679 125 615 153 q 779 47 744 96 q 815 -66 815 -2 q 713 -249 815 -182 q 410 -316 611 -316 q 186 -286 265 -316 q 75 -202 106 -256 q 44 -73 44 -147 l 244 -73 q 257 -126 244 -105 q 307 -157 270 -147 q 416 -167 345 -167 q 526 -156 488 -167 q 577 -125 563 -145 q 591 -81 591 -105 q 565 -27 591 -48 q 481 -6 538 -6 l 361 -6 q 183 39 239 -6 q 127 145 127 84 q 150 224 127 187 q 213 288 172 262 q 109 379 140 326 q 78 504 78 431 q 121 651 78 590 q 241 746 165 713 q 416 780 318 780 q 563 792 501 778 q 676 828 626 805 q 771 877 726 851 m 422 634 q 337 600 368 634 q 306 507 306 566 q 338 411 306 444 q 422 377 370 377 q 537 510 537 377 q 422 634 537 634 z "},"h":{"ha":855,"x_min":100,"x_max":755,"o":"m 325 1079 l 325 682 q 547 781 420 781 q 702 722 648 781 q 755 556 755 663 l 755 0 l 530 0 l 530 493 q 515 588 530 561 q 457 615 499 615 q 389 591 422 615 q 325 524 357 566 l 325 0 l 100 0 l 100 1057 l 325 1079 z "},"i":{"ha":855,"x_min":123,"x_max":754,"o":"m 426 1152 q 521 1116 484 1152 q 558 1026 558 1080 q 521 935 558 972 q 426 898 484 898 q 329 935 367 898 q 292 1026 292 972 q 329 1116 292 1080 q 426 1152 367 1152 m 562 756 l 562 154 l 754 154 l 754 0 l 123 0 l 123 154 l 337 154 l 337 603 l 130 603 l 130 756 l 562 756 z "},"j":{"ha":855,"x_min":99,"x_max":673,"o":"m 527 1152 q 623 1116 585 1152 q 660 1026 660 1080 q 623 935 660 972 q 527 898 585 898 q 431 935 468 898 q 393 1026 393 972 q 431 1116 393 1080 q 527 1152 468 1152 m 673 756 l 673 219 q 612 -50 673 56 q 431 -218 551 -156 q 135 -316 311 -281 l 99 -144 q 291 -78 214 -118 q 408 28 369 -39 q 448 205 448 95 l 448 603 l 176 603 l 176 756 l 673 756 z "},"k":{"ha":855,"x_min":100,"x_max":838,"o":"m 325 1080 l 325 0 l 100 0 l 100 1057 l 325 1080 m 818 756 l 569 422 l 838 0 l 582 0 l 333 415 l 582 756 l 818 756 z "},"l":{"ha":855,"x_min":46,"x_max":753,"o":"m 494 1057 l 494 238 q 520 173 494 192 q 592 153 546 153 q 648 160 621 153 q 699 176 675 167 l 753 26 q 660 -9 714 6 q 534 -24 606 -24 q 333 54 397 -24 q 269 266 269 133 l 269 903 l 46 903 l 46 1057 l 494 1057 z "},"m":{"ha":855,"x_min":38,"x_max":817,"o":"m 659 781 q 778 729 739 781 q 817 560 817 677 l 817 0 l 624 0 l 624 534 q 616 590 624 574 q 586 607 609 607 q 550 597 568 607 q 508 558 531 586 l 508 0 l 350 0 l 350 534 q 342 590 350 574 q 312 607 335 607 q 275 597 294 607 q 234 558 256 586 l 234 0 l 38 0 l 38 756 l 203 756 l 218 683 q 290 756 254 731 q 376 781 326 781 q 449 760 419 781 q 492 692 479 738 q 568 756 526 731 q 659 781 609 781 z "},"n":{"ha":855,"x_min":100,"x_max":755,"o":"m 100 0 l 100 756 l 296 756 l 312 669 q 419 754 363 726 q 547 781 475 781 q 699 722 644 781 q 755 556 755 663 l 755 0 l 530 0 l 530 491 q 515 588 530 561 q 457 615 499 615 q 389 593 422 615 q 325 529 357 570 l 325 0 l 100 0 z "},"o":{"ha":855,"x_min":60,"x_max":795,"o":"m 427 781 q 626 731 544 781 q 751 592 708 682 q 795 380 795 501 q 698 83 795 191 q 427 -24 601 -24 q 157 82 254 -24 q 60 379 60 188 q 104 590 60 499 q 230 731 147 680 q 427 781 312 781 m 427 615 q 325 559 358 615 q 292 379 292 502 q 325 197 292 254 q 427 141 358 141 q 530 197 496 141 q 563 380 563 254 q 530 559 563 503 q 427 615 496 615 z "},"p":{"ha":855,"x_min":100,"x_max":795,"o":"m 519 781 q 678 732 618 781 q 767 593 739 683 q 795 380 795 504 q 761 172 795 264 q 662 28 726 80 q 504 -24 597 -24 q 325 55 394 -24 l 325 -292 l 100 -316 l 100 756 l 299 756 l 309 672 q 410 756 355 731 q 519 781 465 781 m 449 615 q 380 592 410 615 q 325 528 350 568 l 325 209 q 374 157 348 174 q 436 141 400 141 q 529 196 496 141 q 563 377 563 250 q 549 523 563 472 q 510 595 536 575 q 449 615 484 615 z "},"q":{"ha":855,"x_min":60,"x_max":755,"o":"m 363 781 q 548 696 479 781 l 558 756 l 755 756 l 755 -316 l 530 -292 l 530 63 q 450 0 497 24 q 336 -24 403 -24 q 178 26 239 -24 q 88 167 117 76 q 60 380 60 258 q 95 588 60 497 q 198 730 130 678 q 363 781 266 781 m 422 617 q 326 562 360 617 q 292 379 292 506 q 306 234 292 286 q 347 163 321 183 q 407 142 373 142 q 476 165 447 142 q 530 229 506 188 l 530 555 q 482 600 508 584 q 422 617 457 617 z "},"r":{"ha":855,"x_min":107,"x_max":802,"o":"m 107 0 l 107 151 l 207 151 l 207 607 l 107 607 l 107 756 l 378 756 l 420 586 q 523 731 460 684 q 677 779 586 779 q 746 773 716 779 q 802 756 776 767 l 760 440 l 619 440 l 619 580 q 506 510 555 568 q 432 368 458 452 l 432 151 l 581 151 l 581 0 l 107 0 z "},"s":{"ha":855,"x_min":68,"x_max":762,"o":"m 403 137 q 494 155 459 137 q 528 208 528 172 q 515 249 528 232 q 463 280 501 265 q 349 316 425 295 q 180 395 245 343 q 115 548 115 447 q 199 715 115 649 q 443 781 283 781 q 619 755 544 781 q 749 689 694 729 l 660 557 q 558 604 613 586 q 449 621 504 621 q 341 563 341 621 q 355 530 341 543 q 407 501 369 516 q 520 465 446 486 q 648 417 593 444 q 732 345 702 390 q 762 226 762 300 q 713 87 762 143 q 583 4 664 31 q 405 -24 501 -24 q 211 7 295 -24 q 68 90 127 38 l 181 217 q 281 160 225 182 q 403 137 337 137 z "},"t":{"ha":855,"x_min":82,"x_max":781,"o":"m 781 44 q 674 -4 736 16 q 533 -24 611 -24 q 313 52 385 -24 q 241 258 241 127 l 241 601 l 82 601 l 82 756 l 241 756 l 241 920 l 466 947 l 466 756 l 709 756 l 687 601 l 466 601 l 466 258 q 491 177 466 202 q 573 153 517 153 q 646 163 613 153 q 706 187 679 172 l 781 44 z "},"u":{"ha":855,"x_min":100,"x_max":755,"o":"m 325 756 l 325 239 q 345 163 325 184 q 402 142 365 142 q 472 165 437 142 q 530 224 506 187 l 530 756 l 755 756 l 755 0 l 558 0 l 548 88 q 447 4 510 33 q 316 -24 385 -24 q 153 40 207 -24 q 100 211 100 103 l 100 756 l 325 756 z "},"v":{"ha":855,"x_min":41,"x_max":813,"o":"m 813 756 l 561 0 l 296 0 l 41 756 l 284 756 l 432 172 l 585 756 l 813 756 z "},"w":{"ha":855,"x_min":5,"x_max":850,"o":"m 742 0 l 494 0 l 429 509 l 361 0 l 117 0 l 5 756 l 211 756 l 260 140 l 340 661 l 529 661 l 600 140 l 651 756 l 850 756 l 742 0 z "},"x":{"ha":855,"x_min":31,"x_max":823,"o":"m 275 0 l 31 0 l 291 397 l 56 756 l 308 756 l 429 514 l 546 756 l 785 756 l 563 406 l 823 0 l 568 0 l 419 283 l 275 0 z "},"y":{"ha":855,"x_min":40,"x_max":815,"o":"m 815 756 l 563 0 q 412 -229 513 -150 q 139 -317 311 -307 l 113 -158 q 234 -130 188 -149 q 308 -80 280 -112 q 357 0 336 -48 l 280 0 l 40 756 l 278 756 l 425 144 l 584 756 l 815 756 z "},"z":{"ha":855,"x_min":103,"x_max":747,"o":"m 368 170 l 747 170 l 726 0 l 103 0 l 103 159 l 478 587 l 134 587 l 134 756 l 740 756 l 740 598 l 368 170 z "},"{":{"ha":855,"x_min":150,"x_max":665,"o":"m 665 1197 l 665 1040 q 563 1022 600 1040 q 532 949 527 1004 l 554 739 q 537 610 563 660 q 458 535 511 561 q 333 499 405 509 q 462 462 409 487 q 538 387 514 436 q 554 258 563 339 l 532 48 q 563 -25 527 -6 q 665 -43 600 -43 l 665 -199 q 389 -140 468 -199 q 324 63 309 -80 l 345 267 q 327 352 351 321 q 257 395 303 382 q 150 407 211 407 l 150 590 q 256 602 210 590 q 327 645 303 615 q 345 730 351 676 l 324 932 q 388 1138 308 1079 q 665 1197 468 1197 z "},"|":{"ha":855,"x_min":322,"x_max":531,"o":"m 531 1154 l 531 -150 l 322 -150 l 322 1154 l 531 1154 z "},"}":{"ha":855,"x_min":190,"x_max":704,"o":"m 190 1197 q 466 1137 387 1197 q 531 934 546 1078 l 509 730 q 528 645 504 676 q 598 602 552 615 q 704 590 644 590 l 704 407 q 598 395 645 407 q 528 352 552 382 q 509 267 504 321 l 531 65 q 467 -140 547 -81 q 190 -199 387 -199 l 190 -43 q 292 -25 256 -43 q 323 48 328 -6 l 301 258 q 318 387 292 338 q 397 462 344 436 q 523 499 451 488 q 394 536 447 510 q 316 610 340 561 q 301 739 292 659 l 323 949 q 292 1022 328 1004 q 190 1040 255 1040 l 190 1197 z "},"~":{"ha":855,"x_min":31,"x_max":824,"o":"m 289 613 q 381 591 342 613 q 450 541 420 570 q 510 491 481 513 q 571 470 539 470 q 641 499 612 470 q 698 582 670 528 l 824 525 q 720 363 778 426 q 566 300 661 300 q 475 321 514 300 q 405 371 437 343 q 345 421 374 400 q 283 442 316 442 q 213 412 242 442 q 157 331 184 382 l 31 387 q 95 499 60 447 q 178 581 131 550 q 289 613 225 613 z "}," ":{"ha":855,"x_min":0,"x_max":0,"o":""},"¡":{"ha":855,"x_min":298,"x_max":556,"o":"m 427 729 q 519 690 481 729 q 556 599 556 652 q 519 509 556 547 q 427 472 481 472 q 337 509 375 472 q 298 599 298 547 q 337 690 298 652 q 427 729 375 729 m 517 341 l 548 -292 l 308 -292 l 337 341 l 517 341 z "},"¢":{"ha":855,"x_min":112,"x_max":743,"o":"m 559 986 l 559 773 q 743 688 661 757 l 645 553 q 572 596 607 584 q 501 608 537 608 q 387 554 427 608 q 347 373 347 501 q 389 200 347 246 q 499 153 430 153 q 569 166 537 153 q 641 209 600 179 l 743 66 q 559 -17 660 0 l 559 -229 l 397 -229 l 397 -13 q 186 118 260 14 q 112 373 112 221 q 187 635 112 527 q 398 771 263 743 l 398 986 l 559 986 z "},"£":{"ha":855,"x_min":60,"x_max":795,"o":"m 503 1012 q 795 868 692 1012 l 657 768 q 596 827 628 810 q 521 843 564 843 q 432 812 464 843 q 400 710 400 780 l 400 572 l 660 572 l 660 455 l 400 455 l 400 346 q 382 247 400 292 q 309 170 365 202 l 773 170 l 746 0 l 60 0 l 60 162 q 139 203 114 179 q 171 264 164 227 q 178 353 178 300 l 178 455 l 73 455 l 73 572 l 178 572 l 178 716 q 215 868 178 801 q 325 974 252 935 q 503 1012 397 1012 z "},"¤":{"ha":855,"x_min":44,"x_max":811,"o":"m 145 872 l 261 756 q 429 798 330 798 q 517 788 475 798 q 595 756 559 778 l 710 870 l 811 770 l 699 657 q 733 579 720 622 q 745 487 745 536 q 732 394 745 437 q 697 316 719 350 l 811 203 l 710 104 l 595 216 q 518 185 561 195 q 429 175 475 175 q 339 185 382 175 q 259 216 296 195 l 145 101 l 44 202 l 159 318 q 126 395 137 352 q 114 487 114 437 q 157 657 114 585 l 44 771 l 145 872 m 429 645 q 323 603 359 645 q 288 487 288 561 q 323 370 288 412 q 429 328 359 328 q 532 370 498 328 q 567 487 567 412 q 532 603 567 561 q 429 645 498 645 z "},"¥":{"ha":855,"x_min":11,"x_max":843,"o":"m 843 987 l 590 501 l 732 501 l 732 385 l 541 385 l 541 288 l 732 288 l 732 170 l 541 170 l 541 0 l 316 0 l 316 170 l 127 170 l 127 288 l 316 288 l 316 385 l 127 385 l 127 501 l 265 501 l 11 987 l 251 987 l 430 581 l 436 581 l 611 987 l 843 987 z "},"¦":{"ha":855,"x_min":322,"x_max":531,"o":"m 531 1154 l 531 635 l 322 635 l 322 1154 l 531 1154 m 531 369 l 531 -150 l 322 -150 l 322 369 l 531 369 z "},"§":{"ha":855,"x_min":111,"x_max":744,"o":"m 454 1012 q 603 990 533 1012 q 729 933 673 969 l 649 801 q 464 856 561 856 q 388 837 414 856 q 362 789 362 818 q 373 750 362 766 q 420 717 385 734 q 527 679 455 701 q 686 599 629 648 q 744 457 744 550 q 711 349 744 395 q 631 274 678 303 q 691 204 670 244 q 712 111 712 164 q 672 -9 712 43 q 562 -90 633 -61 q 395 -119 491 -119 q 240 -97 309 -119 q 119 -39 172 -75 l 196 99 q 287 54 241 70 q 384 38 333 38 q 466 56 437 38 q 496 104 496 75 q 485 143 496 127 q 438 177 474 160 q 326 217 402 194 q 168 297 224 249 q 111 438 111 346 q 145 544 111 499 q 227 619 179 589 q 145 781 145 684 q 183 900 145 848 q 290 982 221 952 q 454 1012 360 1012 m 345 561 q 317 515 325 538 q 308 470 308 491 q 324 420 308 439 q 383 381 340 400 q 509 334 427 362 q 546 427 546 382 q 531 476 546 457 q 472 514 515 495 q 345 561 428 533 z "},"¨":{"ha":855,"x_min":145,"x_max":709,"o":"m 263 908 q 179 941 214 908 q 145 1022 145 974 q 179 1103 145 1070 q 263 1135 214 1135 q 346 1103 313 1135 q 380 1022 380 1070 q 346 941 380 974 q 263 908 313 908 m 592 908 q 510 941 544 908 q 475 1022 475 974 q 510 1103 475 1070 q 592 1135 544 1135 q 676 1103 642 1135 q 709 1022 709 1070 q 676 941 709 974 q 592 908 642 908 z "},"©":{"ha":855,"x_min":12,"x_max":843,"o":"m 429 1080 q 653 1017 561 1080 q 794 845 745 953 q 843 605 843 738 q 794 365 843 472 q 653 194 745 257 q 429 131 561 131 q 200 194 293 131 q 60 365 108 257 q 12 605 12 472 q 62 845 12 738 q 204 1017 111 953 q 429 1080 298 1080 m 429 981 q 260 931 325 981 q 162 794 194 880 q 131 605 131 709 q 162 416 131 501 q 260 281 194 331 q 429 230 325 230 q 597 281 531 230 q 694 416 662 331 q 725 605 725 501 q 694 794 725 709 q 598 931 663 880 q 429 981 532 981 m 442 886 q 533 870 494 886 q 607 818 573 853 l 537 731 q 499 755 518 747 q 457 764 481 764 q 389 728 416 764 q 362 606 362 692 q 387 486 362 521 q 457 450 413 450 q 509 462 486 450 q 550 489 532 473 l 614 395 q 539 344 581 365 q 443 324 496 324 q 266 397 331 324 q 201 606 201 471 q 269 812 201 738 q 442 886 336 886 z "},"ª":{"ha":855,"x_min":119,"x_max":731,"o":"m 415 1080 q 625 1025 563 1080 q 687 863 687 969 l 687 630 q 698 584 687 599 q 730 561 708 569 l 686 436 q 587 461 625 442 q 528 519 549 480 q 337 433 455 433 q 179 488 239 433 q 119 631 119 543 q 199 784 119 729 q 428 840 280 840 l 504 840 l 504 858 q 476 925 504 908 q 386 941 449 941 q 315 933 360 941 q 219 908 270 925 l 173 1037 q 302 1070 239 1060 q 415 1080 365 1080 m 504 723 l 459 723 q 353 702 385 723 q 322 638 322 681 q 393 566 322 566 q 454 584 425 566 q 504 633 484 603 l 504 723 m 731 154 l 731 0 l 142 0 l 142 154 l 731 154 z "},"«":{"ha":855,"x_min":74,"x_max":781,"o":"m 446 106 l 316 24 l 74 337 l 74 479 l 316 793 l 446 711 l 281 409 l 446 106 m 781 106 l 651 24 l 407 337 l 407 479 l 651 793 l 781 711 l 616 409 l 781 106 z "},"¬":{"ha":855,"x_min":118,"x_max":736,"o":"m 736 540 l 736 148 l 551 148 l 551 367 l 118 367 l 118 540 l 736 540 z "},"­":{"ha":855,"x_min":192,"x_max":662,"o":"m 192 358 l 192 533 l 662 533 l 662 358 l 192 358 z "},"®":{"ha":855,"x_min":35,"x_max":818,"o":"m 429 1080 q 628 1029 540 1080 q 767 889 716 978 q 818 689 818 801 q 767 492 818 580 q 628 353 716 404 q 429 301 540 301 q 228 353 317 301 q 87 492 138 404 q 35 689 35 580 q 87 889 35 801 q 228 1029 138 978 q 429 1080 317 1080 m 429 986 q 283 947 347 986 q 182 840 219 907 q 145 689 145 774 q 182 541 145 607 q 283 436 219 474 q 429 397 347 397 q 573 436 510 397 q 672 541 636 474 q 708 689 708 607 q 672 840 708 774 q 573 947 636 907 q 429 986 510 986 m 399 905 q 590 779 590 905 q 566 710 590 739 q 506 668 543 682 l 617 500 l 499 500 l 410 647 l 377 647 l 377 500 l 275 500 l 275 905 l 399 905 m 409 828 l 377 828 l 377 729 l 410 729 q 485 782 485 729 q 409 828 485 828 z "},"¯":{"ha":855,"x_min":210,"x_max":645,"o":"m 645 937 l 210 937 l 210 1093 l 645 1093 l 645 937 z "},"°":{"ha":855,"x_min":101,"x_max":610,"o":"m 355 1080 q 476 1052 418 1080 q 572 970 535 1024 q 610 840 610 917 q 572 710 610 764 q 476 626 535 655 q 355 598 418 598 q 234 626 293 598 q 139 710 176 655 q 101 840 101 764 q 139 970 101 917 q 234 1052 176 1024 q 355 1080 293 1080 m 355 951 q 283 921 311 951 q 256 840 256 891 q 283 759 256 790 q 355 729 311 729 q 427 759 400 729 q 454 840 454 790 q 427 921 454 891 q 355 951 400 951 z "},"±":{"ha":855,"x_min":118,"x_max":736,"o":"m 522 796 l 522 572 l 736 572 l 736 402 l 522 402 l 522 249 l 333 249 l 333 402 l 118 402 l 118 572 l 333 572 l 333 796 l 522 796 m 736 170 l 736 0 l 118 0 l 118 170 l 736 170 z "},"²":{"ha":855,"x_min":207,"x_max":647,"o":"m 631 766 q 613 693 631 726 q 551 631 595 661 q 427 566 506 601 l 647 566 l 630 449 l 224 449 l 224 553 q 378 644 328 610 q 445 700 429 677 q 462 746 462 723 q 446 783 462 769 q 404 797 431 797 q 354 786 377 797 q 307 746 332 776 l 207 821 q 429 915 292 915 q 580 870 528 915 q 631 766 631 826 z "},"³":{"ha":855,"x_min":193,"x_max":657,"o":"m 436 915 q 584 879 532 915 q 635 788 635 843 q 611 723 635 746 q 536 688 586 699 q 627 655 598 679 q 657 581 657 630 q 593 478 657 516 q 422 440 530 440 q 297 458 358 440 q 193 519 236 476 l 285 596 q 347 563 317 573 q 416 553 377 553 q 489 598 489 553 q 473 628 489 617 q 418 639 458 639 l 343 639 l 361 730 l 417 730 q 458 740 444 730 q 472 764 472 749 q 417 801 472 801 q 353 793 381 801 q 289 761 325 784 l 209 842 q 436 915 300 915 z "},"´":{"ha":855,"x_min":225,"x_max":623,"o":"m 536 1189 l 623 1020 l 287 887 l 225 1001 l 536 1189 z "},"µ":{"ha":855,"x_min":95,"x_max":764,"o":"m 746 756 l 746 269 q 751 129 746 196 q 764 0 756 61 l 561 -20 q 551 29 556 1 q 542 90 546 58 q 470 9 511 40 q 379 -21 429 -21 q 313 -7 339 -21 q 256 47 287 8 q 294 -49 281 -4 q 308 -164 308 -95 l 308 -292 l 95 -315 l 95 756 l 318 756 l 318 326 q 330 191 318 236 q 397 145 342 145 q 466 167 434 145 q 521 226 497 189 l 521 756 l 746 756 z "},"¶":{"ha":855,"x_min":26,"x_max":828,"o":"m 828 987 l 828 -299 l 640 -315 l 640 835 l 521 835 l 521 -299 l 333 -315 l 333 377 q 103 470 180 391 q 26 681 26 550 q 67 839 26 770 q 187 948 107 908 q 385 987 266 987 l 828 987 z "},"·":{"ha":855,"x_min":269,"x_max":586,"o":"m 269 487 q 290 567 269 531 q 348 624 311 603 q 427 646 384 646 q 507 624 472 646 q 565 567 543 603 q 586 487 586 531 q 565 408 586 444 q 507 350 543 372 q 427 328 472 328 q 348 350 384 328 q 290 408 311 372 q 269 487 269 444 z "},"¸":{"ha":855,"x_min":237,"x_max":618,"o":"m 455 -207 q 422 -168 455 -178 q 324 -159 390 -159 l 344 23 l 469 23 l 469 -68 q 581 -114 544 -77 q 618 -209 618 -152 q 559 -328 618 -282 q 405 -374 501 -374 q 310 -360 354 -374 q 237 -330 266 -347 l 290 -226 q 334 -244 311 -237 q 381 -251 358 -251 q 435 -241 415 -251 q 455 -207 455 -231 z "},"¹":{"ha":855,"x_min":253,"x_max":600,"o":"m 439 449 l 439 749 l 328 692 l 253 793 l 464 906 l 600 906 l 600 449 l 439 449 z "},"º":{"ha":855,"x_min":112,"x_max":743,"o":"m 427 1080 q 596 1038 526 1080 q 705 923 667 996 q 743 758 743 850 q 705 588 743 662 q 596 474 667 515 q 427 433 526 433 q 258 474 329 433 q 150 588 187 515 q 112 758 112 661 q 150 923 112 850 q 259 1038 188 996 q 427 1080 330 1080 m 427 941 q 341 899 373 941 q 309 758 309 857 q 341 616 309 658 q 427 574 373 574 q 514 616 482 574 q 546 758 546 658 q 514 899 546 857 q 427 941 482 941 m 722 154 l 722 0 l 133 0 l 133 154 l 722 154 z "},"»":{"ha":855,"x_min":74,"x_max":781,"o":"m 572 409 l 407 711 l 537 793 l 781 479 l 781 337 l 537 24 l 407 106 l 572 409 m 239 409 l 74 711 l 203 793 l 446 479 l 446 337 l 203 24 l 74 106 l 239 409 z "},"¼":{"ha":855,"x_min":-25,"x_max":880,"o":"m 162 528 l 162 829 l 50 771 l -25 873 l 186 986 l 323 986 l 323 528 l 162 528 m 80 249 l 20 357 l 782 722 l 840 614 l 80 249 m 818 80 l 818 0 l 670 0 l 670 80 l 412 80 l 412 173 l 583 470 l 719 425 l 579 186 l 672 186 l 694 299 l 818 299 l 818 186 l 880 186 l 880 80 l 818 80 z "},"½":{"ha":855,"x_min":-29,"x_max":882,"o":"m 157 528 l 157 829 l 46 771 l -29 873 l 182 986 l 318 986 l 318 528 l 157 528 m 74 249 l 14 357 l 776 722 l 835 614 l 74 249 m 866 318 q 848 245 866 277 q 786 182 830 212 q 662 118 741 152 l 882 118 l 865 0 l 459 0 l 459 105 q 613 195 563 162 q 680 251 664 229 q 697 298 697 274 q 681 334 697 320 q 639 348 666 348 q 589 338 612 348 q 542 298 567 327 l 442 372 q 664 466 527 466 q 815 422 764 466 q 866 318 866 377 z "},"¾":{"ha":855,"x_min":-19,"x_max":875,"o":"m 224 994 q 371 959 320 994 q 423 868 423 923 q 399 802 423 826 q 324 768 374 778 q 415 734 385 759 q 444 661 444 710 q 381 558 444 596 q 209 520 318 520 q 84 538 145 520 q -19 598 24 556 l 73 676 q 135 643 105 652 q 204 633 165 633 q 276 678 276 633 q 261 708 276 697 q 206 719 246 719 l 130 719 l 149 810 l 205 810 q 245 819 231 810 q 259 843 259 829 q 204 881 259 881 q 141 873 169 881 q 77 841 113 864 l -4 922 q 224 994 88 994 m 87 249 l 27 357 l 789 722 l 848 614 l 87 249 m 814 80 l 814 0 l 665 0 l 665 80 l 408 80 l 408 173 l 579 470 l 715 425 l 575 186 l 668 186 l 689 299 l 814 299 l 814 186 l 875 186 l 875 80 l 814 80 z "},"¿":{"ha":855,"x_min":87,"x_max":757,"o":"m 452 729 q 543 690 505 729 q 580 599 580 652 q 543 509 580 547 q 452 472 505 472 q 360 509 397 472 q 323 599 323 547 q 360 690 323 652 q 452 729 397 729 m 556 341 l 556 296 q 533 176 556 222 q 474 100 509 130 q 404 48 439 70 q 345 2 369 26 q 322 -58 322 -22 q 354 -118 322 -97 q 436 -138 385 -138 q 613 -53 536 -138 l 757 -162 q 611 -275 697 -234 q 414 -316 526 -316 q 233 -282 306 -316 q 124 -195 160 -249 q 87 -77 87 -140 q 114 36 87 -8 q 180 109 140 80 q 259 165 219 139 q 325 225 298 192 q 352 312 352 259 l 352 341 l 556 341 z "},"À":{"ha":855,"x_min":-16,"x_max":872,"o":"m 570 213 l 281 213 l 229 0 l -16 0 l 286 987 l 570 987 l 872 0 l 622 0 l 570 213 m 318 382 l 531 382 l 425 819 l 318 382 m 316 1358 l 623 1184 l 569 1070 l 231 1189 l 316 1358 z "},"Á":{"ha":855,"x_min":-16,"x_max":872,"o":"m 570 213 l 281 213 l 229 0 l -16 0 l 286 987 l 570 987 l 872 0 l 622 0 l 570 213 m 318 382 l 531 382 l 425 819 l 318 382 m 538 1357 l 623 1189 l 285 1070 l 231 1184 l 538 1357 z "},"Â":{"ha":855,"x_min":-16,"x_max":872,"o":"m 570 213 l 281 213 l 229 0 l -16 0 l 286 987 l 570 987 l 872 0 l 622 0 l 570 213 m 318 382 l 531 382 l 425 819 l 318 382 m 496 1343 l 697 1157 l 617 1066 l 427 1187 l 238 1066 l 156 1157 l 358 1343 l 496 1343 z "},"Ã":{"ha":855,"x_min":-16,"x_max":872,"o":"m 570 213 l 281 213 l 229 0 l -16 0 l 286 987 l 570 987 l 872 0 l 622 0 l 570 213 m 318 382 l 531 382 l 425 819 l 318 382 z "},"Ä":{"ha":855,"x_min":-16,"x_max":872,"o":"m 570 213 l 281 213 l 229 0 l -16 0 l 286 987 l 570 987 l 872 0 l 622 0 l 570 213 m 318 382 l 531 382 l 425 819 l 318 382 z "},"Å":{"ha":855,"x_min":-16,"x_max":872,"o":"m 570 213 l 281 213 l 229 0 l -16 0 l 286 987 l 570 987 l 872 0 l 622 0 l 570 213 m 318 382 l 531 382 l 425 819 l 318 382 z "},"Æ":{"ha":855,"x_min":-17,"x_max":859,"o":"m 447 217 l 246 217 l 207 0 l -17 0 l 231 987 l 805 987 l 781 829 l 521 829 l 568 579 l 792 579 l 792 421 l 597 421 l 647 158 l 859 158 l 859 0 l 481 0 l 447 217 m 272 377 l 422 377 l 349 830 l 272 377 z "},"Ç":{"ha":855,"x_min":48,"x_max":840,"o":"m 510 1012 q 691 984 616 1012 q 827 905 765 956 l 712 766 q 623 819 672 800 q 516 839 573 839 q 402 804 454 839 q 321 693 351 769 q 290 496 290 617 q 354 237 290 318 q 520 156 419 156 q 643 184 594 156 q 734 244 692 212 l 840 109 q 703 15 784 54 q 507 -24 622 -24 q 270 35 373 -24 q 107 210 166 95 q 48 496 48 326 q 109 776 48 661 q 275 952 170 892 q 510 1012 380 1012 z "},"È":{"ha":855,"x_min":132,"x_max":778,"o":"m 366 821 l 366 583 l 708 583 l 708 420 l 366 420 l 366 167 l 778 167 l 778 0 l 132 0 l 132 987 l 778 987 l 754 821 l 366 821 m 345 1358 l 652 1184 l 598 1070 l 260 1189 l 345 1358 z "},"É":{"ha":855,"x_min":132,"x_max":778,"o":"m 366 821 l 366 583 l 708 583 l 708 420 l 366 420 l 366 167 l 778 167 l 778 0 l 132 0 l 132 987 l 778 987 l 754 821 l 366 821 m 567 1357 l 652 1189 l 313 1070 l 260 1184 l 567 1357 z "},"Ê":{"ha":855,"x_min":132,"x_max":778,"o":"m 366 821 l 366 583 l 708 583 l 708 420 l 366 420 l 366 167 l 778 167 l 778 0 l 132 0 l 132 987 l 778 987 l 754 821 l 366 821 m 525 1343 l 726 1157 l 645 1066 l 456 1187 l 266 1066 l 184 1157 l 387 1343 l 525 1343 z "},"Ë":{"ha":855,"x_min":132,"x_max":778,"o":"m 366 821 l 366 583 l 708 583 l 708 420 l 366 420 l 366 167 l 778 167 l 778 0 l 132 0 l 132 987 l 778 987 l 754 821 l 366 821 z "},"Ì":{"ha":855,"x_min":107,"x_max":748,"o":"m 748 987 l 748 816 l 544 816 l 544 172 l 748 172 l 748 0 l 107 0 l 107 172 l 311 172 l 311 816 l 107 816 l 107 987 l 748 987 m 316 1358 l 623 1184 l 569 1070 l 231 1189 l 316 1358 z "},"Í":{"ha":855,"x_min":107,"x_max":748,"o":"m 748 987 l 748 816 l 544 816 l 544 172 l 748 172 l 748 0 l 107 0 l 107 172 l 311 172 l 311 816 l 107 816 l 107 987 l 748 987 m 538 1357 l 623 1189 l 285 1070 l 231 1184 l 538 1357 z "},"Î":{"ha":855,"x_min":107,"x_max":748,"o":"m 748 987 l 748 816 l 544 816 l 544 172 l 748 172 l 748 0 l 107 0 l 107 172 l 311 172 l 311 816 l 107 816 l 107 987 l 748 987 m 496 1343 l 697 1157 l 617 1066 l 427 1187 l 238 1066 l 156 1157 l 358 1343 l 496 1343 z "},"Ï":{"ha":855,"x_min":107,"x_max":748,"o":"m 748 987 l 748 816 l 544 816 l 544 172 l 748 172 l 748 0 l 107 0 l 107 172 l 311 172 l 311 816 l 107 816 l 107 987 l 748 987 z "},"Ð":{"ha":855,"x_min":14,"x_max":837,"o":"m 837 499 q 797 251 837 348 q 690 99 758 153 q 537 22 623 44 q 359 0 451 0 l 93 0 l 93 432 l 14 432 l 14 573 l 93 573 l 93 987 l 342 987 q 525 968 437 987 q 684 896 614 948 q 796 748 754 843 q 837 499 837 652 m 496 573 l 496 432 l 326 432 l 326 169 l 376 169 q 490 197 441 169 q 567 297 539 225 q 595 499 595 369 q 566 700 595 632 q 488 793 537 769 q 376 818 438 818 l 326 818 l 326 573 l 496 573 z "},"Ñ":{"ha":855,"x_min":74,"x_max":781,"o":"m 497 0 l 237 794 q 252 686 244 752 q 267 540 261 620 q 273 373 273 459 l 273 0 l 74 0 l 74 987 l 365 987 l 618 197 q 594 370 606 265 q 582 609 582 476 l 582 987 l 781 987 l 781 0 l 497 0 z "},"Ò":{"ha":855,"x_min":32,"x_max":823,"o":"m 823 494 q 778 221 823 338 q 645 40 733 105 q 427 -24 557 -24 q 210 39 298 -24 q 77 218 122 102 q 32 494 32 334 q 77 767 32 651 q 210 948 122 883 q 427 1012 298 1012 q 645 949 557 1012 q 778 771 733 887 q 823 494 823 655 m 583 494 q 547 759 583 677 q 427 842 511 842 q 308 759 344 842 q 271 494 271 676 q 308 229 271 312 q 427 147 345 147 q 548 230 513 147 q 583 494 583 314 m 316 1358 l 623 1184 l 569 1070 l 231 1189 l 316 1358 z "},"Ó":{"ha":855,"x_min":32,"x_max":823,"o":"m 823 494 q 778 221 823 338 q 645 40 733 105 q 427 -24 557 -24 q 210 39 298 -24 q 77 218 122 102 q 32 494 32 334 q 77 767 32 651 q 210 948 122 883 q 427 1012 298 1012 q 645 949 557 1012 q 778 771 733 887 q 823 494 823 655 m 583 494 q 547 759 583 677 q 427 842 511 842 q 308 759 344 842 q 271 494 271 676 q 308 229 271 312 q 427 147 345 147 q 548 230 513 147 q 583 494 583 314 m 538 1357 l 623 1189 l 285 1070 l 231 1184 l 538 1357 z "},"Ô":{"ha":855,"x_min":32,"x_max":823,"o":"m 823 494 q 778 221 823 338 q 645 40 733 105 q 427 -24 557 -24 q 210 39 298 -24 q 77 218 122 102 q 32 494 32 334 q 77 767 32 651 q 210 948 122 883 q 427 1012 298 1012 q 645 949 557 1012 q 778 771 733 887 q 823 494 823 655 m 583 494 q 547 759 583 677 q 427 842 511 842 q 308 759 344 842 q 271 494 271 676 q 308 229 271 312 q 427 147 345 147 q 548 230 513 147 q 583 494 583 314 m 496 1343 l 697 1157 l 617 1066 l 427 1187 l 238 1066 l 156 1157 l 358 1343 l 496 1343 z "},"Õ":{"ha":855,"x_min":32,"x_max":823,"o":"m 823 494 q 778 221 823 338 q 645 40 733 105 q 427 -24 557 -24 q 210 39 298 -24 q 77 218 122 102 q 32 494 32 334 q 77 767 32 651 q 210 948 122 883 q 427 1012 298 1012 q 645 949 557 1012 q 778 771 733 887 q 823 494 823 655 m 583 494 q 547 759 583 677 q 427 842 511 842 q 308 759 344 842 q 271 494 271 676 q 308 229 271 312 q 427 147 345 147 q 548 230 513 147 q 583 494 583 314 z "},"Ö":{"ha":855,"x_min":32,"x_max":823,"o":"m 823 494 q 778 221 823 338 q 645 40 733 105 q 427 -24 557 -24 q 210 39 298 -24 q 77 218 122 102 q 32 494 32 334 q 77 767 32 651 q 210 948 122 883 q 427 1012 298 1012 q 645 949 557 1012 q 778 771 733 887 q 823 494 823 655 m 583 494 q 547 759 583 677 q 427 842 511 842 q 308 759 344 842 q 271 494 271 676 q 308 229 271 312 q 427 147 345 147 q 548 230 513 147 q 583 494 583 314 z "},"×":{"ha":855,"x_min":139,"x_max":716,"o":"m 591 726 l 716 601 l 548 437 l 716 274 l 591 149 l 427 316 l 264 149 l 139 274 l 306 437 l 139 601 l 264 726 l 427 558 l 591 726 z "},"Ø":{"ha":855,"x_min":32,"x_max":823,"o":"m 427 1012 q 501 1006 465 1012 l 542 1144 l 700 1098 l 650 940 q 778 763 733 877 q 823 494 823 649 q 778 221 823 338 q 645 40 733 105 q 427 -24 557 -24 q 353 -18 389 -24 l 313 -155 l 155 -109 l 203 48 q 77 226 121 112 q 32 494 32 340 q 77 767 32 651 q 210 948 122 883 q 427 1012 298 1012 m 427 846 q 301 763 340 846 q 263 494 263 679 q 296 236 263 319 l 474 840 q 427 846 453 846 m 592 494 q 584 643 592 580 q 561 749 577 707 l 385 148 q 427 142 404 142 q 554 227 517 142 q 592 494 592 311 z "},"Ù":{"ha":855,"x_min":60,"x_max":795,"o":"m 795 987 l 795 330 q 754 149 795 229 q 631 22 713 69 q 427 -24 550 -24 q 223 21 304 -24 q 100 145 141 66 q 60 330 60 225 l 60 987 l 294 987 l 294 417 q 318 217 294 284 q 427 150 343 150 q 536 217 512 150 q 561 417 561 284 l 561 987 l 795 987 m 316 1358 l 623 1184 l 569 1070 l 231 1189 l 316 1358 z "},"Ú":{"ha":855,"x_min":60,"x_max":795,"o":"m 795 987 l 795 330 q 754 149 795 229 q 631 22 713 69 q 427 -24 550 -24 q 223 21 304 -24 q 100 145 141 66 q 60 330 60 225 l 60 987 l 294 987 l 294 417 q 318 217 294 284 q 427 150 343 150 q 536 217 512 150 q 561 417 561 284 l 561 987 l 795 987 m 538 1357 l 623 1189 l 285 1070 l 231 1184 l 538 1357 z "},"Û":{"ha":855,"x_min":60,"x_max":795,"o":"m 795 987 l 795 330 q 754 149 795 229 q 631 22 713 69 q 427 -24 550 -24 q 223 21 304 -24 q 100 145 141 66 q 60 330 60 225 l 60 987 l 294 987 l 294 417 q 318 217 294 284 q 427 150 343 150 q 536 217 512 150 q 561 417 561 284 l 561 987 l 795 987 m 496 1343 l 697 1157 l 617 1066 l 427 1187 l 238 1066 l 156 1157 l 358 1343 l 496 1343 z "},"Ü":{"ha":855,"x_min":60,"x_max":795,"o":"m 795 987 l 795 330 q 754 149 795 229 q 631 22 713 69 q 427 -24 550 -24 q 223 21 304 -24 q 100 145 141 66 q 60 330 60 225 l 60 987 l 294 987 l 294 417 q 318 217 294 284 q 427 150 343 150 q 536 217 512 150 q 561 417 561 284 l 561 987 l 795 987 z "},"Ý":{"ha":855,"x_min":-11,"x_max":866,"o":"m 544 370 l 544 0 l 311 0 l 311 369 l -11 987 l 244 987 l 432 562 l 620 987 l 866 987 l 544 370 m 538 1357 l 623 1189 l 285 1070 l 231 1184 l 538 1357 z "},"Þ":{"ha":855,"x_min":85,"x_max":821,"o":"m 319 987 l 319 828 l 398 828 q 710 748 598 828 q 821 504 821 668 q 717 248 821 330 q 429 166 612 166 l 319 166 l 319 0 l 85 0 l 85 987 l 319 987 m 404 661 l 319 661 l 319 335 l 414 335 q 534 373 490 335 q 578 503 578 410 q 533 624 578 586 q 404 661 489 661 z "},"ß":{"ha":855,"x_min":85,"x_max":823,"o":"m 415 1080 q 571 1051 507 1080 q 669 971 635 1021 q 703 859 703 921 q 683 778 703 811 q 639 721 664 746 q 594 672 613 697 q 574 615 574 648 q 599 558 574 583 q 661 507 624 533 q 735 448 698 481 q 798 364 773 414 q 823 239 823 313 q 785 97 823 155 q 683 7 748 38 q 536 -24 618 -24 q 437 -12 481 -24 q 355 20 392 0 l 427 171 q 507 149 471 149 q 590 238 590 149 q 569 316 590 285 q 516 371 548 346 q 452 421 484 395 q 399 484 420 447 q 377 576 377 520 q 394 659 377 625 q 431 722 410 694 q 469 781 452 751 q 485 849 485 811 q 465 904 485 885 q 409 923 444 923 q 333 884 356 923 q 311 766 311 845 l 311 0 l 85 0 l 85 756 q 169 995 85 910 q 415 1080 252 1080 z "},"à":{"ha":855,"x_min":50,"x_max":786,"o":"m 736 218 q 748 156 736 175 q 786 127 760 137 l 740 -21 q 627 8 673 -15 q 555 78 581 31 q 444 1 511 26 q 306 -24 376 -24 q 119 42 189 -24 q 50 214 50 109 q 146 404 50 337 q 418 471 243 471 l 520 471 l 520 499 q 370 615 520 615 q 277 605 334 615 q 163 575 220 595 l 111 725 q 264 767 184 753 q 406 781 343 781 q 656 713 575 781 q 736 514 736 644 l 736 218 m 383 137 q 459 158 420 137 q 520 220 499 180 l 520 343 l 464 343 q 326 314 370 343 q 282 229 282 285 q 309 161 282 186 q 383 137 335 137 m 558 886 l 222 1020 l 309 1189 l 620 1000 l 558 886 z "},"á":{"ha":855,"x_min":50,"x_max":786,"o":"m 736 218 q 748 156 736 175 q 786 127 760 137 l 740 -21 q 627 8 673 -15 q 555 78 581 31 q 444 1 511 26 q 306 -24 376 -24 q 119 42 189 -24 q 50 214 50 109 q 146 404 50 337 q 418 471 243 471 l 520 471 l 520 499 q 370 615 520 615 q 277 605 334 615 q 163 575 220 595 l 111 725 q 264 767 184 753 q 406 781 343 781 q 656 713 575 781 q 736 514 736 644 l 736 218 m 383 137 q 459 158 420 137 q 520 220 499 180 l 520 343 l 464 343 q 326 314 370 343 q 282 229 282 285 q 309 161 282 186 q 383 137 335 137 m 526 1189 l 613 1020 l 277 887 l 215 1001 l 526 1189 z "},"â":{"ha":855,"x_min":50,"x_max":786,"o":"m 736 218 q 748 156 736 175 q 786 127 760 137 l 740 -21 q 627 8 673 -15 q 555 78 581 31 q 444 1 511 26 q 306 -24 376 -24 q 119 42 189 -24 q 50 214 50 109 q 146 404 50 337 q 418 471 243 471 l 520 471 l 520 499 q 370 615 520 615 q 277 605 334 615 q 163 575 220 595 l 111 725 q 264 767 184 753 q 406 781 343 781 q 656 713 575 781 q 736 514 736 644 l 736 218 m 383 137 q 459 158 420 137 q 520 220 499 180 l 520 343 l 464 343 q 326 314 370 343 q 282 229 282 285 q 309 161 282 186 q 383 137 335 137 m 229 871 l 146 963 l 348 1162 l 486 1162 l 687 963 l 607 871 l 417 1005 l 229 871 z "},"ã":{"ha":855,"x_min":50,"x_max":786,"o":"m 736 218 q 748 156 736 175 q 786 127 760 137 l 740 -21 q 627 8 673 -15 q 555 78 581 31 q 444 1 511 26 q 306 -24 376 -24 q 119 42 189 -24 q 50 214 50 109 q 146 404 50 337 q 418 471 243 471 l 520 471 l 520 499 q 370 615 520 615 q 277 605 334 615 q 163 575 220 595 l 111 725 q 264 767 184 753 q 406 781 343 781 q 656 713 575 781 q 736 514 736 644 l 736 218 m 383 137 q 459 158 420 137 q 520 220 499 180 l 520 343 l 464 343 q 326 314 370 343 q 282 229 282 285 q 309 161 282 186 q 383 137 335 137 m 497 904 q 428 920 456 904 q 380 952 401 936 q 335 968 358 968 q 292 952 308 968 q 259 905 276 937 l 146 961 q 219 1079 173 1028 q 330 1129 266 1129 q 402 1113 374 1129 q 450 1081 429 1097 q 496 1065 472 1065 q 536 1080 519 1065 q 570 1126 552 1095 l 683 1071 q 608 952 655 999 q 497 904 561 904 z "},"ä":{"ha":855,"x_min":50,"x_max":786,"o":"m 736 218 q 748 156 736 175 q 786 127 760 137 l 740 -21 q 627 8 673 -15 q 555 78 581 31 q 444 1 511 26 q 306 -24 376 -24 q 119 42 189 -24 q 50 214 50 109 q 146 404 50 337 q 418 471 243 471 l 520 471 l 520 499 q 370 615 520 615 q 277 605 334 615 q 163 575 220 595 l 111 725 q 264 767 184 753 q 406 781 343 781 q 656 713 575 781 q 736 514 736 644 l 736 218 m 383 137 q 459 158 420 137 q 520 220 499 180 l 520 343 l 464 343 q 326 314 370 343 q 282 229 282 285 q 309 161 282 186 q 383 137 335 137 m 253 908 q 170 941 204 908 q 135 1022 135 974 q 170 1103 135 1070 q 253 1135 204 1135 q 336 1103 303 1135 q 370 1022 370 1070 q 336 941 370 974 q 253 908 303 908 m 582 908 q 500 941 534 908 q 465 1022 465 974 q 500 1103 465 1070 q 582 1135 534 1135 q 666 1103 632 1135 q 699 1022 699 1070 q 666 941 699 974 q 582 908 632 908 z "},"å":{"ha":855,"x_min":50,"x_max":786,"o":"m 736 218 q 748 156 736 175 q 786 127 760 137 l 740 -21 q 627 8 673 -15 q 555 78 581 31 q 444 1 511 26 q 306 -24 376 -24 q 119 42 189 -24 q 50 214 50 109 q 146 404 50 337 q 418 471 243 471 l 520 471 l 520 499 q 370 615 520 615 q 277 605 334 615 q 163 575 220 595 l 111 725 q 264 767 184 753 q 406 781 343 781 q 656 713 575 781 q 736 514 736 644 l 736 218 m 383 137 q 459 158 420 137 q 520 220 499 180 l 520 343 l 464 343 q 326 314 370 343 q 282 229 282 285 q 309 161 282 186 q 383 137 335 137 m 416 1232 q 522 1207 478 1232 q 591 1138 567 1181 q 615 1045 615 1095 q 591 952 615 995 q 522 883 567 909 q 416 857 478 857 q 311 883 355 857 q 243 952 267 909 q 219 1045 219 995 q 243 1138 219 1095 q 311 1207 267 1181 q 416 1232 355 1232 m 416 1115 q 371 1098 388 1115 q 353 1045 353 1080 q 371 991 353 1009 q 416 974 388 974 q 463 991 445 974 q 481 1045 481 1009 q 463 1098 481 1080 q 416 1115 445 1115 z "},"æ":{"ha":855,"x_min":-9,"x_max":855,"o":"m 610 781 q 799 681 744 781 q 855 393 855 580 q 850 322 855 356 l 508 322 q 645 124 526 124 q 709 136 679 124 q 769 170 739 148 l 854 57 q 759 -1 813 22 q 632 -24 704 -24 q 498 7 553 -24 q 405 96 442 39 q 320 5 364 35 q 204 -24 276 -24 q 48 43 105 -24 q -9 217 -9 111 q 62 402 -9 338 q 280 466 133 466 l 338 466 l 338 499 q 306 608 338 572 q 212 643 273 643 q 149 636 177 643 q 78 608 121 628 l 28 731 q 130 768 83 755 q 234 781 177 781 q 358 754 312 781 q 430 681 404 726 q 501 754 456 726 q 610 781 546 781 m 602 640 q 535 598 558 640 q 508 444 512 556 l 685 444 q 668 593 684 545 q 602 640 652 640 m 338 344 l 308 344 q 208 313 237 344 q 179 226 179 282 q 196 150 179 178 q 244 123 213 123 q 299 145 275 123 q 344 211 323 167 q 340 277 341 243 q 338 344 338 312 z "},"ç":{"ha":855,"x_min":98,"x_max":770,"o":"m 501 153 q 588 171 547 153 q 670 218 629 189 l 770 75 q 649 4 720 33 q 489 -24 577 -24 q 279 26 367 -24 q 145 166 192 76 q 98 373 98 255 q 146 584 98 491 q 282 729 194 676 q 493 781 371 781 q 646 757 579 781 q 770 687 714 734 l 672 551 q 591 593 634 578 q 502 608 548 608 q 379 554 426 608 q 333 373 333 501 q 355 242 333 290 q 415 173 377 194 q 501 153 453 153 m 511 -207 q 478 -168 511 -178 q 380 -159 445 -159 l 400 23 l 525 23 l 525 -68 q 636 -114 600 -77 q 673 -209 673 -152 q 615 -328 673 -282 q 460 -374 557 -374 q 366 -360 410 -374 q 293 -330 322 -347 l 345 -226 q 390 -244 366 -237 q 437 -251 413 -251 q 491 -241 471 -251 q 511 -207 511 -231 z "},"è":{"ha":855,"x_min":66,"x_max":789,"o":"m 295 313 q 355 180 306 220 q 476 140 405 140 q 577 157 528 140 q 670 202 625 174 l 761 80 q 631 5 707 34 q 459 -24 556 -24 q 241 27 329 -24 q 110 170 154 79 q 66 377 66 260 q 108 581 66 489 q 233 727 151 672 q 434 781 316 781 q 622 735 543 781 q 745 602 702 689 q 789 393 789 515 q 788 352 789 374 q 785 313 787 330 l 295 313 m 434 630 q 337 587 374 630 q 292 448 300 543 l 570 448 q 538 580 569 531 q 434 630 506 630 m 578 886 l 241 1020 l 329 1189 l 640 1000 l 578 886 z "},"é":{"ha":855,"x_min":66,"x_max":789,"o":"m 295 313 q 355 180 306 220 q 476 140 405 140 q 577 157 528 140 q 670 202 625 174 l 761 80 q 631 5 707 34 q 459 -24 556 -24 q 241 27 329 -24 q 110 170 154 79 q 66 377 66 260 q 108 581 66 489 q 233 727 151 672 q 434 781 316 781 q 622 735 543 781 q 745 602 702 689 q 789 393 789 515 q 788 352 789 374 q 785 313 787 330 l 295 313 m 434 630 q 337 587 374 630 q 292 448 300 543 l 570 448 q 538 580 569 531 q 434 630 506 630 m 546 1189 l 633 1020 l 297 887 l 235 1001 l 546 1189 z "},"ê":{"ha":855,"x_min":66,"x_max":789,"o":"m 295 313 q 355 180 306 220 q 476 140 405 140 q 577 157 528 140 q 670 202 625 174 l 761 80 q 631 5 707 34 q 459 -24 556 -24 q 241 27 329 -24 q 110 170 154 79 q 66 377 66 260 q 108 581 66 489 q 233 727 151 672 q 434 781 316 781 q 622 735 543 781 q 745 602 702 689 q 789 393 789 515 q 788 352 789 374 q 785 313 787 330 l 295 313 m 434 630 q 337 587 374 630 q 292 448 300 543 l 570 448 q 538 580 569 531 q 434 630 506 630 m 249 871 l 166 963 l 368 1162 l 506 1162 l 707 963 l 627 871 l 437 1005 l 249 871 z "},"ë":{"ha":855,"x_min":66,"x_max":789,"o":"m 295 313 q 355 180 306 220 q 476 140 405 140 q 577 157 528 140 q 670 202 625 174 l 761 80 q 631 5 707 34 q 459 -24 556 -24 q 241 27 329 -24 q 110 170 154 79 q 66 377 66 260 q 108 581 66 489 q 233 727 151 672 q 434 781 316 781 q 622 735 543 781 q 745 602 702 689 q 789 393 789 515 q 788 352 789 374 q 785 313 787 330 l 295 313 m 434 630 q 337 587 374 630 q 292 448 300 543 l 570 448 q 538 580 569 531 q 434 630 506 630 m 273 908 q 189 941 224 908 q 155 1022 155 974 q 189 1103 155 1070 q 273 1135 224 1135 q 356 1103 323 1135 q 390 1022 390 1070 q 356 941 390 974 q 273 908 323 908 m 602 908 q 520 941 554 908 q 485 1022 485 974 q 520 1103 485 1070 q 602 1135 554 1135 q 686 1103 652 1135 q 719 1022 719 1070 q 686 941 719 974 q 602 908 652 908 z "},"ì":{"ha":855,"x_min":123,"x_max":754,"o":"m 562 756 l 562 154 l 754 154 l 754 0 l 123 0 l 123 154 l 337 154 l 337 603 l 130 603 l 130 756 l 562 756 m 566 886 l 230 1020 l 318 1189 l 628 1000 l 566 886 z "},"í":{"ha":855,"x_min":123,"x_max":754,"o":"m 562 756 l 562 154 l 754 154 l 754 0 l 123 0 l 123 154 l 337 154 l 337 603 l 130 603 l 130 756 l 562 756 m 534 1189 l 622 1020 l 286 887 l 224 1001 l 534 1189 z "},"î":{"ha":855,"x_min":123,"x_max":754,"o":"m 562 756 l 562 154 l 754 154 l 754 0 l 123 0 l 123 154 l 337 154 l 337 603 l 130 603 l 130 756 l 562 756 m 237 871 l 155 963 l 357 1162 l 495 1162 l 696 963 l 615 871 l 426 1005 l 237 871 z "},"ï":{"ha":855,"x_min":123,"x_max":754,"o":"m 562 756 l 562 154 l 754 154 l 754 0 l 123 0 l 123 154 l 337 154 l 337 603 l 130 603 l 130 756 l 562 756 m 261 908 q 178 941 212 908 q 144 1022 144 974 q 178 1103 144 1070 q 261 1135 212 1135 q 345 1103 311 1135 q 378 1022 378 1070 q 345 941 378 974 q 261 908 311 908 m 590 908 q 508 941 543 908 q 474 1022 474 974 q 508 1103 474 1070 q 590 1135 543 1135 q 674 1103 640 1135 q 708 1022 708 1070 q 674 941 708 974 q 590 908 640 908 z "},"ð":{"ha":855,"x_min":56,"x_max":793,"o":"m 179 813 l 262 900 q 200 918 233 910 q 132 933 168 926 l 177 1080 q 385 1028 297 1061 l 489 1136 l 604 1036 l 528 959 q 730 728 667 870 q 793 394 793 585 q 750 182 793 277 q 623 32 707 88 q 419 -24 540 -24 q 235 18 317 -24 q 104 140 152 61 q 56 333 56 220 q 99 518 56 439 q 211 642 141 598 q 363 687 281 687 q 470 668 426 687 q 553 615 515 650 q 490 740 529 688 q 401 829 452 792 l 322 748 l 179 813 m 565 365 q 565 418 565 392 q 563 467 565 443 q 422 528 508 528 q 323 481 360 528 q 286 336 286 434 q 323 186 286 232 q 423 140 360 140 q 531 196 496 140 q 565 365 565 251 z "},"ñ":{"ha":855,"x_min":100,"x_max":755,"o":"m 100 0 l 100 756 l 296 756 l 312 669 q 419 754 363 726 q 547 781 475 781 q 699 722 644 781 q 755 556 755 663 l 755 0 l 530 0 l 530 491 q 515 588 530 561 q 457 615 499 615 q 389 593 422 615 q 325 529 357 570 l 325 0 l 100 0 m 509 904 q 440 920 467 904 q 391 952 412 936 q 346 968 370 968 q 304 952 320 968 q 271 905 288 937 l 157 961 q 231 1079 184 1028 q 342 1129 277 1129 q 413 1113 385 1129 q 462 1081 441 1097 q 507 1065 483 1065 q 547 1080 531 1065 q 581 1126 563 1095 l 694 1071 q 619 952 667 999 q 509 904 572 904 z "},"ò":{"ha":855,"x_min":60,"x_max":795,"o":"m 427 781 q 626 731 544 781 q 751 592 708 682 q 795 380 795 501 q 698 83 795 191 q 427 -24 601 -24 q 157 82 254 -24 q 60 379 60 188 q 104 590 60 499 q 230 731 147 680 q 427 781 312 781 m 427 615 q 325 559 358 615 q 292 379 292 502 q 325 197 292 254 q 427 141 358 141 q 530 197 496 141 q 563 380 563 254 q 530 559 563 503 q 427 615 496 615 m 568 886 l 231 1020 l 319 1189 l 630 1000 l 568 886 z "},"ó":{"ha":855,"x_min":60,"x_max":795,"o":"m 427 781 q 626 731 544 781 q 751 592 708 682 q 795 380 795 501 q 698 83 795 191 q 427 -24 601 -24 q 157 82 254 -24 q 60 379 60 188 q 104 590 60 499 q 230 731 147 680 q 427 781 312 781 m 427 615 q 325 559 358 615 q 292 379 292 502 q 325 197 292 254 q 427 141 358 141 q 530 197 496 141 q 563 380 563 254 q 530 559 563 503 q 427 615 496 615 m 536 1189 l 623 1020 l 287 887 l 225 1001 l 536 1189 z "},"ô":{"ha":855,"x_min":60,"x_max":795,"o":"m 427 781 q 626 731 544 781 q 751 592 708 682 q 795 380 795 501 q 698 83 795 191 q 427 -24 601 -24 q 157 82 254 -24 q 60 379 60 188 q 104 590 60 499 q 230 731 147 680 q 427 781 312 781 m 427 615 q 325 559 358 615 q 292 379 292 502 q 325 197 292 254 q 427 141 358 141 q 530 197 496 141 q 563 380 563 254 q 530 559 563 503 q 427 615 496 615 m 239 871 l 156 963 l 358 1162 l 496 1162 l 697 963 l 617 871 l 427 1005 l 239 871 z "},"õ":{"ha":855,"x_min":60,"x_max":795,"o":"m 427 781 q 626 731 544 781 q 751 592 708 682 q 795 380 795 501 q 698 83 795 191 q 427 -24 601 -24 q 157 82 254 -24 q 60 379 60 188 q 104 590 60 499 q 230 731 147 680 q 427 781 312 781 m 427 615 q 325 559 358 615 q 292 379 292 502 q 325 197 292 254 q 427 141 358 141 q 530 197 496 141 q 563 380 563 254 q 530 559 563 503 q 427 615 496 615 m 507 904 q 438 920 466 904 q 390 952 411 936 q 345 968 368 968 q 302 952 318 968 q 269 905 286 937 l 156 961 q 229 1079 183 1028 q 340 1129 276 1129 q 412 1113 384 1129 q 460 1081 439 1097 q 506 1065 481 1065 q 546 1080 529 1065 q 580 1126 562 1095 l 693 1071 q 618 952 665 999 q 507 904 571 904 z "},"ö":{"ha":855,"x_min":60,"x_max":795,"o":"m 427 781 q 626 731 544 781 q 751 592 708 682 q 795 380 795 501 q 698 83 795 191 q 427 -24 601 -24 q 157 82 254 -24 q 60 379 60 188 q 104 590 60 499 q 230 731 147 680 q 427 781 312 781 m 427 615 q 325 559 358 615 q 292 379 292 502 q 325 197 292 254 q 427 141 358 141 q 530 197 496 141 q 563 380 563 254 q 530 559 563 503 q 427 615 496 615 m 263 908 q 179 941 214 908 q 145 1022 145 974 q 179 1103 145 1070 q 263 1135 214 1135 q 346 1103 313 1135 q 380 1022 380 1070 q 346 941 380 974 q 263 908 313 908 m 592 908 q 510 941 544 908 q 475 1022 475 974 q 510 1103 475 1070 q 592 1135 544 1135 q 676 1103 642 1135 q 709 1022 709 1070 q 676 941 709 974 q 592 908 642 908 z "},"÷":{"ha":855,"x_min":118,"x_max":736,"o":"m 427 887 q 519 849 481 887 q 556 759 556 811 q 519 669 556 707 q 427 631 481 631 q 336 669 373 631 q 298 759 298 707 q 336 849 298 811 q 427 887 373 887 m 736 540 l 736 367 l 118 367 l 118 540 l 736 540 m 427 277 q 519 239 481 277 q 556 149 556 202 q 519 58 556 95 q 427 20 481 20 q 336 58 373 20 q 298 149 298 95 q 336 239 298 202 q 427 277 373 277 z "},"ø":{"ha":855,"x_min":60,"x_max":795,"o":"m 427 781 q 472 779 450 781 l 526 944 l 690 896 l 634 726 q 754 588 712 677 q 795 380 795 499 q 698 83 795 191 q 427 -24 601 -24 q 383 -22 405 -24 l 330 -195 l 165 -147 l 223 28 q 102 165 144 75 q 60 379 60 254 q 104 590 60 499 q 230 731 147 680 q 427 781 312 781 m 427 620 q 322 563 355 620 q 288 379 288 506 q 293 266 288 312 q 313 192 299 221 l 450 619 q 427 620 439 620 m 567 380 q 562 488 567 444 q 543 560 556 532 l 407 137 q 427 137 417 137 q 533 194 499 137 q 567 380 567 251 z "},"ù":{"ha":855,"x_min":100,"x_max":755,"o":"m 325 756 l 325 239 q 345 163 325 184 q 402 142 365 142 q 472 165 437 142 q 530 224 506 187 l 530 756 l 755 756 l 755 0 l 558 0 l 548 88 q 447 4 510 33 q 316 -24 385 -24 q 153 40 207 -24 q 100 211 100 103 l 100 756 l 325 756 m 568 886 l 231 1020 l 319 1189 l 630 1000 l 568 886 z "},"ú":{"ha":855,"x_min":100,"x_max":755,"o":"m 325 756 l 325 239 q 345 163 325 184 q 402 142 365 142 q 472 165 437 142 q 530 224 506 187 l 530 756 l 755 756 l 755 0 l 558 0 l 548 88 q 447 4 510 33 q 316 -24 385 -24 q 153 40 207 -24 q 100 211 100 103 l 100 756 l 325 756 m 536 1189 l 623 1020 l 287 887 l 225 1001 l 536 1189 z "},"û":{"ha":855,"x_min":100,"x_max":755,"o":"m 325 756 l 325 239 q 345 163 325 184 q 402 142 365 142 q 472 165 437 142 q 530 224 506 187 l 530 756 l 755 756 l 755 0 l 558 0 l 548 88 q 447 4 510 33 q 316 -24 385 -24 q 153 40 207 -24 q 100 211 100 103 l 100 756 l 325 756 m 239 871 l 156 963 l 358 1162 l 496 1162 l 697 963 l 617 871 l 427 1005 l 239 871 z "},"ü":{"ha":855,"x_min":100,"x_max":755,"o":"m 325 756 l 325 239 q 345 163 325 184 q 402 142 365 142 q 472 165 437 142 q 530 224 506 187 l 530 756 l 755 756 l 755 0 l 558 0 l 548 88 q 447 4 510 33 q 316 -24 385 -24 q 153 40 207 -24 q 100 211 100 103 l 100 756 l 325 756 m 263 908 q 179 941 214 908 q 145 1022 145 974 q 179 1103 145 1070 q 263 1135 214 1135 q 346 1103 313 1135 q 380 1022 380 1070 q 346 941 380 974 q 263 908 313 908 m 592 908 q 510 941 544 908 q 475 1022 475 974 q 510 1103 475 1070 q 592 1135 544 1135 q 676 1103 642 1135 q 709 1022 709 1070 q 676 941 709 974 q 592 908 642 908 z "},"ý":{"ha":855,"x_min":40,"x_max":815,"o":"m 815 756 l 563 0 q 412 -229 513 -150 q 139 -317 311 -307 l 113 -158 q 234 -130 188 -149 q 308 -80 280 -112 q 357 0 336 -48 l 280 0 l 40 756 l 278 756 l 425 144 l 584 756 l 815 756 m 536 1189 l 623 1020 l 287 887 l 225 1001 l 536 1189 z "},"þ":{"ha":855,"x_min":100,"x_max":795,"o":"m 325 1080 l 325 680 q 409 755 359 729 q 519 781 459 781 q 678 732 618 781 q 767 593 739 683 q 795 380 795 504 q 761 172 795 264 q 662 28 726 80 q 504 -24 597 -24 q 325 55 394 -24 l 325 -292 l 100 -316 l 100 1057 l 325 1080 m 449 615 q 380 592 410 615 q 325 528 350 568 l 325 209 q 374 157 348 174 q 436 141 400 141 q 529 196 496 141 q 563 377 563 250 q 549 523 563 472 q 510 595 536 575 q 449 615 484 615 z "},"ÿ":{"ha":855,"x_min":40,"x_max":815,"o":"m 815 756 l 563 0 q 412 -229 513 -150 q 139 -317 311 -307 l 113 -158 q 234 -130 188 -149 q 308 -80 280 -112 q 357 0 336 -48 l 280 0 l 40 756 l 278 756 l 425 144 l 584 756 l 815 756 m 263 908 q 179 941 214 908 q 145 1022 145 974 q 179 1103 145 1070 q 263 1135 214 1135 q 346 1103 313 1135 q 380 1022 380 1070 q 346 941 380 974 q 263 908 313 908 m 592 908 q 510 941 544 908 q 475 1022 475 974 q 510 1103 475 1070 q 592 1135 544 1135 q 676 1103 642 1135 q 709 1022 709 1070 q 676 941 709 974 q 592 908 642 908 z "},"Ā":{"ha":855,"x_min":-16,"x_max":872,"o":"m 570 213 l 281 213 l 229 0 l -16 0 l 286 987 l 570 987 l 872 0 l 622 0 l 570 213 m 318 382 l 531 382 l 425 819 l 318 382 z "},"ā":{"ha":855,"x_min":50,"x_max":786,"o":"m 736 218 q 748 156 736 175 q 786 127 760 137 l 740 -21 q 627 8 673 -15 q 555 78 581 31 q 444 1 511 26 q 306 -24 376 -24 q 119 42 189 -24 q 50 214 50 109 q 146 404 50 337 q 418 471 243 471 l 520 471 l 520 499 q 370 615 520 615 q 277 605 334 615 q 163 575 220 595 l 111 725 q 264 767 184 753 q 406 781 343 781 q 656 713 575 781 q 736 514 736 644 l 736 218 m 383 137 q 459 158 420 137 q 520 220 499 180 l 520 343 l 464 343 q 326 314 370 343 q 282 229 282 285 q 309 161 282 186 q 383 137 335 137 m 635 937 l 200 937 l 200 1093 l 635 1093 l 635 937 z "},"Ă":{"ha":855,"x_min":-16,"x_max":872,"o":"m 570 213 l 281 213 l 229 0 l -16 0 l 286 987 l 570 987 l 872 0 l 622 0 l 570 213 m 318 382 l 531 382 l 425 819 l 318 382 m 427 1070 q 297 1099 349 1070 q 217 1179 245 1129 q 182 1290 189 1229 l 306 1312 q 427 1226 333 1226 q 548 1312 522 1226 l 673 1290 q 604 1134 664 1198 q 427 1070 545 1070 z "},"ă":{"ha":855,"x_min":50,"x_max":786,"o":"m 736 218 q 748 156 736 175 q 786 127 760 137 l 740 -21 q 627 8 673 -15 q 555 78 581 31 q 444 1 511 26 q 306 -24 376 -24 q 119 42 189 -24 q 50 214 50 109 q 146 404 50 337 q 418 471 243 471 l 520 471 l 520 499 q 370 615 520 615 q 277 605 334 615 q 163 575 220 595 l 111 725 q 264 767 184 753 q 406 781 343 781 q 656 713 575 781 q 736 514 736 644 l 736 218 m 383 137 q 459 158 420 137 q 520 220 499 180 l 520 343 l 464 343 q 326 314 370 343 q 282 229 282 285 q 309 161 282 186 q 383 137 335 137 m 417 871 q 286 907 339 871 q 205 1000 234 943 q 172 1120 177 1058 l 296 1142 q 339 1058 309 1090 q 417 1026 368 1026 q 496 1058 467 1026 q 538 1142 526 1090 l 663 1120 q 629 1000 657 1058 q 548 907 600 943 q 417 871 496 871 z "},"Ą":{"ha":855,"x_min":-16,"x_max":872,"o":"m 570 213 l 281 213 l 229 0 l -16 0 l 286 987 l 570 987 l 872 0 l 622 0 l 570 213 m 318 382 l 531 382 l 425 819 l 318 382 m 734 73 l 759 0 q 628 -74 660 -35 q 595 -157 595 -113 q 618 -209 595 -192 q 678 -226 640 -226 q 719 -224 701 -226 q 755 -217 737 -221 l 738 -350 q 699 -358 719 -355 q 654 -361 679 -361 q 501 -316 563 -361 q 439 -185 439 -270 q 478 -62 439 -110 q 584 17 517 -14 q 734 73 652 48 z "},"ą":{"ha":855,"x_min":50,"x_max":786,"o":"m 736 218 q 748 156 736 175 q 786 127 760 137 l 740 -21 q 627 8 673 -15 q 555 78 581 31 q 444 1 511 26 q 306 -24 376 -24 q 119 42 189 -24 q 50 214 50 109 q 146 404 50 337 q 418 471 243 471 l 520 471 l 520 499 q 370 615 520 615 q 277 605 334 615 q 163 575 220 595 l 111 725 q 264 767 184 753 q 406 781 343 781 q 656 713 575 781 q 736 514 736 644 l 736 218 m 383 137 q 459 158 420 137 q 520 220 499 180 l 520 343 l 464 343 q 326 314 370 343 q 282 229 282 285 q 309 161 282 186 q 383 137 335 137 m 715 52 l 740 -21 q 609 -95 641 -56 q 576 -178 576 -135 q 599 -230 576 -213 q 659 -248 621 -248 q 700 -245 682 -248 q 736 -238 718 -242 l 719 -371 q 679 -379 699 -376 q 635 -382 660 -382 q 482 -337 544 -382 q 420 -207 420 -291 q 459 -84 420 -132 q 565 -4 498 -36 q 715 52 632 27 z "},"Ć":{"ha":855,"x_min":48,"x_max":840,"o":"m 510 1012 q 691 984 616 1012 q 827 905 765 956 l 712 766 q 623 819 672 800 q 516 839 573 839 q 402 804 454 839 q 321 693 351 769 q 290 496 290 617 q 354 237 290 318 q 520 156 419 156 q 643 184 594 156 q 734 244 692 212 l 840 109 q 703 15 784 54 q 507 -24 622 -24 q 270 35 373 -24 q 107 210 166 95 q 48 496 48 326 q 109 776 48 661 q 275 952 170 892 q 510 1012 380 1012 m 625 1357 l 710 1189 l 372 1070 l 318 1184 l 625 1357 z "},"ć":{"ha":855,"x_min":98,"x_max":770,"o":"m 501 153 q 588 171 547 153 q 670 218 629 189 l 770 75 q 649 4 720 33 q 489 -24 577 -24 q 279 26 367 -24 q 145 166 192 76 q 98 373 98 255 q 146 584 98 491 q 282 729 194 676 q 493 781 371 781 q 646 757 579 781 q 770 687 714 734 l 672 551 q 591 593 634 578 q 502 608 548 608 q 379 554 426 608 q 333 373 333 501 q 355 242 333 290 q 415 173 377 194 q 501 153 453 153 m 598 1171 l 686 1001 l 350 868 l 288 982 l 598 1171 z "},"Ĉ":{"ha":855,"x_min":48,"x_max":840,"o":"m 510 1012 q 691 984 616 1012 q 827 905 765 956 l 712 766 q 623 819 672 800 q 516 839 573 839 q 402 804 454 839 q 321 693 351 769 q 290 496 290 617 q 354 237 290 318 q 520 156 419 156 q 643 184 594 156 q 734 244 692 212 l 840 109 q 703 15 784 54 q 507 -24 622 -24 q 270 35 373 -24 q 107 210 166 95 q 48 496 48 326 q 109 776 48 661 q 275 952 170 892 q 510 1012 380 1012 m 583 1343 l 784 1157 l 704 1066 l 514 1187 l 325 1066 l 243 1157 l 445 1343 l 583 1343 z "},"ĉ":{"ha":855,"x_min":98,"x_max":770,"o":"m 501 153 q 588 171 547 153 q 670 218 629 189 l 770 75 q 649 4 720 33 q 489 -24 577 -24 q 279 26 367 -24 q 145 166 192 76 q 98 373 98 255 q 146 584 98 491 q 282 729 194 676 q 493 781 371 781 q 646 757 579 781 q 770 687 714 734 l 672 551 q 591 593 634 578 q 502 608 548 608 q 379 554 426 608 q 333 373 333 501 q 355 242 333 290 q 415 173 377 194 q 501 153 453 153 m 301 853 l 219 944 l 421 1143 l 559 1143 l 760 944 l 679 853 l 490 986 l 301 853 z "},"Ċ":{"ha":855,"x_min":48,"x_max":840,"o":"m 510 1012 q 691 984 616 1012 q 827 905 765 956 l 712 766 q 623 819 672 800 q 516 839 573 839 q 402 804 454 839 q 321 693 351 769 q 290 496 290 617 q 354 237 290 318 q 520 156 419 156 q 643 184 594 156 q 734 244 692 212 l 840 109 q 703 15 784 54 q 507 -24 622 -24 q 270 35 373 -24 q 107 210 166 95 q 48 496 48 326 q 109 776 48 661 q 275 952 170 892 q 510 1012 380 1012 z "},"ċ":{"ha":855,"x_min":98,"x_max":770,"o":"m 501 153 q 588 171 547 153 q 670 218 629 189 l 770 75 q 649 4 720 33 q 489 -24 577 -24 q 279 26 367 -24 q 145 166 192 76 q 98 373 98 255 q 146 584 98 491 q 282 729 194 676 q 493 781 371 781 q 646 757 579 781 q 770 687 714 734 l 672 551 q 591 593 634 578 q 502 608 548 608 q 379 554 426 608 q 333 373 333 501 q 355 242 333 290 q 415 173 377 194 q 501 153 453 153 m 490 1134 q 585 1098 548 1134 q 623 1007 623 1061 q 585 916 623 953 q 490 880 548 880 q 394 916 431 880 q 356 1007 356 953 q 394 1098 356 1061 q 490 1134 431 1134 z "},"Č":{"ha":855,"x_min":48,"x_max":840,"o":"m 510 1012 q 691 984 616 1012 q 827 905 765 956 l 712 766 q 623 819 672 800 q 516 839 573 839 q 402 804 454 839 q 321 693 351 769 q 290 496 290 617 q 354 237 290 318 q 520 156 419 156 q 643 184 594 156 q 734 244 692 212 l 840 109 q 703 15 784 54 q 507 -24 622 -24 q 270 35 373 -24 q 107 210 166 95 q 48 496 48 326 q 109 776 48 661 q 275 952 170 892 q 510 1012 380 1012 m 704 1348 l 784 1256 l 583 1070 l 445 1070 l 243 1256 l 325 1348 l 514 1226 l 704 1348 z "},"č":{"ha":855,"x_min":98,"x_max":770,"o":"m 501 153 q 588 171 547 153 q 670 218 629 189 l 770 75 q 649 4 720 33 q 489 -24 577 -24 q 279 26 367 -24 q 145 166 192 76 q 98 373 98 255 q 146 584 98 491 q 282 729 194 676 q 493 781 371 781 q 646 757 579 781 q 770 687 714 734 l 672 551 q 591 593 634 578 q 502 608 548 608 q 379 554 426 608 q 333 373 333 501 q 355 242 333 290 q 415 173 377 194 q 501 153 453 153 m 679 1143 l 760 1051 l 559 853 l 421 853 l 219 1051 l 301 1143 l 490 1009 l 679 1143 z "},"Ď":{"ha":855,"x_min":74,"x_max":818,"o":"m 818 499 q 779 251 818 348 q 672 99 739 153 q 518 22 604 44 q 340 0 432 0 l 74 0 l 74 987 l 323 987 q 507 968 418 987 q 666 896 595 948 q 777 748 736 843 q 818 499 818 652 m 576 499 q 547 700 576 632 q 469 793 519 769 q 358 818 420 818 l 308 818 l 308 169 l 358 169 q 472 197 422 169 q 548 297 521 225 q 576 499 576 369 m 598 1348 l 679 1256 l 478 1070 l 340 1070 l 137 1256 l 219 1348 l 409 1226 l 598 1348 z "},"ď":{"ha":855,"x_min":2,"x_max":986,"o":"m 475 1080 l 700 1057 l 700 0 l 501 0 l 489 83 q 406 7 458 39 q 280 -24 354 -24 q 124 26 186 -24 q 32 168 63 77 q 2 380 2 259 q 38 588 2 497 q 142 730 75 678 q 303 781 210 781 q 475 712 405 781 l 475 1080 m 364 617 q 270 562 306 617 q 234 379 234 506 q 249 234 234 286 q 291 162 264 182 q 351 141 317 141 q 420 165 389 141 q 475 229 451 188 l 475 555 q 425 600 452 584 q 364 617 399 617 m 790 1088 l 986 1064 l 877 734 l 736 756 l 790 1088 z "},"Đ":{"ha":855,"x_min":14,"x_max":837,"o":"m 837 499 q 797 251 837 348 q 690 99 758 153 q 537 22 623 44 q 359 0 451 0 l 93 0 l 93 432 l 14 432 l 14 573 l 93 573 l 93 987 l 342 987 q 525 968 437 987 q 684 896 614 948 q 796 748 754 843 q 837 499 837 652 m 496 573 l 496 432 l 326 432 l 326 169 l 376 169 q 490 197 441 169 q 567 297 539 225 q 595 499 595 369 q 566 700 595 632 q 488 793 537 769 q 376 818 438 818 l 326 818 l 326 573 l 496 573 z "},"đ":{"ha":855,"x_min":31,"x_max":843,"o":"m 504 1080 l 729 1057 l 729 976 l 843 976 l 843 845 l 729 845 l 729 0 l 529 0 l 518 83 q 434 7 486 39 q 308 -24 382 -24 q 153 26 214 -24 q 61 168 91 77 q 31 380 31 259 q 67 588 31 497 q 171 730 103 678 q 332 781 239 781 q 504 712 434 781 l 504 845 l 330 845 l 330 976 l 504 976 l 504 1080 m 392 617 q 298 562 334 617 q 263 379 263 506 q 278 234 263 286 q 319 162 293 182 q 380 141 345 141 q 448 165 417 141 q 504 229 479 188 l 504 555 q 454 600 480 584 q 392 617 427 617 z "},"Ē":{"ha":855,"x_min":132,"x_max":778,"o":"m 366 821 l 366 583 l 708 583 l 708 420 l 366 420 l 366 167 l 778 167 l 778 0 l 132 0 l 132 987 l 778 987 l 754 821 l 366 821 z "},"ē":{"ha":855,"x_min":66,"x_max":789,"o":"m 295 313 q 355 180 306 220 q 476 140 405 140 q 577 157 528 140 q 670 202 625 174 l 761 80 q 631 5 707 34 q 459 -24 556 -24 q 241 27 329 -24 q 110 170 154 79 q 66 377 66 260 q 108 581 66 489 q 233 727 151 672 q 434 781 316 781 q 622 735 543 781 q 745 602 702 689 q 789 393 789 515 q 788 352 789 374 q 785 313 787 330 l 295 313 m 434 630 q 337 587 374 630 q 292 448 300 543 l 570 448 q 538 580 569 531 q 434 630 506 630 m 655 937 l 220 937 l 220 1093 l 655 1093 l 655 937 z "},"Ĕ":{"ha":855,"x_min":132,"x_max":778,"o":"m 366 821 l 366 583 l 708 583 l 708 420 l 366 420 l 366 167 l 778 167 l 778 0 l 132 0 l 132 987 l 778 987 l 754 821 l 366 821 m 456 1070 q 325 1099 377 1070 q 245 1179 274 1129 q 210 1290 217 1229 l 335 1312 q 456 1226 361 1226 q 577 1312 551 1226 l 702 1290 q 633 1134 692 1198 q 456 1070 573 1070 z "},"ĕ":{"ha":855,"x_min":66,"x_max":789,"o":"m 295 313 q 355 180 306 220 q 476 140 405 140 q 577 157 528 140 q 670 202 625 174 l 761 80 q 631 5 707 34 q 459 -24 556 -24 q 241 27 329 -24 q 110 170 154 79 q 66 377 66 260 q 108 581 66 489 q 233 727 151 672 q 434 781 316 781 q 622 735 543 781 q 745 602 702 689 q 789 393 789 515 q 788 352 789 374 q 785 313 787 330 l 295 313 m 434 630 q 337 587 374 630 q 292 448 300 543 l 570 448 q 538 580 569 531 q 434 630 506 630 m 437 871 q 306 907 359 871 q 225 1000 254 943 q 192 1120 197 1058 l 316 1142 q 359 1058 329 1090 q 437 1026 388 1026 q 516 1058 486 1026 q 558 1142 546 1090 l 683 1120 q 649 1000 677 1058 q 568 907 620 943 q 437 871 516 871 z "},"Ė":{"ha":855,"x_min":132,"x_max":778,"o":"m 366 821 l 366 583 l 708 583 l 708 420 l 366 420 l 366 167 l 778 167 l 778 0 l 132 0 l 132 987 l 778 987 l 754 821 l 366 821 z "},"ė":{"ha":855,"x_min":66,"x_max":789,"o":"m 295 313 q 355 180 306 220 q 476 140 405 140 q 577 157 528 140 q 670 202 625 174 l 761 80 q 631 5 707 34 q 459 -24 556 -24 q 241 27 329 -24 q 110 170 154 79 q 66 377 66 260 q 108 581 66 489 q 233 727 151 672 q 434 781 316 781 q 622 735 543 781 q 745 602 702 689 q 789 393 789 515 q 788 352 789 374 q 785 313 787 330 l 295 313 m 434 630 q 337 587 374 630 q 292 448 300 543 l 570 448 q 538 580 569 531 q 434 630 506 630 m 437 1152 q 533 1116 496 1152 q 570 1026 570 1080 q 533 935 570 972 q 437 898 496 898 q 341 935 378 898 q 303 1026 303 972 q 341 1116 303 1080 q 437 1152 378 1152 z "},"Ę":{"ha":855,"x_min":132,"x_max":778,"o":"m 366 821 l 366 583 l 708 583 l 708 420 l 366 420 l 366 167 l 778 167 l 778 0 l 132 0 l 132 987 l 778 987 l 754 821 l 366 821 m 640 73 l 665 0 q 534 -74 566 -35 q 501 -157 501 -113 q 524 -209 501 -192 q 584 -226 546 -226 q 625 -224 607 -226 q 661 -217 643 -221 l 644 -350 q 605 -358 625 -355 q 560 -361 585 -361 q 407 -316 469 -361 q 345 -185 345 -270 q 384 -62 345 -110 q 490 17 423 -14 q 640 73 558 48 z "},"ę":{"ha":855,"x_min":66,"x_max":789,"o":"m 295 313 q 355 180 306 220 q 476 140 405 140 q 577 157 528 140 q 670 202 625 174 l 761 80 q 697 35 732 55 q 620 1 661 14 l 620 0 q 488 -74 521 -35 q 456 -157 456 -113 q 478 -209 456 -192 q 538 -226 501 -226 q 579 -224 561 -226 q 615 -217 598 -221 l 598 -350 q 559 -358 579 -355 q 514 -361 539 -361 q 361 -316 424 -361 q 299 -185 299 -270 q 325 -91 299 -131 q 397 -21 352 -51 q 214 45 288 -9 q 103 184 140 98 q 66 377 66 270 q 108 581 66 489 q 233 727 151 672 q 434 781 316 781 q 622 735 543 781 q 745 602 702 689 q 789 393 789 515 q 788 352 789 374 q 785 313 787 330 l 295 313 m 434 630 q 337 587 374 630 q 292 448 300 543 l 570 448 q 538 580 569 531 q 434 630 506 630 z "},"Ě":{"ha":855,"x_min":132,"x_max":778,"o":"m 366 821 l 366 583 l 708 583 l 708 420 l 366 420 l 366 167 l 778 167 l 778 0 l 132 0 l 132 987 l 778 987 l 754 821 l 366 821 m 645 1348 l 726 1256 l 525 1070 l 387 1070 l 184 1256 l 266 1348 l 456 1226 l 645 1348 z "},"ě":{"ha":855,"x_min":66,"x_max":789,"o":"m 295 313 q 355 180 306 220 q 476 140 405 140 q 577 157 528 140 q 670 202 625 174 l 761 80 q 631 5 707 34 q 459 -24 556 -24 q 241 27 329 -24 q 110 170 154 79 q 66 377 66 260 q 108 581 66 489 q 233 727 151 672 q 434 781 316 781 q 622 735 543 781 q 745 602 702 689 q 789 393 789 515 q 788 352 789 374 q 785 313 787 330 l 295 313 m 434 630 q 337 587 374 630 q 292 448 300 543 l 570 448 q 538 580 569 531 q 434 630 506 630 m 627 1162 l 707 1070 l 506 871 l 368 871 l 166 1070 l 249 1162 l 437 1028 l 627 1162 z "},"Ĝ":{"ha":855,"x_min":32,"x_max":809,"o":"m 464 -24 q 143 109 254 -24 q 32 496 32 241 q 93 779 32 664 q 259 953 155 894 q 491 1012 363 1012 q 673 979 599 1012 q 805 890 747 945 l 682 764 q 596 823 637 803 q 502 842 555 842 q 384 807 436 842 q 303 695 333 771 q 273 494 273 618 q 294 289 273 365 q 358 180 315 213 q 466 147 400 147 q 531 155 501 147 q 588 177 562 163 l 588 402 l 464 402 l 442 566 l 809 566 l 809 75 q 650 3 735 30 q 464 -24 565 -24 m 539 1343 l 740 1157 l 660 1066 l 470 1187 l 281 1066 l 199 1157 l 401 1343 l 539 1343 z "},"ĝ":{"ha":855,"x_min":44,"x_max":824,"o":"m 771 877 l 824 712 q 731 689 784 697 q 606 682 677 682 q 715 606 677 652 q 752 488 752 561 q 713 357 752 415 q 602 267 674 300 q 432 234 530 234 q 344 243 385 234 q 325 224 332 236 q 319 199 319 212 q 334 167 319 182 q 402 153 348 153 l 526 153 q 679 125 615 153 q 779 47 744 96 q 815 -66 815 -2 q 713 -249 815 -182 q 410 -316 611 -316 q 186 -286 265 -316 q 75 -202 106 -256 q 44 -73 44 -147 l 244 -73 q 257 -126 244 -105 q 307 -157 270 -147 q 416 -167 345 -167 q 526 -156 488 -167 q 577 -125 563 -145 q 591 -81 591 -105 q 565 -27 591 -48 q 481 -6 538 -6 l 361 -6 q 183 39 239 -6 q 127 145 127 84 q 150 224 127 187 q 213 288 172 262 q 109 379 140 326 q 78 504 78 431 q 121 651 78 590 q 241 746 165 713 q 416 780 318 780 q 563 792 501 778 q 676 828 626 805 q 771 877 726 851 m 422 634 q 337 600 368 634 q 306 507 306 566 q 338 411 306 444 q 422 377 370 377 q 537 510 537 377 q 422 634 537 634 m 240 871 l 157 963 l 360 1162 l 498 1162 l 699 963 l 618 871 l 429 1005 l 240 871 z "},"Ğ":{"ha":855,"x_min":32,"x_max":809,"o":"m 464 -24 q 143 109 254 -24 q 32 496 32 241 q 93 779 32 664 q 259 953 155 894 q 491 1012 363 1012 q 673 979 599 1012 q 805 890 747 945 l 682 764 q 596 823 637 803 q 502 842 555 842 q 384 807 436 842 q 303 695 333 771 q 273 494 273 618 q 294 289 273 365 q 358 180 315 213 q 466 147 400 147 q 531 155 501 147 q 588 177 562 163 l 588 402 l 464 402 l 442 566 l 809 566 l 809 75 q 650 3 735 30 q 464 -24 565 -24 m 470 1070 q 340 1099 392 1070 q 260 1179 288 1129 q 224 1290 231 1229 l 349 1312 q 470 1226 375 1226 q 591 1312 565 1226 l 716 1290 q 647 1134 707 1198 q 470 1070 588 1070 z "},"ğ":{"ha":855,"x_min":44,"x_max":824,"o":"m 771 877 l 824 712 q 731 689 784 697 q 606 682 677 682 q 715 606 677 652 q 752 488 752 561 q 713 357 752 415 q 602 267 674 300 q 432 234 530 234 q 344 243 385 234 q 325 224 332 236 q 319 199 319 212 q 334 167 319 182 q 402 153 348 153 l 526 153 q 679 125 615 153 q 779 47 744 96 q 815 -66 815 -2 q 713 -249 815 -182 q 410 -316 611 -316 q 186 -286 265 -316 q 75 -202 106 -256 q 44 -73 44 -147 l 244 -73 q 257 -126 244 -105 q 307 -157 270 -147 q 416 -167 345 -167 q 526 -156 488 -167 q 577 -125 563 -145 q 591 -81 591 -105 q 565 -27 591 -48 q 481 -6 538 -6 l 361 -6 q 183 39 239 -6 q 127 145 127 84 q 150 224 127 187 q 213 288 172 262 q 109 379 140 326 q 78 504 78 431 q 121 651 78 590 q 241 746 165 713 q 416 780 318 780 q 563 792 501 778 q 676 828 626 805 q 771 877 726 851 m 422 634 q 337 600 368 634 q 306 507 306 566 q 338 411 306 444 q 422 377 370 377 q 537 510 537 377 q 422 634 537 634 m 429 871 q 298 907 350 871 q 217 1000 245 943 q 183 1120 189 1058 l 308 1142 q 350 1058 321 1090 q 429 1026 380 1026 q 507 1058 478 1026 q 550 1142 537 1090 l 675 1120 q 640 1000 669 1058 q 559 907 612 943 q 429 871 507 871 z "},"Ġ":{"ha":855,"x_min":32,"x_max":809,"o":"m 464 -24 q 143 109 254 -24 q 32 496 32 241 q 93 779 32 664 q 259 953 155 894 q 491 1012 363 1012 q 673 979 599 1012 q 805 890 747 945 l 682 764 q 596 823 637 803 q 502 842 555 842 q 384 807 436 842 q 303 695 333 771 q 273 494 273 618 q 294 289 273 365 q 358 180 315 213 q 466 147 400 147 q 531 155 501 147 q 588 177 562 163 l 588 402 l 464 402 l 442 566 l 809 566 l 809 75 q 650 3 735 30 q 464 -24 565 -24 z "},"ġ":{"ha":855,"x_min":44,"x_max":824,"o":"m 771 877 l 824 712 q 731 689 784 697 q 606 682 677 682 q 715 606 677 652 q 752 488 752 561 q 713 357 752 415 q 602 267 674 300 q 432 234 530 234 q 344 243 385 234 q 325 224 332 236 q 319 199 319 212 q 334 167 319 182 q 402 153 348 153 l 526 153 q 679 125 615 153 q 779 47 744 96 q 815 -66 815 -2 q 713 -249 815 -182 q 410 -316 611 -316 q 186 -286 265 -316 q 75 -202 106 -256 q 44 -73 44 -147 l 244 -73 q 257 -126 244 -105 q 307 -157 270 -147 q 416 -167 345 -167 q 526 -156 488 -167 q 577 -125 563 -145 q 591 -81 591 -105 q 565 -27 591 -48 q 481 -6 538 -6 l 361 -6 q 183 39 239 -6 q 127 145 127 84 q 150 224 127 187 q 213 288 172 262 q 109 379 140 326 q 78 504 78 431 q 121 651 78 590 q 241 746 165 713 q 416 780 318 780 q 563 792 501 778 q 676 828 626 805 q 771 877 726 851 m 422 634 q 337 600 368 634 q 306 507 306 566 q 338 411 306 444 q 422 377 370 377 q 537 510 537 377 q 422 634 537 634 m 429 1152 q 524 1116 487 1152 q 561 1026 561 1080 q 524 935 561 972 q 429 898 487 898 q 332 935 370 898 q 295 1026 295 972 q 332 1116 295 1080 q 429 1152 370 1152 z "},"Ģ":{"ha":855,"x_min":32,"x_max":809,"o":"m 464 -24 q 143 109 254 -24 q 32 496 32 241 q 93 779 32 664 q 259 953 155 894 q 491 1012 363 1012 q 673 979 599 1012 q 805 890 747 945 l 682 764 q 596 823 637 803 q 502 842 555 842 q 384 807 436 842 q 303 695 333 771 q 273 494 273 618 q 294 289 273 365 q 358 180 315 213 q 466 147 400 147 q 531 155 501 147 q 588 177 562 163 l 588 402 l 464 402 l 442 566 l 809 566 l 809 75 q 650 3 735 30 q 464 -24 565 -24 m 466 -93 q 546 -124 514 -93 q 578 -203 578 -155 q 569 -259 578 -229 q 543 -321 560 -288 l 474 -459 l 361 -459 l 400 -295 q 366 -256 380 -278 q 353 -203 353 -234 q 385 -125 353 -157 q 466 -93 417 -93 z "},"ģ":{"ha":855,"x_min":44,"x_max":824,"o":"m 771 877 l 824 712 q 731 689 784 697 q 606 682 677 682 q 715 606 677 652 q 752 488 752 561 q 713 357 752 415 q 602 267 674 300 q 432 234 530 234 q 344 243 385 234 q 325 224 332 236 q 319 199 319 212 q 334 167 319 182 q 402 153 348 153 l 526 153 q 679 125 615 153 q 779 47 744 96 q 815 -66 815 -2 q 713 -249 815 -182 q 410 -316 611 -316 q 186 -286 265 -316 q 75 -202 106 -256 q 44 -73 44 -147 l 244 -73 q 257 -126 244 -105 q 307 -157 270 -147 q 416 -167 345 -167 q 526 -156 488 -167 q 577 -125 563 -145 q 591 -81 591 -105 q 565 -27 591 -48 q 481 -6 538 -6 l 361 -6 q 183 39 239 -6 q 127 145 127 84 q 150 224 127 187 q 213 288 172 262 q 109 379 140 326 q 78 504 78 431 q 121 651 78 590 q 241 746 165 713 q 416 780 318 780 q 563 792 501 778 q 676 828 626 805 q 771 877 726 851 m 422 634 q 337 600 368 634 q 306 507 306 566 q 338 411 306 444 q 422 377 370 377 q 537 510 537 377 q 422 634 537 634 m 429 849 q 349 880 381 849 q 317 959 317 912 q 326 1015 317 985 q 351 1077 335 1045 l 421 1215 l 533 1215 l 495 1051 q 528 1012 515 1035 q 542 959 542 990 q 510 881 542 914 q 429 849 477 849 z "},"Ĥ":{"ha":855,"x_min":74,"x_max":781,"o":"m 547 0 l 547 416 l 308 416 l 308 0 l 74 0 l 74 987 l 308 987 l 308 608 l 547 608 l 547 987 l 781 987 l 781 0 l 547 0 m 496 1343 l 697 1157 l 617 1066 l 427 1187 l 238 1066 l 156 1157 l 358 1343 l 496 1343 z "},"ĥ":{"ha":855,"x_min":100,"x_max":755,"o":"m 325 1079 l 325 682 q 547 781 420 781 q 702 722 648 781 q 755 556 755 663 l 755 0 l 530 0 l 530 493 q 515 588 530 561 q 457 615 499 615 q 389 591 422 615 q 325 524 357 566 l 325 0 l 100 0 l 100 1057 l 325 1079 m 496 1413 l 697 1227 l 617 1136 l 427 1256 l 238 1136 l 156 1227 l 358 1413 l 496 1413 z "},"Ħ":{"ha":855,"x_min":3,"x_max":852,"o":"m 852 843 l 852 712 l 774 712 l 774 0 l 541 0 l 541 423 l 314 423 l 314 0 l 80 0 l 80 712 l 3 712 l 3 843 l 80 843 l 80 987 l 314 987 l 314 843 l 541 843 l 541 987 l 774 987 l 774 843 l 852 843 m 314 605 l 541 605 l 541 712 l 314 712 l 314 605 z "},"ħ":{"ha":855,"x_min":12,"x_max":755,"o":"m 525 976 l 525 845 l 325 845 l 325 682 q 547 781 420 781 q 702 722 648 781 q 755 556 755 663 l 755 0 l 530 0 l 530 493 q 515 588 530 561 q 457 615 499 615 q 389 591 422 615 q 325 524 357 566 l 325 0 l 100 0 l 100 845 l 12 845 l 12 976 l 100 976 l 100 1057 l 325 1079 l 325 976 l 525 976 z "},"Ĩ":{"ha":855,"x_min":107,"x_max":748,"o":"m 748 987 l 748 816 l 544 816 l 544 172 l 748 172 l 748 0 l 107 0 l 107 172 l 311 172 l 311 816 l 107 816 l 107 987 l 748 987 z "},"ĩ":{"ha":855,"x_min":123,"x_max":754,"o":"m 562 756 l 562 154 l 754 154 l 754 0 l 123 0 l 123 154 l 337 154 l 337 603 l 130 603 l 130 756 l 562 756 m 506 904 q 437 920 464 904 q 388 952 410 936 q 343 968 367 968 q 301 952 317 968 q 268 905 285 937 l 155 961 q 228 1079 182 1028 q 339 1129 274 1129 q 410 1113 382 1129 q 459 1081 438 1097 q 504 1065 480 1065 q 544 1080 528 1065 q 578 1126 561 1095 l 692 1071 q 616 952 664 999 q 506 904 569 904 z "},"Ī":{"ha":855,"x_min":107,"x_max":748,"o":"m 748 987 l 748 816 l 544 816 l 544 172 l 748 172 l 748 0 l 107 0 l 107 172 l 311 172 l 311 816 l 107 816 l 107 987 l 748 987 z "},"ī":{"ha":855,"x_min":123,"x_max":754,"o":"m 562 756 l 562 154 l 754 154 l 754 0 l 123 0 l 123 154 l 337 154 l 337 603 l 130 603 l 130 756 l 562 756 m 643 937 l 209 937 l 209 1093 l 643 1093 l 643 937 z "},"Ĭ":{"ha":855,"x_min":107,"x_max":748,"o":"m 748 987 l 748 816 l 544 816 l 544 172 l 748 172 l 748 0 l 107 0 l 107 172 l 311 172 l 311 816 l 107 816 l 107 987 l 748 987 m 427 1070 q 297 1099 349 1070 q 217 1179 245 1129 q 182 1290 189 1229 l 306 1312 q 427 1226 333 1226 q 548 1312 522 1226 l 673 1290 q 604 1134 664 1198 q 427 1070 545 1070 z "},"ĭ":{"ha":855,"x_min":123,"x_max":754,"o":"m 562 756 l 562 154 l 754 154 l 754 0 l 123 0 l 123 154 l 337 154 l 337 603 l 130 603 l 130 756 l 562 756 m 426 871 q 295 907 348 871 q 214 1000 242 943 q 180 1120 186 1058 l 305 1142 q 347 1058 318 1090 q 426 1026 377 1026 q 505 1058 475 1026 q 547 1142 534 1090 l 672 1120 q 637 1000 666 1058 q 557 907 609 943 q 426 871 504 871 z "},"Į":{"ha":855,"x_min":107,"x_max":748,"o":"m 748 987 l 748 816 l 544 816 l 544 172 l 748 172 l 748 0 l 107 0 l 107 172 l 311 172 l 311 816 l 107 816 l 107 987 l 748 987 m 519 73 l 544 0 q 413 -74 445 -35 q 380 -157 380 -113 q 403 -209 380 -192 q 463 -226 425 -226 q 504 -224 486 -226 q 540 -217 522 -221 l 523 -350 q 484 -358 504 -355 q 439 -361 464 -361 q 286 -316 348 -361 q 224 -185 224 -270 q 263 -62 224 -110 q 369 17 302 -14 q 519 73 437 48 z "},"į":{"ha":855,"x_min":123,"x_max":754,"o":"m 562 756 l 562 154 l 754 154 l 754 0 l 123 0 l 123 154 l 337 154 l 337 603 l 130 603 l 130 756 l 562 756 m 426 1152 q 521 1116 484 1152 q 558 1026 558 1080 q 521 935 558 972 q 426 898 484 898 q 329 935 367 898 q 292 1026 292 972 q 329 1116 292 1080 q 426 1152 367 1152 m 537 73 l 562 0 q 431 -74 463 -35 q 398 -157 398 -113 q 421 -209 398 -192 q 481 -226 443 -226 q 522 -224 504 -226 q 558 -217 540 -221 l 541 -350 q 501 -358 521 -355 q 457 -361 481 -361 q 304 -316 366 -361 q 241 -185 241 -270 q 281 -62 241 -110 q 387 17 320 -14 q 537 73 454 48 z "},"İ":{"ha":855,"x_min":107,"x_max":748,"o":"m 748 987 l 748 816 l 544 816 l 544 172 l 748 172 l 748 0 l 107 0 l 107 172 l 311 172 l 311 816 l 107 816 l 107 987 l 748 987 z "},"ı":{"ha":855,"x_min":123,"x_max":754,"o":"m 562 756 l 562 154 l 754 154 l 754 0 l 123 0 l 123 154 l 337 154 l 337 603 l 130 603 l 130 756 l 562 756 z "},"Ĳ":{"ha":855,"x_min":11,"x_max":793,"o":"m 259 -103 q 456 -38 390 -80 q 545 71 522 4 q 568 234 568 138 l 568 843 l 330 843 l 330 145 l 406 145 l 406 0 l 11 0 l 11 145 l 115 145 l 115 843 l 11 843 l 11 987 l 793 987 l 793 243 q 744 7 793 109 q 584 -162 695 -95 q 285 -260 472 -229 l 259 -103 z "},"ĳ":{"ha":855,"x_min":51,"x_max":783,"o":"m 259 1152 q 356 1116 318 1152 q 395 1026 395 1080 q 356 935 395 972 q 259 898 318 898 q 164 935 201 898 q 127 1026 127 972 q 164 1116 127 1080 q 259 1152 201 1152 m 650 1152 q 746 1116 708 1152 q 783 1026 783 1080 q 746 935 783 972 q 650 898 708 898 q 553 935 591 898 q 515 1026 515 972 q 553 1116 515 1080 q 650 1152 591 1152 m 776 756 l 776 174 q 726 -67 776 26 q 580 -217 676 -160 q 349 -316 485 -274 l 274 -150 q 429 -87 368 -121 q 522 4 491 -53 q 553 155 553 61 l 553 604 l 370 604 l 370 154 l 444 154 l 444 0 l 51 0 l 51 154 l 148 154 l 148 604 l 58 604 l 58 756 l 776 756 z "},"Ĵ":{"ha":855,"x_min":56,"x_max":771,"o":"m 751 987 l 751 355 q 647 80 751 182 q 354 -21 543 -21 q 189 3 259 -21 q 56 71 120 28 l 145 215 q 239 166 195 180 q 340 152 283 152 q 467 201 416 152 q 518 353 518 250 l 518 816 l 214 816 l 214 987 l 751 987 m 571 1343 l 771 1157 l 691 1066 l 501 1187 l 312 1066 l 230 1157 l 432 1343 l 571 1343 z "},"ĵ":{"ha":855,"x_min":99,"x_max":797,"o":"m 673 756 l 673 219 q 612 -50 673 56 q 431 -218 551 -156 q 135 -316 311 -281 l 99 -144 q 291 -78 214 -118 q 408 28 369 -39 q 448 205 448 95 l 448 603 l 176 603 l 176 756 l 673 756 m 338 871 l 256 963 l 458 1162 l 596 1162 l 797 963 l 717 871 l 527 1005 l 338 871 z "},"Ķ":{"ha":855,"x_min":84,"x_max":867,"o":"m 318 0 l 84 0 l 84 987 l 318 987 l 318 0 m 325 527 l 595 987 l 840 987 l 561 544 l 867 0 l 596 0 l 325 527 z "},"ķ":{"ha":855,"x_min":100,"x_max":838,"o":"m 325 1080 l 325 0 l 100 0 l 100 1057 l 325 1080 m 818 756 l 569 422 l 838 0 l 582 0 l 333 415 l 582 756 l 818 756 m 427 -93 q 507 -124 475 -93 q 539 -203 539 -155 q 530 -259 539 -229 q 505 -321 521 -288 l 435 -459 l 323 -459 l 361 -295 q 328 -256 341 -278 q 314 -203 314 -234 q 347 -125 314 -157 q 427 -93 379 -93 z "},"ĸ":{"ha":855,"x_min":100,"x_max":838,"o":"m 818 756 l 568 409 l 838 0 l 581 0 l 333 393 l 582 756 l 818 756 m 325 756 l 325 0 l 100 0 l 100 756 l 325 756 z "},"Ĺ":{"ha":855,"x_min":53,"x_max":794,"o":"m 132 0 l 132 987 l 366 987 l 366 184 l 794 184 l 770 0 l 132 0 m 360 1357 l 445 1189 l 107 1070 l 53 1184 l 360 1357 z "},"ĺ":{"ha":855,"x_min":46,"x_max":753,"o":"m 494 1057 l 494 238 q 520 173 494 192 q 592 153 546 153 q 648 160 621 153 q 699 176 675 167 l 753 26 q 660 -9 714 6 q 534 -24 606 -24 q 333 54 397 -24 q 269 266 269 133 l 269 903 l 46 903 l 46 1057 l 494 1057 m 473 1490 l 561 1321 l 224 1187 l 162 1301 l 473 1490 z "},"Ļ":{"ha":855,"x_min":132,"x_max":794,"o":"m 132 0 l 132 987 l 366 987 l 366 184 l 794 184 l 770 0 l 132 0 z "},"ļ":{"ha":855,"x_min":46,"x_max":753,"o":"m 494 1057 l 494 238 q 520 173 494 192 q 592 153 546 153 q 648 160 621 153 q 699 176 675 167 l 753 26 q 660 -9 714 6 q 534 -24 606 -24 q 333 54 397 -24 q 269 266 269 133 l 269 903 l 46 903 l 46 1057 l 494 1057 m 506 -93 q 585 -124 553 -93 q 618 -203 618 -155 q 609 -259 618 -229 q 583 -321 600 -288 l 514 -459 l 401 -459 l 439 -295 q 406 -256 420 -278 q 392 -203 392 -234 q 425 -125 392 -157 q 506 -93 457 -93 z "},"Ľ":{"ha":855,"x_min":132,"x_max":794,"o":"m 132 0 l 132 987 l 366 987 l 366 184 l 794 184 l 770 0 l 132 0 m 499 1018 l 695 994 l 585 665 l 445 687 l 499 1018 z "},"ľ":{"ha":855,"x_min":46,"x_max":795,"o":"m 494 1057 l 494 238 q 520 173 494 192 q 592 153 546 153 q 648 160 621 153 q 699 176 675 167 l 753 26 q 660 -9 714 6 q 534 -24 606 -24 q 333 54 397 -24 q 269 266 269 133 l 269 903 l 46 903 l 46 1057 l 494 1057 m 598 1088 l 795 1064 l 685 734 l 545 756 l 598 1088 z "},"Ŀ":{"ha":855,"x_min":132,"x_max":796,"o":"m 132 0 l 132 987 l 366 987 l 366 184 l 794 184 l 770 0 l 132 0 m 664 675 q 759 639 722 675 q 796 548 796 603 q 759 458 796 494 q 664 421 722 421 q 567 458 605 421 q 530 548 530 494 q 567 639 530 603 q 664 675 605 675 z "},"ŀ":{"ha":855,"x_min":46,"x_max":942,"o":"m 494 1057 l 494 238 q 520 173 494 192 q 592 153 546 153 q 648 160 621 153 q 699 176 675 167 l 753 26 q 660 -9 714 6 q 534 -24 606 -24 q 333 54 397 -24 q 269 266 269 133 l 269 903 l 46 903 l 46 1057 l 494 1057 m 809 672 q 905 636 868 672 q 942 546 942 600 q 905 455 942 491 q 809 418 868 418 q 713 455 750 418 q 675 546 675 491 q 713 636 675 600 q 809 672 750 672 z "},"Ł":{"ha":855,"x_min":13,"x_max":815,"o":"m 153 0 l 153 326 l 89 286 l 13 410 l 153 497 l 153 987 l 387 987 l 387 642 l 563 751 l 641 630 l 387 472 l 387 184 l 815 184 l 791 0 l 153 0 z "},"ł":{"ha":855,"x_min":46,"x_max":753,"o":"m 586 736 l 667 610 l 494 505 l 494 238 q 520 173 494 192 q 592 153 546 153 q 648 160 621 153 q 699 176 675 167 l 753 26 q 660 -9 714 6 q 534 -24 606 -24 q 333 54 397 -24 q 269 266 269 133 l 269 368 l 206 329 l 127 454 l 269 542 l 269 903 l 46 903 l 46 1057 l 494 1057 l 494 680 l 586 736 z "},"Ń":{"ha":855,"x_min":74,"x_max":781,"o":"m 497 0 l 237 794 q 252 686 244 752 q 267 540 261 620 q 273 373 273 459 l 273 0 l 74 0 l 74 987 l 365 987 l 618 197 q 594 370 606 265 q 582 609 582 476 l 582 987 l 781 987 l 781 0 l 497 0 m 552 1357 l 637 1189 l 298 1070 l 245 1184 l 552 1357 z "},"ń":{"ha":855,"x_min":100,"x_max":755,"o":"m 100 0 l 100 756 l 296 756 l 312 669 q 419 754 363 726 q 547 781 475 781 q 699 722 644 781 q 755 556 755 663 l 755 0 l 530 0 l 530 491 q 515 588 530 561 q 457 615 499 615 q 389 593 422 615 q 325 529 357 570 l 325 0 l 100 0 m 537 1189 l 625 1020 l 288 887 l 226 1001 l 537 1189 z "},"Ņ":{"ha":855,"x_min":74,"x_max":781,"o":"m 497 0 l 237 794 q 252 686 244 752 q 267 540 261 620 q 273 373 273 459 l 273 0 l 74 0 l 74 987 l 365 987 l 618 197 q 594 370 606 265 q 582 609 582 476 l 582 987 l 781 987 l 781 0 l 497 0 z "},"ņ":{"ha":855,"x_min":100,"x_max":755,"o":"m 100 0 l 100 756 l 296 756 l 312 669 q 419 754 363 726 q 547 781 475 781 q 699 722 644 781 q 755 556 755 663 l 755 0 l 530 0 l 530 491 q 515 588 530 561 q 457 615 499 615 q 389 593 422 615 q 325 529 357 570 l 325 0 l 100 0 m 429 -93 q 509 -124 476 -93 q 541 -203 541 -155 q 532 -259 541 -229 q 506 -321 523 -288 l 437 -459 l 324 -459 l 363 -295 q 329 -256 343 -278 q 316 -203 316 -234 q 348 -125 316 -157 q 429 -93 380 -93 z "},"Ň":{"ha":855,"x_min":74,"x_max":781,"o":"m 497 0 l 237 794 q 252 686 244 752 q 267 540 261 620 q 273 373 273 459 l 273 0 l 74 0 l 74 987 l 365 987 l 618 197 q 594 370 606 265 q 582 609 582 476 l 582 987 l 781 987 l 781 0 l 497 0 m 630 1348 l 711 1256 l 510 1070 l 372 1070 l 170 1256 l 251 1348 l 441 1226 l 630 1348 z "},"ň":{"ha":855,"x_min":100,"x_max":755,"o":"m 100 0 l 100 756 l 296 756 l 312 669 q 419 754 363 726 q 547 781 475 781 q 699 722 644 781 q 755 556 755 663 l 755 0 l 530 0 l 530 491 q 515 588 530 561 q 457 615 499 615 q 389 593 422 615 q 325 529 357 570 l 325 0 l 100 0 m 618 1162 l 699 1070 l 498 871 l 360 871 l 157 1070 l 240 1162 l 429 1028 l 618 1162 z "},"ŉ":{"ha":855,"x_min":-25,"x_max":783,"o":"m 84 1088 q 162 1058 131 1088 q 193 981 193 1028 q 185 931 193 954 q 160 876 177 907 l 102 762 l -10 762 l 21 892 q -12 929 1 907 q -25 981 -25 951 q 6 1056 -25 1024 q 84 1088 38 1088 m 127 0 l 127 756 l 324 756 l 340 669 q 447 754 390 726 q 575 781 503 781 q 727 722 672 781 q 783 556 783 663 l 783 0 l 558 0 l 558 491 q 542 588 558 561 q 485 615 527 615 q 417 593 449 615 q 353 529 385 570 l 353 0 l 127 0 z "},"Ŋ":{"ha":855,"x_min":74,"x_max":781,"o":"m 497 0 l 237 794 q 252 686 244 752 q 267 540 261 620 q 273 373 273 459 l 273 0 l 74 0 l 74 987 l 365 987 l 618 197 q 594 370 606 265 q 582 609 582 476 l 582 987 l 781 987 l 781 -38 q 706 -251 781 -178 q 495 -324 631 -324 q 385 -306 429 -324 q 302 -261 340 -288 l 388 -129 q 426 -146 407 -139 q 473 -154 444 -154 q 528 -132 509 -154 q 547 -58 547 -110 l 547 0 l 497 0 z "},"ŋ":{"ha":855,"x_min":100,"x_max":755,"o":"m 755 85 q 718 -113 755 -38 q 613 -233 680 -188 q 454 -316 545 -278 l 375 -151 q 459 -104 425 -130 q 512 -38 494 -79 q 530 72 530 3 l 530 491 q 515 588 530 561 q 457 615 500 615 q 389 591 422 615 q 325 524 357 566 l 325 0 l 100 0 l 100 756 l 296 756 l 312 669 q 547 781 412 781 q 702 722 648 781 q 755 556 755 663 l 755 85 z "},"Ō":{"ha":855,"x_min":32,"x_max":823,"o":"m 823 494 q 778 221 823 338 q 645 40 733 105 q 427 -24 557 -24 q 210 39 298 -24 q 77 218 122 102 q 32 494 32 334 q 77 767 32 651 q 210 948 122 883 q 427 1012 298 1012 q 645 949 557 1012 q 778 771 733 887 q 823 494 823 655 m 583 494 q 547 759 583 677 q 427 842 511 842 q 308 759 344 842 q 271 494 271 676 q 308 229 271 312 q 427 147 345 147 q 548 230 513 147 q 583 494 583 314 z "},"ō":{"ha":855,"x_min":60,"x_max":795,"o":"m 427 781 q 626 731 544 781 q 751 592 708 682 q 795 380 795 501 q 698 83 795 191 q 427 -24 601 -24 q 157 82 254 -24 q 60 379 60 188 q 104 590 60 499 q 230 731 147 680 q 427 781 312 781 m 427 615 q 325 559 358 615 q 292 379 292 502 q 325 197 292 254 q 427 141 358 141 q 530 197 496 141 q 563 380 563 254 q 530 559 563 503 q 427 615 496 615 m 645 937 l 210 937 l 210 1093 l 645 1093 l 645 937 z "},"Ŏ":{"ha":855,"x_min":32,"x_max":823,"o":"m 823 494 q 778 221 823 338 q 645 40 733 105 q 427 -24 557 -24 q 210 39 298 -24 q 77 218 122 102 q 32 494 32 334 q 77 767 32 651 q 210 948 122 883 q 427 1012 298 1012 q 645 949 557 1012 q 778 771 733 887 q 823 494 823 655 m 583 494 q 547 759 583 677 q 427 842 511 842 q 308 759 344 842 q 271 494 271 676 q 308 229 271 312 q 427 147 345 147 q 548 230 513 147 q 583 494 583 314 m 427 1070 q 297 1099 349 1070 q 217 1179 245 1129 q 182 1290 189 1229 l 306 1312 q 427 1226 333 1226 q 548 1312 522 1226 l 673 1290 q 604 1134 664 1198 q 427 1070 545 1070 z "},"ŏ":{"ha":855,"x_min":60,"x_max":795,"o":"m 427 781 q 626 731 544 781 q 751 592 708 682 q 795 380 795 501 q 698 83 795 191 q 427 -24 601 -24 q 157 82 254 -24 q 60 379 60 188 q 104 590 60 499 q 230 731 147 680 q 427 781 312 781 m 427 615 q 325 559 358 615 q 292 379 292 502 q 325 197 292 254 q 427 141 358 141 q 530 197 496 141 q 563 380 563 254 q 530 559 563 503 q 427 615 496 615 m 427 871 q 296 907 349 871 q 215 1000 244 943 q 182 1120 187 1058 l 306 1142 q 349 1058 319 1090 q 427 1026 378 1026 q 506 1058 476 1026 q 548 1142 536 1090 l 673 1120 q 639 1000 667 1058 q 558 907 610 943 q 427 871 506 871 z "},"Ő":{"ha":855,"x_min":32,"x_max":823,"o":"m 823 494 q 778 221 823 338 q 645 40 733 105 q 427 -24 557 -24 q 210 39 298 -24 q 77 218 122 102 q 32 494 32 334 q 77 767 32 651 q 210 948 122 883 q 427 1012 298 1012 q 645 949 557 1012 q 778 771 733 887 q 823 494 823 655 m 583 494 q 547 759 583 677 q 427 842 511 842 q 308 759 344 842 q 271 494 271 676 q 308 229 271 312 q 427 147 345 147 q 548 230 513 147 q 583 494 583 314 z "},"ő":{"ha":855,"x_min":60,"x_max":795,"o":"m 427 781 q 626 731 544 781 q 751 592 708 682 q 795 380 795 501 q 698 83 795 191 q 427 -24 601 -24 q 157 82 254 -24 q 60 379 60 188 q 104 590 60 499 q 230 731 147 680 q 427 781 312 781 m 427 615 q 325 559 358 615 q 292 379 292 502 q 325 197 292 254 q 427 141 358 141 q 530 197 496 141 q 563 380 563 254 q 530 559 563 503 q 427 615 496 615 m 227 942 l 369 1222 l 521 1151 l 345 891 l 227 942 m 459 944 l 603 1222 l 754 1148 l 575 890 l 459 944 z "},"Œ":{"ha":855,"x_min":14,"x_max":850,"o":"m 320 1012 q 390 1006 360 1012 q 456 987 421 999 l 850 987 l 825 829 l 567 829 q 604 722 590 784 q 622 579 618 660 l 796 579 l 796 421 l 623 421 q 603 272 619 338 q 560 158 586 207 l 850 158 l 850 0 l 450 0 q 390 -17 420 -9 q 320 -24 360 -24 q 85 111 157 -24 q 14 494 14 246 q 45 772 14 656 q 144 950 76 888 q 320 1012 212 1012 m 321 853 q 235 771 258 853 q 213 494 213 689 q 238 217 213 299 q 321 134 262 134 q 408 217 383 134 q 433 494 433 299 q 423 707 433 628 q 389 819 413 785 q 321 853 365 853 z "},"œ":{"ha":855,"x_min":-11,"x_max":863,"o":"m 625 781 q 809 681 756 781 q 863 393 863 580 q 862 356 863 374 q 860 322 861 339 l 525 322 q 566 171 533 219 q 658 124 599 124 q 719 136 692 124 q 778 170 747 148 l 863 57 q 769 -1 821 22 q 647 -24 717 -24 q 518 6 572 -24 q 430 89 464 36 q 363 6 405 37 q 251 -24 321 -24 q 52 82 115 -24 q -11 379 -11 188 q 16 590 -11 499 q 101 731 43 680 q 251 781 160 781 q 366 750 323 781 q 434 662 409 719 q 508 748 462 715 q 625 781 553 781 m 616 640 q 552 598 574 640 q 524 444 529 556 l 694 444 q 678 593 693 545 q 616 640 662 640 m 259 615 q 194 562 213 615 q 175 379 175 509 q 194 193 175 245 q 259 141 213 141 q 324 192 305 141 q 343 380 343 243 q 324 562 343 509 q 259 615 305 615 z "},"Ŕ":{"ha":855,"x_min":83,"x_max":860,"o":"m 800 687 q 742 515 800 581 q 602 417 684 449 l 860 0 l 596 0 l 382 377 l 316 377 l 316 0 l 83 0 l 83 987 l 393 987 q 697 914 595 987 q 800 687 800 840 m 559 687 q 517 791 559 759 q 394 823 476 823 l 316 823 l 316 538 l 403 538 q 519 573 479 538 q 559 687 559 609 m 538 1357 l 623 1189 l 285 1070 l 231 1184 l 538 1357 z "},"ŕ":{"ha":855,"x_min":107,"x_max":802,"o":"m 107 0 l 107 151 l 207 151 l 207 607 l 107 607 l 107 756 l 378 756 l 420 586 q 523 731 460 684 q 677 779 586 779 q 746 773 716 779 q 802 756 776 767 l 760 440 l 619 440 l 619 580 q 506 510 555 568 q 432 368 458 452 l 432 151 l 581 151 l 581 0 l 107 0 m 571 1189 l 659 1020 l 323 887 l 261 1001 l 571 1189 z "},"Ŗ":{"ha":855,"x_min":83,"x_max":860,"o":"m 800 687 q 742 515 800 581 q 602 417 684 449 l 860 0 l 596 0 l 382 377 l 316 377 l 316 0 l 83 0 l 83 987 l 393 987 q 697 914 595 987 q 800 687 800 840 m 559 687 q 517 791 559 759 q 394 823 476 823 l 316 823 l 316 538 l 403 538 q 519 573 479 538 q 559 687 559 609 z "},"ŗ":{"ha":855,"x_min":107,"x_max":802,"o":"m 107 0 l 107 151 l 207 151 l 207 607 l 107 607 l 107 756 l 378 756 l 420 586 q 523 731 460 684 q 677 779 586 779 q 746 773 716 779 q 802 756 776 767 l 760 440 l 619 440 l 619 580 q 506 510 555 568 q 432 368 458 452 l 432 151 l 581 151 l 581 0 l 107 0 m 319 -93 q 399 -124 367 -93 q 431 -203 431 -155 q 422 -259 431 -229 q 397 -321 413 -288 l 327 -459 l 214 -459 l 253 -295 q 219 -256 233 -278 q 206 -203 206 -234 q 238 -125 206 -157 q 319 -93 271 -93 z "},"Ř":{"ha":855,"x_min":83,"x_max":860,"o":"m 800 687 q 742 515 800 581 q 602 417 684 449 l 860 0 l 596 0 l 382 377 l 316 377 l 316 0 l 83 0 l 83 987 l 393 987 q 697 914 595 987 q 800 687 800 840 m 559 687 q 517 791 559 759 q 394 823 476 823 l 316 823 l 316 538 l 403 538 q 519 573 479 538 q 559 687 559 609 m 617 1348 l 697 1256 l 496 1070 l 358 1070 l 156 1256 l 238 1348 l 427 1226 l 617 1348 z "},"ř":{"ha":855,"x_min":107,"x_max":802,"o":"m 107 0 l 107 151 l 207 151 l 207 607 l 107 607 l 107 756 l 378 756 l 420 586 q 523 731 460 684 q 677 779 586 779 q 746 773 716 779 q 802 756 776 767 l 760 440 l 619 440 l 619 580 q 506 510 555 568 q 432 368 458 452 l 432 151 l 581 151 l 581 0 l 107 0 m 652 1162 l 733 1070 l 532 871 l 394 871 l 192 1070 l 274 1162 l 463 1028 l 652 1162 z "},"Ś":{"ha":855,"x_min":17,"x_max":809,"o":"m 809 288 q 761 126 809 197 q 623 16 713 56 q 407 -24 533 -24 q 173 17 268 -24 q 17 118 79 58 l 135 249 q 256 176 190 202 q 402 150 323 150 q 521 181 475 150 q 566 271 566 213 q 528 355 566 325 q 387 417 490 386 q 141 542 214 470 q 68 726 68 613 q 118 880 68 816 q 253 978 168 944 q 439 1012 338 1012 q 642 979 554 1012 q 793 885 729 946 l 683 758 q 575 820 633 800 q 458 840 518 840 q 350 816 391 840 q 310 744 310 791 q 328 691 310 712 q 390 651 345 670 q 512 607 434 632 q 672 539 605 578 q 774 439 739 499 q 809 288 809 380 m 553 1357 l 637 1189 l 299 1070 l 246 1184 l 553 1357 z "},"ś":{"ha":855,"x_min":68,"x_max":762,"o":"m 403 137 q 494 155 459 137 q 528 208 528 172 q 515 249 528 232 q 463 280 501 265 q 349 316 425 295 q 180 395 245 343 q 115 548 115 447 q 199 715 115 649 q 443 781 283 781 q 619 755 544 781 q 749 689 694 729 l 660 557 q 558 604 613 586 q 449 621 504 621 q 341 563 341 621 q 355 530 341 543 q 407 501 369 516 q 520 465 446 486 q 648 417 593 444 q 732 345 702 390 q 762 226 762 300 q 713 87 762 143 q 583 4 664 31 q 405 -24 501 -24 q 211 7 295 -24 q 68 90 127 38 l 181 217 q 281 160 225 182 q 403 137 337 137 m 554 1189 l 642 1020 l 306 887 l 244 1001 l 554 1189 z "},"Ŝ":{"ha":855,"x_min":17,"x_max":809,"o":"m 809 288 q 761 126 809 197 q 623 16 713 56 q 407 -24 533 -24 q 173 17 268 -24 q 17 118 79 58 l 135 249 q 256 176 190 202 q 402 150 323 150 q 521 181 475 150 q 566 271 566 213 q 528 355 566 325 q 387 417 490 386 q 141 542 214 470 q 68 726 68 613 q 118 880 68 816 q 253 978 168 944 q 439 1012 338 1012 q 642 979 554 1012 q 793 885 729 946 l 683 758 q 575 820 633 800 q 458 840 518 840 q 350 816 391 840 q 310 744 310 791 q 328 691 310 712 q 390 651 345 670 q 512 607 434 632 q 672 539 605 578 q 774 439 739 499 q 809 288 809 380 m 511 1343 l 712 1157 l 631 1066 l 442 1187 l 252 1066 l 170 1157 l 373 1343 l 511 1343 z "},"ŝ":{"ha":855,"x_min":68,"x_max":762,"o":"m 403 137 q 494 155 459 137 q 528 208 528 172 q 515 249 528 232 q 463 280 501 265 q 349 316 425 295 q 180 395 245 343 q 115 548 115 447 q 199 715 115 649 q 443 781 283 781 q 619 755 544 781 q 749 689 694 729 l 660 557 q 558 604 613 586 q 449 621 504 621 q 341 563 341 621 q 355 530 341 543 q 407 501 369 516 q 520 465 446 486 q 648 417 593 444 q 732 345 702 390 q 762 226 762 300 q 713 87 762 143 q 583 4 664 31 q 405 -24 501 -24 q 211 7 295 -24 q 68 90 127 38 l 181 217 q 281 160 225 182 q 403 137 337 137 m 257 871 l 175 963 l 377 1162 l 515 1162 l 716 963 l 635 871 l 446 1005 l 257 871 z "},"Ş":{"ha":855,"x_min":17,"x_max":809,"o":"m 809 288 q 761 126 809 197 q 623 16 713 56 q 407 -24 533 -24 q 173 17 268 -24 q 17 118 79 58 l 135 249 q 256 176 190 202 q 402 150 323 150 q 521 181 475 150 q 566 271 566 213 q 528 355 566 325 q 387 417 490 386 q 141 542 214 470 q 68 726 68 613 q 118 880 68 816 q 253 978 168 944 q 439 1012 338 1012 q 642 979 554 1012 q 793 885 729 946 l 683 758 q 575 820 633 800 q 458 840 518 840 q 350 816 391 840 q 310 744 310 791 q 328 691 310 712 q 390 651 345 670 q 512 607 434 632 q 672 539 605 578 q 774 439 739 499 q 809 288 809 380 z "},"ş":{"ha":855,"x_min":68,"x_max":762,"o":"m 403 137 q 494 155 459 137 q 528 208 528 172 q 515 249 528 232 q 463 280 501 265 q 349 316 425 295 q 180 395 245 343 q 115 548 115 447 q 199 715 115 649 q 443 781 283 781 q 619 755 544 781 q 749 689 694 729 l 660 557 q 558 604 613 586 q 449 621 504 621 q 341 563 341 621 q 355 530 341 543 q 407 501 369 516 q 520 465 446 486 q 648 417 593 444 q 732 345 702 390 q 762 226 762 300 q 713 87 762 143 q 583 4 664 31 q 405 -24 501 -24 q 211 7 295 -24 q 68 90 127 38 l 181 217 q 281 160 225 182 q 403 137 337 137 m 457 -207 q 424 -168 457 -178 q 325 -159 391 -159 l 345 23 l 471 23 l 471 -68 q 582 -114 546 -77 q 619 -209 619 -152 q 561 -328 619 -282 q 406 -374 503 -374 q 312 -360 355 -374 q 239 -330 268 -347 l 291 -226 q 335 -244 312 -237 q 382 -251 359 -251 q 437 -241 417 -251 q 457 -207 457 -231 z "},"Š":{"ha":855,"x_min":17,"x_max":809,"o":"m 809 288 q 761 126 809 197 q 623 16 713 56 q 407 -24 533 -24 q 173 17 268 -24 q 17 118 79 58 l 135 249 q 256 176 190 202 q 402 150 323 150 q 521 181 475 150 q 566 271 566 213 q 528 355 566 325 q 387 417 490 386 q 141 542 214 470 q 68 726 68 613 q 118 880 68 816 q 253 978 168 944 q 439 1012 338 1012 q 642 979 554 1012 q 793 885 729 946 l 683 758 q 575 820 633 800 q 458 840 518 840 q 350 816 391 840 q 310 744 310 791 q 328 691 310 712 q 390 651 345 670 q 512 607 434 632 q 672 539 605 578 q 774 439 739 499 q 809 288 809 380 m 631 1348 l 712 1256 l 511 1070 l 373 1070 l 170 1256 l 252 1348 l 442 1226 l 631 1348 z "},"š":{"ha":855,"x_min":68,"x_max":762,"o":"m 403 137 q 494 155 459 137 q 528 208 528 172 q 515 249 528 232 q 463 280 501 265 q 349 316 425 295 q 180 395 245 343 q 115 548 115 447 q 199 715 115 649 q 443 781 283 781 q 619 755 544 781 q 749 689 694 729 l 660 557 q 558 604 613 586 q 449 621 504 621 q 341 563 341 621 q 355 530 341 543 q 407 501 369 516 q 520 465 446 486 q 648 417 593 444 q 732 345 702 390 q 762 226 762 300 q 713 87 762 143 q 583 4 664 31 q 405 -24 501 -24 q 211 7 295 -24 q 68 90 127 38 l 181 217 q 281 160 225 182 q 403 137 337 137 m 635 1162 l 716 1070 l 515 871 l 377 871 l 175 1070 l 257 1162 l 446 1028 l 635 1162 z "},"Ţ":{"ha":855,"x_min":32,"x_max":831,"o":"m 543 808 l 543 0 l 309 0 l 309 808 l 32 808 l 32 987 l 831 987 l 807 808 l 543 808 z "},"ţ":{"ha":855,"x_min":82,"x_max":781,"o":"m 781 44 q 674 -4 736 16 q 533 -24 611 -24 q 313 52 385 -24 q 241 258 241 127 l 241 601 l 82 601 l 82 756 l 241 756 l 241 920 l 466 947 l 466 756 l 709 756 l 687 601 l 466 601 l 466 258 q 491 177 466 202 q 573 153 517 153 q 646 163 613 153 q 706 187 679 172 l 781 44 m 541 -207 q 509 -168 541 -178 q 410 -159 476 -159 l 430 23 l 556 23 l 556 -68 q 667 -114 630 -77 q 704 -209 704 -152 q 646 -328 704 -282 q 491 -374 588 -374 q 396 -360 440 -374 q 323 -330 353 -347 l 376 -226 q 420 -244 397 -237 q 467 -251 444 -251 q 521 -241 501 -251 q 541 -207 541 -231 z "},"Ť":{"ha":855,"x_min":32,"x_max":831,"o":"m 543 808 l 543 0 l 309 0 l 309 808 l 32 808 l 32 987 l 831 987 l 807 808 l 543 808 m 615 1348 l 696 1256 l 495 1070 l 357 1070 l 155 1256 l 236 1348 l 426 1226 l 615 1348 z "},"ť":{"ha":855,"x_min":82,"x_max":781,"o":"m 781 44 q 674 -4 736 16 q 533 -24 611 -24 q 313 52 385 -24 q 241 258 241 127 l 241 601 l 82 601 l 82 756 l 241 756 l 241 920 l 466 947 l 466 756 l 709 756 l 687 601 l 466 601 l 466 258 q 491 177 466 202 q 573 153 517 153 q 646 163 613 153 q 706 187 679 172 l 781 44 m 566 1185 l 763 1162 l 653 832 l 513 854 l 566 1185 z "},"Ŧ":{"ha":855,"x_min":32,"x_max":831,"o":"m 143 447 l 143 579 l 309 579 l 309 808 l 32 808 l 32 987 l 831 987 l 807 808 l 543 808 l 543 579 l 710 579 l 710 447 l 543 447 l 543 0 l 309 0 l 309 447 l 143 447 z "},"ŧ":{"ha":855,"x_min":82,"x_max":781,"o":"m 781 44 q 674 -4 736 16 q 533 -24 611 -24 q 313 52 385 -24 q 241 258 241 127 l 241 373 l 99 373 l 99 514 l 241 514 l 241 601 l 82 601 l 82 756 l 241 756 l 241 920 l 466 947 l 466 756 l 709 756 l 687 601 l 466 601 l 466 514 l 686 514 l 686 373 l 466 373 l 466 258 q 491 177 466 202 q 573 153 517 153 q 646 163 613 153 q 706 187 679 172 l 781 44 z "},"Ũ":{"ha":855,"x_min":60,"x_max":795,"o":"m 795 987 l 795 330 q 754 149 795 229 q 631 22 713 69 q 427 -24 550 -24 q 223 21 304 -24 q 100 145 141 66 q 60 330 60 225 l 60 987 l 294 987 l 294 417 q 318 217 294 284 q 427 150 343 150 q 536 217 512 150 q 561 417 561 284 l 561 987 l 795 987 z "},"ũ":{"ha":855,"x_min":100,"x_max":755,"o":"m 325 756 l 325 239 q 345 163 325 184 q 402 142 365 142 q 472 165 437 142 q 530 224 506 187 l 530 756 l 755 756 l 755 0 l 558 0 l 548 88 q 447 4 510 33 q 316 -24 385 -24 q 153 40 207 -24 q 100 211 100 103 l 100 756 l 325 756 m 507 904 q 438 920 466 904 q 390 952 411 936 q 345 968 368 968 q 302 952 318 968 q 269 905 286 937 l 156 961 q 229 1079 183 1028 q 340 1129 276 1129 q 412 1113 384 1129 q 460 1081 439 1097 q 506 1065 481 1065 q 546 1080 529 1065 q 580 1126 562 1095 l 693 1071 q 618 952 665 999 q 507 904 571 904 z "},"Ū":{"ha":855,"x_min":60,"x_max":795,"o":"m 795 987 l 795 330 q 754 149 795 229 q 631 22 713 69 q 427 -24 550 -24 q 223 21 304 -24 q 100 145 141 66 q 60 330 60 225 l 60 987 l 294 987 l 294 417 q 318 217 294 284 q 427 150 343 150 q 536 217 512 150 q 561 417 561 284 l 561 987 l 795 987 z "},"ū":{"ha":855,"x_min":100,"x_max":755,"o":"m 325 756 l 325 239 q 345 163 325 184 q 402 142 365 142 q 472 165 437 142 q 530 224 506 187 l 530 756 l 755 756 l 755 0 l 558 0 l 548 88 q 447 4 510 33 q 316 -24 385 -24 q 153 40 207 -24 q 100 211 100 103 l 100 756 l 325 756 m 645 937 l 210 937 l 210 1093 l 645 1093 l 645 937 z "},"Ŭ":{"ha":855,"x_min":60,"x_max":795,"o":"m 795 987 l 795 330 q 754 149 795 229 q 631 22 713 69 q 427 -24 550 -24 q 223 21 304 -24 q 100 145 141 66 q 60 330 60 225 l 60 987 l 294 987 l 294 417 q 318 217 294 284 q 427 150 343 150 q 536 217 512 150 q 561 417 561 284 l 561 987 l 795 987 m 427 1070 q 297 1099 349 1070 q 217 1179 245 1129 q 182 1290 189 1229 l 306 1312 q 427 1226 333 1226 q 548 1312 522 1226 l 673 1290 q 604 1134 664 1198 q 427 1070 545 1070 z "},"ŭ":{"ha":855,"x_min":100,"x_max":755,"o":"m 325 756 l 325 239 q 345 163 325 184 q 402 142 365 142 q 472 165 437 142 q 530 224 506 187 l 530 756 l 755 756 l 755 0 l 558 0 l 548 88 q 447 4 510 33 q 316 -24 385 -24 q 153 40 207 -24 q 100 211 100 103 l 100 756 l 325 756 m 427 871 q 296 907 349 871 q 215 1000 244 943 q 182 1120 187 1058 l 306 1142 q 349 1058 319 1090 q 427 1026 378 1026 q 506 1058 476 1026 q 548 1142 536 1090 l 673 1120 q 639 1000 667 1058 q 558 907 610 943 q 427 871 506 871 z "},"Ů":{"ha":855,"x_min":60,"x_max":795,"o":"m 795 987 l 795 330 q 754 149 795 229 q 631 22 713 69 q 427 -24 550 -24 q 223 21 304 -24 q 100 145 141 66 q 60 330 60 225 l 60 987 l 294 987 l 294 417 q 318 217 294 284 q 427 150 343 150 q 536 217 512 150 q 561 417 561 284 l 561 987 l 795 987 z "},"ů":{"ha":855,"x_min":100,"x_max":755,"o":"m 325 756 l 325 239 q 345 163 325 184 q 402 142 365 142 q 472 165 437 142 q 530 224 506 187 l 530 756 l 755 756 l 755 0 l 558 0 l 548 88 q 447 4 510 33 q 316 -24 385 -24 q 153 40 207 -24 q 100 211 100 103 l 100 756 l 325 756 m 426 1232 q 532 1207 488 1232 q 601 1138 577 1181 q 625 1045 625 1095 q 601 952 625 995 q 532 883 577 909 q 426 857 488 857 q 321 883 365 857 q 253 952 277 909 q 229 1045 229 995 q 253 1138 229 1095 q 321 1207 277 1181 q 426 1232 365 1232 m 426 1115 q 381 1098 398 1115 q 363 1045 363 1080 q 381 991 363 1009 q 426 974 398 974 q 473 991 455 974 q 491 1045 491 1009 q 473 1098 491 1080 q 426 1115 455 1115 z "},"Ű":{"ha":855,"x_min":60,"x_max":795,"o":"m 795 987 l 795 330 q 754 149 795 229 q 631 22 713 69 q 427 -24 550 -24 q 223 21 304 -24 q 100 145 141 66 q 60 330 60 225 l 60 987 l 294 987 l 294 417 q 318 217 294 284 q 427 150 343 150 q 536 217 512 150 q 561 417 561 284 l 561 987 l 795 987 z "},"ű":{"ha":855,"x_min":100,"x_max":755,"o":"m 325 756 l 325 239 q 345 163 325 184 q 402 142 365 142 q 472 165 437 142 q 530 224 506 187 l 530 756 l 755 756 l 755 0 l 558 0 l 548 88 q 447 4 510 33 q 316 -24 385 -24 q 153 40 207 -24 q 100 211 100 103 l 100 756 l 325 756 m 227 942 l 369 1222 l 521 1151 l 345 891 l 227 942 m 459 944 l 603 1222 l 754 1148 l 575 890 l 459 944 z "},"Ų":{"ha":855,"x_min":60,"x_max":795,"o":"m 795 987 l 795 330 q 754 149 795 229 q 631 22 713 69 q 427 -24 550 -24 q 223 21 304 -24 q 100 145 141 66 q 60 330 60 225 l 60 987 l 294 987 l 294 417 q 318 217 294 284 q 427 150 343 150 q 536 217 512 150 q 561 417 561 284 l 561 987 l 795 987 m 552 73 l 577 0 q 446 -74 478 -35 q 413 -157 413 -113 q 436 -209 413 -192 q 496 -226 458 -226 q 537 -224 519 -226 q 573 -217 555 -221 l 556 -350 q 516 -358 536 -355 q 472 -361 496 -361 q 319 -316 381 -361 q 256 -185 256 -270 q 296 -62 256 -110 q 402 17 335 -14 q 552 73 469 48 z "},"ų":{"ha":855,"x_min":100,"x_max":755,"o":"m 325 756 l 325 239 q 345 163 325 184 q 402 142 365 142 q 472 165 437 142 q 530 224 506 187 l 530 756 l 755 756 l 755 0 l 558 0 l 548 88 q 447 4 510 33 q 316 -24 385 -24 q 153 40 207 -24 q 100 211 100 103 l 100 756 l 325 756 m 730 73 l 755 0 q 624 -74 656 -35 q 591 -157 591 -113 q 614 -209 591 -192 q 674 -226 636 -226 q 715 -224 697 -226 q 751 -217 733 -221 l 734 -350 q 694 -358 714 -355 q 650 -361 675 -361 q 497 -316 559 -361 q 434 -185 434 -270 q 474 -62 434 -110 q 580 17 513 -14 q 730 73 647 48 z "},"Ŵ":{"ha":855,"x_min":-4,"x_max":859,"o":"m 859 987 l 744 0 l 501 0 l 429 706 l 350 0 l 103 0 l -4 987 l 214 987 l 248 199 l 330 873 l 531 873 l 607 199 l 656 987 l 859 987 m 496 1343 l 697 1157 l 617 1066 l 427 1187 l 238 1066 l 156 1157 l 358 1343 l 496 1343 z "},"ŵ":{"ha":855,"x_min":5,"x_max":850,"o":"m 742 0 l 494 0 l 429 509 l 361 0 l 117 0 l 5 756 l 211 756 l 260 140 l 340 661 l 529 661 l 600 140 l 651 756 l 850 756 l 742 0 m 239 871 l 156 963 l 358 1162 l 496 1162 l 697 963 l 617 871 l 427 1005 l 239 871 z "},"Ŷ":{"ha":855,"x_min":-11,"x_max":866,"o":"m 544 370 l 544 0 l 311 0 l 311 369 l -11 987 l 244 987 l 432 562 l 620 987 l 866 987 l 544 370 m 496 1343 l 697 1157 l 617 1066 l 427 1187 l 238 1066 l 156 1157 l 358 1343 l 496 1343 z "},"ŷ":{"ha":855,"x_min":40,"x_max":815,"o":"m 815 756 l 563 0 q 412 -229 513 -150 q 139 -317 311 -307 l 113 -158 q 234 -130 188 -149 q 308 -80 280 -112 q 357 0 336 -48 l 280 0 l 40 756 l 278 756 l 425 144 l 584 756 l 815 756 m 239 871 l 156 963 l 358 1162 l 496 1162 l 697 963 l 617 871 l 427 1005 l 239 871 z "},"Ÿ":{"ha":855,"x_min":-11,"x_max":866,"o":"m 544 370 l 544 0 l 311 0 l 311 369 l -11 987 l 244 987 l 432 562 l 620 987 l 866 987 l 544 370 z "},"Ź":{"ha":855,"x_min":56,"x_max":801,"o":"m 330 186 l 801 186 l 776 0 l 56 0 l 56 175 l 524 807 l 107 807 l 107 987 l 790 987 l 790 811 l 330 186 m 557 1357 l 642 1189 l 303 1070 l 250 1184 l 557 1357 z "},"ź":{"ha":855,"x_min":103,"x_max":747,"o":"m 368 170 l 747 170 l 726 0 l 103 0 l 103 159 l 478 587 l 134 587 l 134 756 l 740 756 l 740 598 l 368 170 m 546 1189 l 633 1020 l 297 887 l 235 1001 l 546 1189 z "},"Ż":{"ha":855,"x_min":56,"x_max":801,"o":"m 330 186 l 801 186 l 776 0 l 56 0 l 56 175 l 524 807 l 107 807 l 107 987 l 790 987 l 790 811 l 330 186 z "},"ż":{"ha":855,"x_min":103,"x_max":747,"o":"m 368 170 l 747 170 l 726 0 l 103 0 l 103 159 l 478 587 l 134 587 l 134 756 l 740 756 l 740 598 l 368 170 m 437 1152 q 533 1116 496 1152 q 570 1026 570 1080 q 533 935 570 972 q 437 898 496 898 q 341 935 378 898 q 303 1026 303 972 q 341 1116 303 1080 q 437 1152 378 1152 z "},"Ž":{"ha":855,"x_min":56,"x_max":801,"o":"m 330 186 l 801 186 l 776 0 l 56 0 l 56 175 l 524 807 l 107 807 l 107 987 l 790 987 l 790 811 l 330 186 m 635 1348 l 716 1256 l 515 1070 l 377 1070 l 175 1256 l 256 1348 l 446 1226 l 635 1348 z "},"ž":{"ha":855,"x_min":103,"x_max":747,"o":"m 368 170 l 747 170 l 726 0 l 103 0 l 103 159 l 478 587 l 134 587 l 134 756 l 740 756 l 740 598 l 368 170 m 627 1162 l 707 1070 l 506 871 l 368 871 l 166 1070 l 249 1162 l 437 1028 l 627 1162 z "},"ƒ":{"ha":855,"x_min":94,"x_max":759,"o":"m 538 1080 q 658 1067 603 1080 q 759 1033 714 1054 l 697 886 q 631 908 661 902 q 573 915 600 915 q 494 892 515 915 q 473 815 473 870 l 473 756 l 652 756 l 627 600 l 473 600 l 473 90 q 434 -113 473 -35 q 329 -237 396 -191 q 173 -316 261 -283 l 94 -152 q 177 -104 142 -130 q 231 -38 212 -78 q 249 72 249 3 l 249 600 l 132 600 l 132 756 l 249 756 l 249 823 q 281 954 249 895 q 377 1046 313 1012 q 538 1080 442 1080 z "},"Ǽ":{"ha":855,"x_min":-17,"x_max":859,"o":"m 447 217 l 246 217 l 207 0 l -17 0 l 231 987 l 805 987 l 781 829 l 521 829 l 568 579 l 792 579 l 792 421 l 597 421 l 647 158 l 859 158 l 859 0 l 481 0 l 447 217 m 272 377 l 422 377 l 349 830 l 272 377 m 610 1357 l 695 1189 l 357 1070 l 303 1184 l 610 1357 z "},"ǽ":{"ha":855,"x_min":-9,"x_max":855,"o":"m 610 781 q 799 681 744 781 q 855 393 855 580 q 850 322 855 356 l 508 322 q 645 124 526 124 q 709 136 679 124 q 769 170 739 148 l 854 57 q 759 -1 813 22 q 632 -24 704 -24 q 498 7 553 -24 q 405 96 442 39 q 320 5 364 35 q 204 -24 276 -24 q 48 43 105 -24 q -9 217 -9 111 q 62 402 -9 338 q 280 466 133 466 l 338 466 l 338 499 q 306 608 338 572 q 212 643 273 643 q 149 636 177 643 q 78 608 121 628 l 28 731 q 130 768 83 755 q 234 781 177 781 q 358 754 312 781 q 430 681 404 726 q 501 754 456 726 q 610 781 546 781 m 602 640 q 535 598 558 640 q 508 444 512 556 l 685 444 q 668 593 684 545 q 602 640 652 640 m 338 344 l 308 344 q 208 313 237 344 q 179 226 179 282 q 196 150 179 178 q 244 123 213 123 q 299 145 275 123 q 344 211 323 167 q 340 277 341 243 q 338 344 338 312 m 538 1189 l 626 1020 l 290 887 l 228 1001 l 538 1189 z "},"Ǿ":{"ha":855,"x_min":32,"x_max":823,"o":"m 427 1012 q 501 1006 465 1012 l 542 1144 l 700 1098 l 650 940 q 778 763 733 877 q 823 494 823 649 q 778 221 823 338 q 645 40 733 105 q 427 -24 557 -24 q 353 -18 389 -24 l 313 -155 l 155 -109 l 203 48 q 77 226 121 112 q 32 494 32 340 q 77 767 32 651 q 210 948 122 883 q 427 1012 298 1012 m 427 846 q 301 763 340 846 q 263 494 263 679 q 296 236 263 319 l 474 840 q 427 846 453 846 m 592 494 q 584 643 592 580 q 561 749 577 707 l 385 148 q 427 142 404 142 q 554 227 517 142 q 592 494 592 311 m 538 1357 l 623 1189 l 285 1070 l 231 1184 l 538 1357 z "},"ǿ":{"ha":855,"x_min":60,"x_max":795,"o":"m 427 781 q 472 779 450 781 l 526 944 l 690 896 l 634 726 q 754 588 712 677 q 795 380 795 499 q 698 83 795 191 q 427 -24 601 -24 q 383 -22 405 -24 l 330 -195 l 165 -147 l 223 28 q 102 165 144 75 q 60 379 60 254 q 104 590 60 499 q 230 731 147 680 q 427 781 312 781 m 427 620 q 322 563 355 620 q 288 379 288 506 q 293 266 288 312 q 313 192 299 221 l 450 619 q 427 620 439 620 m 567 380 q 562 488 567 444 q 543 560 556 532 l 407 137 q 427 137 417 137 q 533 194 499 137 q 567 380 567 251 m 536 1189 l 623 1020 l 287 887 l 225 1001 l 536 1189 z "},"Ș":{"ha":855,"x_min":17,"x_max":809,"o":"m 809 288 q 761 126 809 197 q 623 16 713 56 q 407 -24 533 -24 q 173 17 268 -24 q 17 118 79 58 l 135 249 q 256 176 190 202 q 402 150 323 150 q 521 181 475 150 q 566 271 566 213 q 528 355 566 325 q 387 417 490 386 q 141 542 214 470 q 68 726 68 613 q 118 880 68 816 q 253 978 168 944 q 439 1012 338 1012 q 642 979 554 1012 q 793 885 729 946 l 683 758 q 575 820 633 800 q 458 840 518 840 q 350 816 391 840 q 310 744 310 791 q 328 691 310 712 q 390 651 345 670 q 512 607 434 632 q 672 539 605 578 q 774 439 739 499 q 809 288 809 380 z "},"ș":{"ha":855,"x_min":68,"x_max":762,"o":"m 403 137 q 494 155 459 137 q 528 208 528 172 q 515 249 528 232 q 463 280 501 265 q 349 316 425 295 q 180 395 245 343 q 115 548 115 447 q 199 715 115 649 q 443 781 283 781 q 619 755 544 781 q 749 689 694 729 l 660 557 q 558 604 613 586 q 449 621 504 621 q 341 563 341 621 q 355 530 341 543 q 407 501 369 516 q 520 465 446 486 q 648 417 593 444 q 732 345 702 390 q 762 226 762 300 q 713 87 762 143 q 583 4 664 31 q 405 -24 501 -24 q 211 7 295 -24 q 68 90 127 38 l 181 217 q 281 160 225 182 q 403 137 337 137 m 429 -93 q 509 -124 476 -93 q 541 -203 541 -155 q 532 -259 541 -229 q 506 -321 523 -288 l 437 -459 l 324 -459 l 363 -295 q 329 -256 343 -278 q 316 -203 316 -234 q 348 -125 316 -157 q 429 -93 380 -93 z "},"Ț":{"ha":855,"x_min":32,"x_max":831,"o":"m 543 808 l 543 0 l 309 0 l 309 808 l 32 808 l 32 987 l 831 987 l 807 808 l 543 808 z "},"ț":{"ha":855,"x_min":82,"x_max":781,"o":"m 781 44 q 674 -4 736 16 q 533 -24 611 -24 q 313 52 385 -24 q 241 258 241 127 l 241 601 l 82 601 l 82 756 l 241 756 l 241 920 l 466 947 l 466 756 l 709 756 l 687 601 l 466 601 l 466 258 q 491 177 466 202 q 573 153 517 153 q 646 163 613 153 q 706 187 679 172 l 781 44 m 514 -93 q 593 -124 561 -93 q 625 -203 625 -155 q 616 -259 625 -229 q 591 -321 608 -288 l 521 -459 l 409 -459 l 447 -295 q 414 -256 427 -278 q 400 -203 400 -234 q 433 -125 400 -157 q 514 -93 465 -93 z "},"ȷ":{"ha":855,"x_min":99,"x_max":673,"o":"m 673 756 l 673 219 q 612 -50 673 56 q 431 -218 551 -156 q 135 -316 311 -281 l 99 -144 q 291 -78 214 -118 q 408 28 369 -39 q 448 205 448 95 l 448 603 l 176 603 l 176 756 l 673 756 z "},"ʹ":{"ha":855,"x_min":269,"x_max":588,"o":"m 269 590 l 384 987 l 588 987 l 418 590 l 269 590 z "},"ʺ":{"ha":855,"x_min":130,"x_max":725,"o":"m 130 590 l 245 987 l 449 987 l 279 590 l 130 590 m 406 590 l 521 987 l 725 987 l 556 590 l 406 590 z "},"ʼ":{"ha":855,"x_min":301,"x_max":526,"o":"m 415 1080 q 494 1049 462 1080 q 526 975 526 1019 q 515 922 526 949 q 486 861 504 894 l 435 765 l 322 765 l 348 877 q 315 916 328 894 q 301 969 301 939 q 334 1047 301 1015 q 415 1080 366 1080 z "},"ˆ":{"ha":855,"x_min":156,"x_max":697,"o":"m 239 871 l 156 963 l 358 1162 l 496 1162 l 697 963 l 617 871 l 427 1005 l 239 871 z "},"ˇ":{"ha":855,"x_min":156,"x_max":697,"o":"m 617 1162 l 697 1070 l 496 871 l 358 871 l 156 1070 l 239 1162 l 427 1028 l 617 1162 z "},"ˉ":{"ha":855,"x_min":209,"x_max":645,"o":"m 645 957 l 209 957 l 209 1113 l 645 1113 l 645 957 z "},"˘":{"ha":855,"x_min":182,"x_max":673,"o":"m 427 871 q 296 907 349 871 q 215 1000 244 943 q 182 1120 187 1058 l 306 1142 q 349 1058 319 1090 q 427 1026 378 1026 q 506 1058 476 1026 q 548 1142 536 1090 l 673 1120 q 639 1000 667 1058 q 558 907 610 943 q 427 871 506 871 z "},"˙":{"ha":855,"x_min":293,"x_max":560,"o":"m 427 1152 q 523 1116 486 1152 q 560 1026 560 1080 q 523 935 560 972 q 427 898 486 898 q 331 935 368 898 q 293 1026 293 972 q 331 1116 293 1080 q 427 1152 368 1152 z "},"˚":{"ha":855,"x_min":229,"x_max":625,"o":"m 426 1232 q 532 1207 488 1232 q 601 1138 577 1181 q 625 1045 625 1095 q 601 952 625 995 q 532 883 577 909 q 426 857 488 857 q 321 883 365 857 q 253 952 277 909 q 229 1045 229 995 q 253 1138 229 1095 q 321 1207 277 1181 q 426 1232 365 1232 m 426 1115 q 381 1098 398 1115 q 363 1045 363 1080 q 381 991 363 1009 q 426 974 398 974 q 473 991 455 974 q 491 1045 491 1009 q 473 1098 491 1080 q 426 1115 455 1115 z "},"˛":{"ha":855,"x_min":242,"x_max":563,"o":"m 538 73 l 563 0 q 431 -74 464 -35 q 399 -157 399 -113 q 421 -209 399 -192 q 481 -226 444 -226 q 522 -224 504 -226 q 558 -217 541 -221 l 541 -350 q 502 -358 522 -355 q 457 -361 482 -361 q 304 -316 367 -361 q 242 -185 242 -270 q 281 -62 242 -110 q 388 17 321 -14 q 538 73 455 48 z "},"˜":{"ha":855,"x_min":156,"x_max":693,"o":"m 507 904 q 438 920 466 904 q 390 952 411 936 q 345 968 368 968 q 302 952 318 968 q 269 905 286 937 l 156 961 q 229 1079 183 1028 q 340 1129 276 1129 q 412 1113 384 1129 q 460 1081 439 1097 q 506 1065 481 1065 q 546 1080 529 1065 q 580 1126 562 1095 l 693 1071 q 618 952 665 999 q 507 904 571 904 z "},"˝":{"ha":855,"x_min":163,"x_max":690,"o":"m 163 942 l 305 1222 l 457 1151 l 281 891 l 163 942 m 395 944 l 539 1222 l 690 1148 l 511 890 l 395 944 z "},"̀":{"ha":855,"x_min":231,"x_max":630,"o":"m 319 1189 l 630 1001 l 568 887 l 231 1020 l 319 1189 z "},"́":{"ha":855,"x_min":225,"x_max":623,"o":"m 536 1189 l 623 1020 l 287 887 l 225 1001 l 536 1189 z "},"̂":{"ha":855,"x_min":157,"x_max":699,"o":"m 498 1113 l 699 927 l 618 835 l 429 956 l 239 835 l 157 927 l 360 1113 l 498 1113 z "},"̃":{"ha":855,"x_min":156,"x_max":693,"o":"m 507 904 q 438 920 466 904 q 390 952 411 936 q 345 968 368 968 q 302 952 318 968 q 269 905 286 937 l 156 961 q 229 1079 183 1028 q 340 1129 276 1129 q 412 1113 384 1129 q 460 1081 439 1097 q 506 1065 481 1065 q 546 1080 529 1065 q 580 1126 562 1095 l 693 1071 q 618 952 665 999 q 507 904 571 904 z "},"̄":{"ha":855,"x_min":210,"x_max":645,"o":"m 645 883 l 210 883 l 210 1040 l 645 1040 l 645 883 z "},"̅":{"ha":855,"x_min":96,"x_max":759,"o":"m 759 883 l 96 883 l 96 1040 l 759 1040 l 759 883 z "},"̆":{"ha":855,"x_min":182,"x_max":673,"o":"m 427 839 q 297 869 349 839 q 217 948 245 898 q 182 1058 189 998 l 306 1081 q 427 995 333 995 q 548 1081 522 995 l 673 1058 q 639 948 667 998 q 558 869 610 898 q 427 839 506 839 z "},"̇":{"ha":855,"x_min":295,"x_max":561,"o":"m 429 1099 q 524 1063 487 1099 q 561 972 561 1026 q 524 881 561 918 q 429 845 487 845 q 332 881 370 845 q 295 972 295 918 q 332 1063 295 1026 q 429 1099 370 1099 z "},"̈":{"ha":855,"x_min":145,"x_max":709,"o":"m 263 908 q 179 941 214 908 q 145 1022 145 974 q 179 1103 145 1070 q 263 1135 214 1135 q 346 1103 313 1135 q 380 1022 380 1070 q 346 941 380 974 q 263 908 313 908 m 592 908 q 510 941 544 908 q 475 1022 475 974 q 510 1103 475 1070 q 592 1135 544 1135 q 676 1103 642 1135 q 709 1022 709 1070 q 676 941 709 974 q 592 908 642 908 z "},"̊":{"ha":855,"x_min":231,"x_max":626,"o":"m 427 1179 q 534 1153 489 1179 q 602 1085 578 1127 q 626 991 626 1042 q 602 899 626 942 q 534 829 578 855 q 427 803 489 803 q 323 829 367 803 q 255 899 278 855 q 231 991 231 942 q 255 1085 231 1042 q 323 1153 278 1127 q 427 1179 367 1179 m 427 1062 q 382 1045 400 1062 q 365 991 365 1027 q 382 938 365 955 q 427 920 400 920 q 474 938 457 920 q 492 991 492 955 q 474 1045 492 1027 q 427 1062 457 1062 z "},"̋":{"ha":855,"x_min":165,"x_max":692,"o":"m 165 888 l 306 1168 l 459 1098 l 282 838 l 165 888 m 397 891 l 541 1168 l 692 1095 l 513 836 l 397 891 z "},"̌":{"ha":855,"x_min":157,"x_max":699,"o":"m 618 1116 l 699 1024 l 498 839 l 360 839 l 157 1024 l 239 1116 l 429 995 l 618 1116 z "},"̏":{"ha":855,"x_min":165,"x_max":692,"o":"m 692 942 l 550 1222 l 397 1151 l 574 891 l 692 942 m 459 944 l 316 1222 l 165 1148 l 343 890 l 459 944 z "},"̓":{"ha":855,"x_min":144,"x_max":369,"o":"m 257 1129 q 337 1098 305 1129 q 369 1019 369 1066 q 360 963 369 993 q 335 901 351 933 l 265 763 l 152 763 l 191 927 q 157 965 171 943 q 144 1019 144 988 q 176 1097 144 1064 q 257 1129 209 1129 z "},"̔":{"ha":855,"x_min":288,"x_max":513,"o":"m 400 1129 q 320 1098 352 1129 q 288 1019 288 1066 q 297 963 288 993 q 322 901 306 933 l 392 763 l 504 763 l 466 927 q 499 965 486 943 q 513 1019 513 988 q 480 1097 513 1064 q 400 1129 448 1129 z "},"̦":{"ha":855,"x_min":316,"x_max":541,"o":"m 429 -93 q 509 -124 476 -93 q 541 -203 541 -155 q 532 -259 541 -229 q 506 -321 523 -288 l 437 -459 l 324 -459 l 363 -295 q 329 -256 343 -278 q 316 -203 316 -234 q 348 -125 316 -157 q 429 -93 380 -93 z "},"̧":{"ha":855,"x_min":237,"x_max":618,"o":"m 455 -207 q 422 -169 455 -179 q 324 -160 390 -160 l 344 22 l 469 22 l 469 -69 q 581 -115 544 -78 q 618 -210 618 -152 q 559 -329 618 -283 q 405 -375 501 -375 q 310 -361 354 -375 q 237 -330 266 -348 l 290 -227 q 334 -245 311 -238 q 381 -251 358 -251 q 435 -241 415 -251 q 455 -207 455 -231 z "},"̵":{"ha":855,"x_min":146,"x_max":710,"o":"m 710 402 l 146 402 l 146 534 l 710 534 l 710 402 z "},"̶":{"ha":855,"x_min":-48,"x_max":903,"o":"m 903 402 l -48 402 l -48 534 l 903 534 l 903 402 z "},"͂":{"ha":855,"x_min":156,"x_max":693,"o":"m 507 904 q 438 920 466 904 q 390 952 411 936 q 345 968 368 968 q 302 952 318 968 q 269 905 286 937 l 156 961 q 229 1079 183 1028 q 340 1129 276 1129 q 412 1113 384 1129 q 460 1081 439 1097 q 506 1065 481 1065 q 546 1080 529 1065 q 580 1126 562 1095 l 693 1071 q 618 952 665 999 q 507 904 571 904 z "},"ͅ":{"ha":855,"x_min":254,"x_max":602,"o":"m 443 -290 q 302 -239 350 -290 q 254 -109 254 -189 l 254 -60 l 415 -60 l 415 -105 q 471 -162 415 -162 q 509 -156 492 -162 q 543 -140 526 -151 l 602 -237 q 536 -274 574 -259 q 443 -290 498 -290 z "},"Ͱ":{"ha":855,"x_min":137,"x_max":719,"o":"m 719 419 l 370 419 l 370 0 l 137 0 l 137 987 l 370 987 l 370 607 l 719 607 l 719 419 z "},"ͱ":{"ha":855,"x_min":126,"x_max":759,"o":"m 759 298 l 382 298 l 382 0 l 157 0 l 157 544 q 148 658 157 605 q 126 748 138 712 l 334 776 q 369 673 355 736 q 382 491 382 610 l 382 472 l 759 472 l 759 298 z "},"Ͳ":{"ha":855,"x_min":24,"x_max":833,"o":"m 311 0 l 311 811 l 197 811 l 197 569 l 24 569 l 24 987 l 833 987 l 833 569 l 659 569 l 659 811 l 544 811 l 544 0 l 311 0 z "},"ͳ":{"ha":855,"x_min":16,"x_max":811,"o":"m 50 573 l 16 731 q 188 756 78 756 l 811 756 l 811 588 l 537 588 l 537 -292 l 312 -316 l 312 588 l 194 588 q 123 585 163 588 q 50 573 83 583 z "},"ʹ":{"ha":855,"x_min":269,"x_max":588,"o":"m 269 590 l 384 987 l 588 987 l 418 590 l 269 590 z "},"͵":{"ha":855,"x_min":269,"x_max":588,"o":"m 588 207 l 472 -189 l 269 -189 l 438 207 l 588 207 z "},"Ͷ":{"ha":855,"x_min":74,"x_max":781,"o":"m 74 0 l 74 987 l 288 987 l 288 652 q 282 472 288 551 q 268 328 277 392 q 249 204 259 264 l 523 987 l 781 987 l 781 0 l 567 0 l 567 328 q 578 581 567 472 q 605 781 589 690 l 336 0 l 74 0 z "},"ͷ":{"ha":855,"x_min":94,"x_max":811,"o":"m 94 0 l 94 756 l 306 756 l 306 513 q 296 345 306 427 q 267 195 286 263 l 524 756 l 749 756 l 749 255 q 762 181 749 207 q 811 140 774 156 l 744 -24 q 595 50 650 -4 q 541 205 541 104 q 546 281 541 233 q 559 385 551 330 q 575 488 567 439 q 589 564 583 536 l 323 0 l 94 0 z "},"ͺ":{"ha":855,"x_min":254,"x_max":602,"o":"m 443 -290 q 302 -239 350 -290 q 254 -109 254 -189 l 254 -60 l 415 -60 l 415 -105 q 471 -162 415 -162 q 509 -156 492 -162 q 543 -140 526 -151 l 602 -237 q 536 -274 574 -259 q 443 -290 498 -290 z "},"ͻ":{"ha":855,"x_min":85,"x_max":757,"o":"m 366 -24 q 207 4 278 -24 q 85 75 136 33 l 185 217 q 267 171 226 189 q 354 153 308 153 q 440 173 402 153 q 500 242 478 194 q 522 373 522 290 q 485 554 522 501 q 368 608 449 608 q 272 593 316 608 q 182 551 229 578 l 85 687 q 220 757 151 734 q 382 781 289 781 q 663 671 569 781 q 757 373 757 561 q 710 166 757 255 q 576 26 663 76 q 366 -24 489 -24 z "},"ͼ":{"ha":855,"x_min":98,"x_max":770,"o":"m 501 153 q 588 171 547 153 q 670 218 629 189 l 770 75 q 649 4 720 33 q 489 -24 577 -24 q 279 26 367 -24 q 145 166 192 76 q 98 373 98 255 q 146 584 98 491 q 282 729 194 676 q 493 781 371 781 q 646 757 579 781 q 770 687 714 734 l 672 551 q 591 593 634 578 q 502 608 548 608 q 379 554 426 608 q 333 373 333 501 q 355 242 333 290 q 415 173 377 194 q 501 153 453 153 m 525 489 q 609 457 576 489 q 641 378 641 425 q 609 298 641 330 q 525 266 576 266 q 441 298 473 266 q 408 378 408 330 q 441 457 408 425 q 525 489 473 489 z "},"ͽ":{"ha":855,"x_min":85,"x_max":757,"o":"m 366 -24 q 207 4 278 -24 q 85 75 136 33 l 185 217 q 267 171 226 189 q 354 153 308 153 q 440 173 402 153 q 500 242 478 194 q 522 373 522 290 q 485 554 522 501 q 368 608 449 608 q 272 593 316 608 q 182 551 229 578 l 85 687 q 220 757 151 734 q 382 781 289 781 q 663 671 569 781 q 757 373 757 561 q 710 166 757 255 q 576 26 663 76 q 366 -24 489 -24 m 327 489 q 411 457 378 489 q 443 378 443 425 q 411 298 443 330 q 327 266 378 266 q 243 298 275 266 q 210 378 210 330 q 243 457 210 425 q 327 489 275 489 z "},";":{"ha":855,"x_min":276,"x_max":579,"o":"m 430 768 q 536 723 493 768 q 579 618 579 679 q 536 514 579 558 q 430 469 493 469 q 324 514 368 469 q 280 618 280 558 q 300 693 280 659 q 355 747 321 726 q 430 768 389 768 m 430 281 q 536 238 494 281 q 579 132 579 196 q 564 51 579 93 q 520 -57 548 9 l 421 -281 l 276 -281 l 345 11 q 280 134 280 53 q 323 239 280 197 q 430 281 367 281 z "},"Ϳ":{"ha":855,"x_min":56,"x_max":751,"o":"m 751 987 l 751 355 q 647 80 751 182 q 354 -21 543 -21 q 189 3 259 -21 q 56 71 120 28 l 145 215 q 239 166 195 180 q 340 152 283 152 q 467 201 416 152 q 518 353 518 250 l 518 816 l 214 816 l 214 987 l 751 987 z "},"΄":{"ha":855,"x_min":292,"x_max":564,"o":"m 346 1207 l 564 1162 l 438 836 l 292 860 l 346 1207 z "},"΅":{"ha":855,"x_min":125,"x_max":730,"o":"m 401 1359 l 586 1325 l 484 1053 l 360 1073 l 401 1359 m 241 1082 q 322 1049 288 1082 q 355 969 355 1016 q 322 889 355 922 q 241 855 288 855 q 158 889 191 855 q 125 969 125 922 q 158 1049 125 1016 q 241 1082 191 1082 m 614 1082 q 697 1049 663 1082 q 730 969 730 1016 q 697 889 730 922 q 614 855 663 855 q 533 889 566 855 q 500 969 500 922 q 533 1049 500 1016 q 614 1082 566 1082 z "},"Ά":{"ha":855,"x_min":-34,"x_max":872,"o":"m 570 213 l 281 213 l 229 0 l -16 0 l 286 987 l 570 987 l 872 0 l 622 0 l 570 213 m 318 382 l 531 382 l 425 819 l 318 382 m 20 1032 l 235 987 l 110 665 l -34 690 l 20 1032 z "},"·":{"ha":855,"x_min":269,"x_max":586,"o":"m 269 487 q 290 567 269 531 q 348 624 311 603 q 427 646 384 646 q 507 624 472 646 q 565 567 543 603 q 586 487 586 531 q 565 408 586 444 q 507 350 543 372 q 427 328 472 328 q 348 350 384 328 q 290 408 311 372 q 269 487 269 444 z "},"Έ":{"ha":855,"x_min":-173,"x_max":778,"o":"m 366 821 l 366 583 l 708 583 l 708 420 l 366 420 l 366 167 l 778 167 l 778 0 l 132 0 l 132 987 l 778 987 l 754 821 l 366 821 m -119 1032 l 96 987 l -29 665 l -173 690 l -119 1032 z "},"Ή":{"ha":855,"x_min":-231,"x_max":781,"o":"m 547 0 l 547 416 l 308 416 l 308 0 l 74 0 l 74 987 l 308 987 l 308 608 l 547 608 l 547 987 l 781 987 l 781 0 l 547 0 m -177 1032 l 38 987 l -88 665 l -231 690 l -177 1032 z "},"Ί":{"ha":855,"x_min":-199,"x_max":748,"o":"m 748 987 l 748 816 l 544 816 l 544 172 l 748 172 l 748 0 l 107 0 l 107 172 l 311 172 l 311 816 l 107 816 l 107 987 l 748 987 m -145 1032 l 71 987 l -55 665 l -199 690 l -145 1032 z "},"Ό":{"ha":855,"x_min":-157,"x_max":823,"o":"m 823 494 q 778 221 823 338 q 645 40 733 105 q 427 -24 557 -24 q 210 39 298 -24 q 77 218 122 102 q 32 494 32 334 q 77 767 32 651 q 210 948 122 883 q 427 1012 298 1012 q 645 949 557 1012 q 778 771 733 887 q 823 494 823 655 m 583 494 q 547 759 583 677 q 427 842 511 842 q 308 759 344 842 q 271 494 271 676 q 308 229 271 312 q 427 147 345 147 q 548 230 513 147 q 583 494 583 314 m -103 1032 l 113 987 l -13 665 l -157 690 l -103 1032 z "},"Ύ":{"ha":855,"x_min":-303,"x_max":866,"o":"m 544 370 l 544 0 l 311 0 l 311 369 l -11 987 l 244 987 l 432 562 l 620 987 l 866 987 l 544 370 m -249 1032 l -33 987 l -159 665 l -303 690 l -249 1032 z "},"Ώ":{"ha":855,"x_min":-153,"x_max":823,"o":"m 427 840 q 309 766 346 840 q 271 537 271 691 q 299 288 271 376 q 389 163 326 201 l 389 0 l 48 0 l 48 166 l 213 166 q 76 309 120 215 q 32 537 32 403 q 78 781 32 674 q 212 950 124 889 q 427 1012 301 1012 q 643 950 555 1012 q 777 781 731 889 q 823 537 823 674 q 778 310 823 403 q 640 166 734 217 l 807 166 l 807 0 l 466 0 l 466 163 q 557 288 530 200 q 583 537 583 376 q 546 766 583 691 q 427 840 509 840 m -99 1032 l 116 987 l -9 665 l -153 690 l -99 1032 z "},"ΐ":{"ha":855,"x_min":53,"x_max":770,"o":"m 286 593 l 53 593 l 72 756 l 511 756 l 511 236 q 538 172 511 192 q 609 153 564 153 q 665 160 638 153 q 717 176 692 167 l 770 26 q 678 -9 732 6 q 552 -24 624 -24 q 358 44 429 -24 q 286 229 286 113 l 286 593 m 387 1359 l 572 1325 l 469 1053 l 345 1073 l 387 1359 m 226 1082 q 307 1049 274 1082 q 340 969 340 1016 q 307 889 340 922 q 226 855 274 855 q 144 889 177 855 q 110 969 110 922 q 144 1049 110 1016 q 226 1082 177 1082 m 600 1082 q 682 1049 649 1082 q 716 969 716 1016 q 682 889 716 922 q 600 855 649 855 q 519 889 551 855 q 486 969 486 922 q 519 1049 486 1016 q 600 1082 551 1082 z "},"Α":{"ha":855,"x_min":-16,"x_max":872,"o":"m 570 213 l 281 213 l 229 0 l -16 0 l 286 987 l 570 987 l 872 0 l 622 0 l 570 213 m 318 382 l 531 382 l 425 819 l 318 382 z "},"Β":{"ha":855,"x_min":80,"x_max":813,"o":"m 813 289 q 781 147 813 204 q 691 59 748 91 q 561 14 634 27 q 407 0 488 0 l 80 0 l 80 987 l 392 987 q 580 964 494 987 q 718 886 666 942 q 771 735 771 831 q 717 594 771 647 q 590 523 662 541 q 694 490 642 514 q 780 417 746 465 q 813 289 813 368 m 536 712 q 499 796 536 770 q 385 822 462 822 l 313 822 l 313 593 l 392 593 q 502 621 468 593 q 536 712 536 649 m 573 298 q 528 407 573 377 q 410 437 484 437 l 313 437 l 313 170 l 400 170 q 485 180 445 170 q 548 217 524 189 q 573 298 573 245 z "},"Γ":{"ha":855,"x_min":128,"x_max":796,"o":"m 796 987 l 774 804 l 362 804 l 362 0 l 128 0 l 128 987 l 796 987 z "},"Δ":{"ha":855,"x_min":-16,"x_max":872,"o":"m 570 987 l 872 0 l -16 0 l 286 987 l 570 987 m 425 819 l 274 190 l 576 190 l 425 819 z "},"Ε":{"ha":855,"x_min":132,"x_max":778,"o":"m 366 821 l 366 583 l 708 583 l 708 420 l 366 420 l 366 167 l 778 167 l 778 0 l 132 0 l 132 987 l 778 987 l 754 821 l 366 821 z "},"Ζ":{"ha":855,"x_min":56,"x_max":801,"o":"m 330 186 l 801 186 l 776 0 l 56 0 l 56 175 l 524 807 l 107 807 l 107 987 l 790 987 l 790 811 l 330 186 z "},"Η":{"ha":855,"x_min":74,"x_max":781,"o":"m 547 0 l 547 416 l 308 416 l 308 0 l 74 0 l 74 987 l 308 987 l 308 608 l 547 608 l 547 987 l 781 987 l 781 0 l 547 0 z "},"Θ":{"ha":855,"x_min":32,"x_max":823,"o":"m 823 494 q 778 221 823 338 q 645 40 733 105 q 427 -24 557 -24 q 210 39 298 -24 q 77 218 122 102 q 32 494 32 334 q 77 767 32 651 q 210 948 122 883 q 427 1012 298 1012 q 645 949 557 1012 q 778 771 733 887 q 823 494 823 655 m 592 494 q 551 761 592 679 q 427 842 511 842 q 303 761 344 842 q 263 494 263 680 q 304 228 263 309 q 427 147 345 147 q 552 228 513 147 q 592 494 592 310 m 533 437 l 320 437 l 320 566 l 533 566 l 533 437 z "},"Ι":{"ha":855,"x_min":107,"x_max":748,"o":"m 748 987 l 748 816 l 544 816 l 544 172 l 748 172 l 748 0 l 107 0 l 107 172 l 311 172 l 311 816 l 107 816 l 107 987 l 748 987 z "},"Κ":{"ha":855,"x_min":84,"x_max":867,"o":"m 318 0 l 84 0 l 84 987 l 318 987 l 318 0 m 325 527 l 595 987 l 840 987 l 561 544 l 867 0 l 596 0 l 325 527 z "},"Λ":{"ha":855,"x_min":-10,"x_max":865,"o":"m 570 987 l 865 0 l 615 0 l 426 813 l 236 0 l -10 0 l 286 987 l 570 987 z "},"Μ":{"ha":855,"x_min":25,"x_max":830,"o":"m 774 987 l 830 0 l 626 0 l 614 422 q 613 558 612 501 q 618 669 614 616 q 626 788 621 722 l 515 168 l 338 168 l 219 788 q 228 672 224 726 q 233 558 231 618 q 232 419 234 498 l 225 0 l 25 0 l 80 987 l 321 987 l 430 349 l 534 987 l 774 987 z "},"Ν":{"ha":855,"x_min":74,"x_max":781,"o":"m 497 0 l 237 794 q 252 686 244 752 q 267 540 261 620 q 273 373 273 459 l 273 0 l 74 0 l 74 987 l 365 987 l 618 197 q 594 370 606 265 q 582 609 582 476 l 582 987 l 781 987 l 781 0 l 497 0 z "},"Ξ":{"ha":855,"x_min":75,"x_max":780,"o":"m 779 987 l 753 802 l 75 802 l 75 987 l 779 987 m 690 589 l 690 414 l 160 414 l 160 589 l 690 589 m 780 192 l 780 0 l 75 0 l 75 192 l 780 192 z "},"Ο":{"ha":855,"x_min":32,"x_max":823,"o":"m 823 494 q 778 221 823 338 q 645 40 733 105 q 427 -24 557 -24 q 210 39 298 -24 q 77 218 122 102 q 32 494 32 334 q 77 767 32 651 q 210 948 122 883 q 427 1012 298 1012 q 645 949 557 1012 q 778 771 733 887 q 823 494 823 655 m 583 494 q 547 759 583 677 q 427 842 511 842 q 308 759 344 842 q 271 494 271 676 q 308 229 271 312 q 427 147 345 147 q 548 230 513 147 q 583 494 583 314 z "},"Π":{"ha":855,"x_min":74,"x_max":781,"o":"m 547 0 l 547 808 l 308 808 l 308 0 l 74 0 l 74 987 l 781 987 l 781 0 l 547 0 z "},"Ρ":{"ha":855,"x_min":89,"x_max":821,"o":"m 821 666 q 772 476 821 551 q 635 365 723 402 q 429 328 546 328 l 323 328 l 323 0 l 89 0 l 89 987 l 400 987 q 711 907 600 987 q 821 666 821 828 m 580 665 q 402 821 580 821 l 323 821 l 323 498 l 415 498 q 537 538 493 498 q 580 665 580 578 z "},"Σ":{"ha":855,"x_min":78,"x_max":777,"o":"m 602 443 l 334 173 l 777 173 l 777 0 l 78 0 l 78 170 l 380 486 l 78 818 l 78 987 l 777 987 l 777 818 l 337 818 l 602 536 l 602 443 z "},"Τ":{"ha":855,"x_min":32,"x_max":831,"o":"m 543 808 l 543 0 l 309 0 l 309 808 l 32 808 l 32 987 l 831 987 l 807 808 l 543 808 z "},"Υ":{"ha":855,"x_min":-11,"x_max":866,"o":"m 544 370 l 544 0 l 311 0 l 311 369 l -11 987 l 244 987 l 432 562 l 620 987 l 866 987 l 544 370 z "},"Φ":{"ha":855,"x_min":6,"x_max":849,"o":"m 508 987 l 508 875 q 762 780 676 868 q 849 499 849 692 q 762 214 849 308 q 508 114 676 120 l 508 0 l 347 0 l 347 114 q 89 214 173 120 q 6 499 6 308 q 89 780 6 692 q 347 875 172 868 l 347 987 l 508 987 m 360 749 q 245 685 276 748 q 213 499 213 622 q 243 311 213 377 q 360 243 272 245 l 360 749 m 494 749 l 494 243 q 612 312 583 245 q 642 499 642 378 q 609 685 642 622 q 494 749 577 748 z "},"Χ":{"ha":855,"x_min":5,"x_max":850,"o":"m 27 987 l 278 987 l 427 670 l 580 987 l 826 987 l 564 534 l 850 0 l 599 0 l 425 377 l 253 0 l 5 0 l 286 524 l 27 987 z "},"Ψ":{"ha":855,"x_min":16,"x_max":839,"o":"m 325 0 l 325 261 q 90 372 165 283 q 16 603 16 460 l 16 987 l 213 987 l 213 598 q 237 470 213 514 q 340 411 261 426 l 340 987 l 516 987 l 516 412 q 617 472 593 429 q 642 598 642 515 l 642 987 l 839 987 l 839 603 q 764 375 839 464 q 531 262 689 286 l 531 0 l 325 0 z "},"Ω":{"ha":855,"x_min":32,"x_max":823,"o":"m 427 840 q 309 766 346 840 q 271 537 271 691 q 299 288 271 376 q 389 163 326 201 l 389 0 l 48 0 l 48 166 l 213 166 q 76 309 120 215 q 32 537 32 403 q 78 781 32 674 q 212 950 124 889 q 427 1012 301 1012 q 643 950 555 1012 q 777 781 731 889 q 823 537 823 674 q 778 310 823 403 q 640 166 734 217 l 807 166 l 807 0 l 466 0 l 466 163 q 557 288 530 200 q 583 537 583 376 q 546 766 583 691 q 427 840 509 840 z "},"Ϊ":{"ha":855,"x_min":107,"x_max":748,"o":"m 748 987 l 748 816 l 544 816 l 544 172 l 748 172 l 748 0 l 107 0 l 107 172 l 311 172 l 311 816 l 107 816 l 107 987 l 748 987 z "},"Ϋ":{"ha":855,"x_min":-11,"x_max":866,"o":"m 544 370 l 544 0 l 311 0 l 311 369 l -11 987 l 244 987 l 432 562 l 620 987 l 866 987 l 544 370 z "},"ά":{"ha":855,"x_min":49,"x_max":814,"o":"m 350 781 q 509 726 454 781 q 576 575 564 672 l 610 756 l 813 756 l 693 403 l 731 239 q 763 170 744 188 q 814 145 783 152 l 741 -24 q 640 12 679 -14 q 586 110 600 38 l 571 185 q 335 -24 519 -24 q 126 81 202 -24 q 49 375 49 186 q 87 584 49 492 q 192 729 124 676 q 350 781 259 781 m 382 617 q 305 558 332 617 q 278 375 278 499 q 305 193 278 247 q 376 140 333 140 q 427 160 402 140 q 475 231 452 179 q 514 379 498 283 q 461 563 494 509 q 382 617 428 617 m 381 1207 l 599 1162 l 473 836 l 327 860 l 381 1207 z "},"έ":{"ha":855,"x_min":90,"x_max":818,"o":"m 597 317 l 457 317 q 354 295 385 317 q 324 231 324 272 q 363 162 324 187 q 481 137 402 137 q 717 194 616 137 l 818 69 q 662 1 751 26 q 462 -24 573 -24 q 270 2 354 -24 q 138 82 186 29 q 90 212 90 135 q 139 343 90 297 q 293 403 187 388 q 160 468 201 424 q 119 577 119 513 q 162 688 119 642 q 281 757 206 734 q 449 781 355 781 q 621 762 538 781 q 773 702 704 744 l 674 580 q 582 614 633 603 q 478 625 531 625 q 381 605 415 625 q 347 546 347 585 q 376 485 347 509 q 467 461 405 461 l 618 461 l 597 317 m 431 1207 l 649 1162 l 523 836 l 377 860 l 431 1207 z "},"ή":{"ha":855,"x_min":78,"x_max":764,"o":"m 556 781 q 710 722 656 781 q 764 556 764 663 l 764 -292 l 538 -316 l 538 491 q 524 588 538 561 q 466 615 509 615 q 397 591 429 615 q 333 524 365 566 l 333 0 l 108 0 l 108 544 q 98 656 108 600 q 78 748 88 712 l 286 776 q 318 667 308 738 q 556 781 420 781 m 423 1207 l 641 1162 l 515 836 l 369 860 l 423 1207 z "},"ί":{"ha":855,"x_min":53,"x_max":770,"o":"m 286 593 l 53 593 l 72 756 l 511 756 l 511 236 q 538 172 511 192 q 609 153 564 153 q 665 160 638 153 q 717 176 692 167 l 770 26 q 678 -9 732 6 q 552 -24 624 -24 q 358 44 429 -24 q 286 229 286 113 l 286 593 m 395 1207 l 613 1162 l 487 836 l 341 860 l 395 1207 z "},"ΰ":{"ha":855,"x_min":93,"x_max":786,"o":"m 744 756 q 774 575 761 672 q 786 365 786 479 q 732 144 786 230 q 592 17 679 58 q 402 -24 504 -24 q 179 46 266 -24 q 93 256 93 116 l 93 756 l 318 756 l 318 270 q 343 171 318 200 q 417 141 369 141 q 520 196 480 141 q 561 377 561 251 q 550 569 561 471 q 522 756 539 667 l 744 756 m 401 1359 l 586 1325 l 484 1053 l 360 1073 l 401 1359 m 241 1082 q 322 1049 288 1082 q 355 969 355 1016 q 322 889 355 922 q 241 855 288 855 q 158 889 191 855 q 125 969 125 922 q 158 1049 125 1016 q 241 1082 191 1082 m 614 1082 q 697 1049 663 1082 q 730 969 730 1016 q 697 889 730 922 q 614 855 663 855 q 533 889 566 855 q 500 969 500 922 q 533 1049 500 1016 q 614 1082 566 1082 z "},"α":{"ha":855,"x_min":49,"x_max":814,"o":"m 350 781 q 509 726 454 781 q 576 575 564 672 l 610 756 l 813 756 l 693 403 l 731 239 q 763 170 744 188 q 814 145 783 152 l 741 -24 q 640 12 679 -14 q 586 110 600 38 l 571 185 q 335 -24 519 -24 q 126 81 202 -24 q 49 375 49 186 q 87 584 49 492 q 192 729 124 676 q 350 781 259 781 m 382 617 q 305 558 332 617 q 278 375 278 499 q 305 193 278 247 q 376 140 333 140 q 427 160 402 140 q 475 231 452 179 q 514 379 498 283 q 461 563 494 509 q 382 617 428 617 z "},"β":{"ha":855,"x_min":75,"x_max":807,"o":"m 405 1088 q 580 1050 507 1088 q 692 949 653 1013 q 731 808 731 886 q 541 578 731 625 q 630 560 584 574 q 717 515 677 546 q 782 432 757 484 q 807 299 807 380 q 769 129 807 203 q 659 14 730 56 q 488 -28 588 -28 q 392 -13 439 -28 q 302 31 345 2 l 302 -285 l 75 -323 l 75 782 q 119 948 75 880 q 236 1052 162 1016 q 405 1088 311 1088 m 302 794 l 302 175 q 360 149 330 159 q 427 140 390 140 q 531 180 488 140 q 575 313 575 221 q 527 441 575 400 q 409 482 479 482 l 363 482 l 377 643 l 405 643 q 475 679 449 643 q 502 787 502 716 q 405 922 502 922 q 329 891 357 922 q 302 794 302 860 z "},"γ":{"ha":855,"x_min":21,"x_max":833,"o":"m 608 776 l 833 724 l 534 37 q 497 -119 501 -40 q 510 -295 493 -197 l 333 -313 q 293 -152 295 -234 q 322 19 291 -70 q 190 412 264 244 q 21 699 116 579 l 244 778 q 354 538 303 685 q 430 198 405 391 l 608 776 z "},"δ":{"ha":855,"x_min":61,"x_max":797,"o":"m 454 1080 q 610 1055 541 1080 q 727 991 679 1030 l 620 869 q 462 920 548 920 q 390 903 413 920 q 366 858 366 885 q 376 819 366 836 q 415 786 386 803 q 498 748 443 770 q 668 655 602 706 q 766 531 734 603 q 797 353 797 459 q 752 155 797 240 q 624 23 707 70 q 429 -24 541 -24 q 231 22 313 -24 q 104 152 148 68 q 61 345 61 235 q 118 535 61 454 q 281 663 175 616 q 170 750 199 706 q 141 862 141 795 q 219 1019 141 957 q 454 1080 298 1080 m 405 607 q 315 497 338 558 q 292 355 292 437 q 427 141 292 141 q 530 193 495 141 q 565 355 565 244 q 551 471 565 426 q 503 547 538 516 q 405 607 468 578 z "},"ε":{"ha":855,"x_min":90,"x_max":818,"o":"m 597 317 l 457 317 q 354 295 385 317 q 324 231 324 272 q 363 162 324 187 q 481 137 402 137 q 717 194 616 137 l 818 69 q 662 1 751 26 q 462 -24 573 -24 q 270 2 354 -24 q 138 82 186 29 q 90 212 90 135 q 139 343 90 297 q 293 403 187 388 q 160 468 201 424 q 119 577 119 513 q 162 688 119 642 q 281 757 206 734 q 449 781 355 781 q 621 762 538 781 q 773 702 704 744 l 674 580 q 582 614 633 603 q 478 625 531 625 q 381 605 415 625 q 347 546 347 585 q 376 485 347 509 q 467 461 405 461 l 618 461 l 597 317 z "},"ζ":{"ha":855,"x_min":135,"x_max":805,"o":"m 781 1057 l 805 922 q 470 621 572 755 q 368 369 368 488 q 385 281 368 315 q 442 222 401 246 q 554 170 482 197 q 697 107 645 135 q 771 45 749 78 q 793 -41 793 11 q 730 -198 793 -131 q 534 -322 666 -265 l 452 -187 q 532 -132 501 -159 q 563 -67 563 -106 q 542 -30 563 -44 q 466 4 522 -16 q 280 89 354 46 q 171 195 207 132 q 135 360 135 258 q 180 548 135 457 q 325 729 225 639 q 591 913 426 820 q 493 896 561 900 q 332 893 425 893 l 182 893 l 207 1057 l 781 1057 z "},"η":{"ha":855,"x_min":78,"x_max":764,"o":"m 556 781 q 710 722 656 781 q 764 556 764 663 l 764 -292 l 538 -316 l 538 491 q 524 588 538 561 q 466 615 509 615 q 397 591 429 615 q 333 524 365 566 l 333 0 l 108 0 l 108 544 q 98 656 108 600 q 78 748 88 712 l 286 776 q 318 667 308 738 q 556 781 420 781 z "},"θ":{"ha":855,"x_min":60,"x_max":795,"o":"m 427 1080 q 698 941 602 1080 q 795 531 795 802 q 698 118 795 259 q 427 -24 601 -24 q 157 116 254 -24 q 60 530 60 257 q 157 939 60 798 q 427 1080 254 1080 m 427 919 q 349 890 382 919 q 299 790 317 861 q 278 593 281 719 l 577 593 q 556 790 573 719 q 506 890 538 861 q 427 919 474 919 m 577 462 l 276 462 q 298 266 280 337 q 349 167 316 195 q 427 138 382 138 q 506 167 474 138 q 556 266 538 195 q 577 462 573 337 z "},"ι":{"ha":855,"x_min":53,"x_max":770,"o":"m 286 593 l 53 593 l 72 756 l 511 756 l 511 236 q 538 172 511 192 q 609 153 564 153 q 665 160 638 153 q 717 176 692 167 l 770 26 q 678 -9 732 6 q 552 -24 624 -24 q 358 44 429 -24 q 286 229 286 113 l 286 593 z "},"κ":{"ha":855,"x_min":74,"x_max":830,"o":"m 613 779 l 798 697 l 566 409 l 723 220 q 775 173 750 187 q 830 152 799 159 l 754 -26 q 665 -4 702 -21 q 595 46 627 13 q 527 133 563 79 l 336 396 l 613 779 m 291 756 q 318 637 306 710 q 330 479 330 563 l 330 0 l 105 0 l 105 496 q 99 625 105 559 q 74 756 93 690 l 291 756 z "},"λ":{"ha":855,"x_min":38,"x_max":840,"o":"m 289 756 l 363 756 q 315 844 342 811 q 242 896 288 877 q 120 926 197 915 l 147 1080 q 327 1039 254 1066 q 452 964 401 1012 q 536 839 502 915 q 598 650 571 762 q 672 382 636 493 q 749 191 709 271 q 840 46 790 110 l 618 -24 q 533 133 569 49 q 471 329 498 217 q 419 597 444 441 l 260 -24 l 38 28 l 289 756 z "},"μ":{"ha":855,"x_min":95,"x_max":764,"o":"m 746 756 l 746 269 q 751 129 746 196 q 764 0 756 61 l 561 -20 q 551 29 556 1 q 542 90 546 58 q 470 9 511 40 q 379 -21 429 -21 q 313 -7 339 -21 q 256 47 287 8 q 294 -49 281 -4 q 308 -164 308 -95 l 308 -292 l 95 -315 l 95 756 l 318 756 l 318 326 q 330 191 318 236 q 397 145 342 145 q 466 167 434 145 q 521 226 497 189 l 521 756 l 746 756 z "},"ν":{"ha":855,"x_min":22,"x_max":819,"o":"m 291 0 q 239 223 269 113 q 176 427 210 332 q 103 596 142 523 q 22 709 64 669 l 228 780 q 345 546 293 702 q 427 170 397 390 l 603 781 l 819 732 l 546 0 l 291 0 z "},"ξ":{"ha":855,"x_min":106,"x_max":816,"o":"m 511 1080 q 678 1058 603 1080 q 816 993 754 1036 l 718 873 q 539 923 640 923 q 431 895 474 923 q 388 814 388 867 q 431 721 388 747 q 553 695 474 695 l 692 695 l 670 546 l 546 546 q 393 507 447 546 q 338 389 338 467 q 361 298 338 331 q 438 238 383 264 q 593 173 494 211 q 705 121 660 148 q 775 57 751 95 q 798 -42 798 19 q 734 -198 798 -131 q 539 -322 670 -265 l 457 -187 q 505 -156 480 -174 q 547 -114 530 -138 q 565 -59 565 -90 q 546 -17 565 -32 q 478 17 527 -2 q 317 85 386 53 q 200 155 247 118 q 130 245 153 193 q 106 373 106 297 q 141 506 106 453 q 233 590 176 559 q 353 632 289 620 q 216 708 271 660 q 162 840 162 756 q 210 968 162 914 q 338 1051 259 1021 q 511 1080 418 1080 z "},"ο":{"ha":855,"x_min":60,"x_max":795,"o":"m 427 781 q 626 731 544 781 q 751 592 708 682 q 795 380 795 501 q 698 83 795 191 q 427 -24 601 -24 q 157 82 254 -24 q 60 379 60 188 q 104 590 60 499 q 230 731 147 680 q 427 781 312 781 m 427 615 q 325 559 358 615 q 292 379 292 502 q 325 197 292 254 q 427 141 358 141 q 530 197 496 141 q 563 380 563 254 q 530 559 563 503 q 427 615 496 615 z "},"π":{"ha":855,"x_min":6,"x_max":821,"o":"m 821 756 l 821 594 l 722 594 l 722 255 q 737 182 722 207 q 786 141 752 157 l 719 -24 q 562 51 620 -7 q 504 225 504 110 l 504 594 l 351 594 l 351 0 l 137 0 l 137 592 q 87 585 107 590 q 43 571 66 580 l 6 725 q 81 748 43 740 q 163 756 119 756 l 821 756 z "},"ρ":{"ha":855,"x_min":96,"x_max":795,"o":"m 443 781 q 706 679 618 781 q 795 380 795 578 q 760 175 795 266 q 660 30 726 83 q 501 -24 595 -24 q 402 -5 448 -24 q 321 56 356 15 l 321 -292 l 96 -316 l 96 392 q 182 680 96 579 q 443 781 267 781 m 440 617 q 348 556 374 617 q 321 353 321 495 l 321 209 q 433 141 366 141 q 529 197 496 141 q 563 377 563 253 q 548 522 563 470 q 507 595 534 574 q 440 617 479 617 z "},"ς":{"ha":855,"x_min":110,"x_max":787,"o":"m 509 781 q 663 757 595 781 q 787 688 731 733 l 689 554 q 525 608 617 608 q 396 559 447 608 q 345 397 345 510 q 365 295 345 334 q 428 229 384 256 q 547 173 472 202 q 663 121 615 147 q 736 56 711 94 q 761 -42 761 18 q 696 -198 761 -131 q 501 -321 631 -265 l 417 -183 q 497 -132 465 -158 q 529 -68 529 -106 q 501 -17 529 -36 q 395 32 473 1 q 248 106 312 64 q 147 217 183 148 q 110 397 110 286 q 160 593 110 506 q 300 731 210 680 q 509 781 390 781 z "},"σ":{"ha":855,"x_min":60,"x_max":823,"o":"m 452 769 q 639 766 537 769 q 823 756 740 762 l 823 607 l 682 618 q 765 514 735 578 q 795 363 795 450 q 751 157 795 244 q 625 23 707 71 q 427 -24 543 -24 q 157 81 255 -24 q 60 375 60 186 q 104 582 60 494 q 234 720 147 671 q 452 769 321 769 m 292 375 q 325 196 292 251 q 427 141 358 141 q 528 196 495 141 q 561 375 561 251 q 542 540 561 485 q 492 621 522 595 q 381 600 425 620 q 314 527 336 580 q 292 375 292 474 z "},"τ":{"ha":855,"x_min":31,"x_max":764,"o":"m 764 756 l 764 591 l 503 591 l 503 236 q 529 172 503 192 q 599 153 555 153 q 656 160 629 153 q 707 176 684 167 l 761 26 q 669 -9 723 6 q 543 -24 615 -24 q 348 44 418 -24 q 278 229 278 113 l 278 591 l 211 591 q 139 588 179 591 q 64 575 98 585 l 31 731 q 204 756 93 756 l 764 756 z "},"υ":{"ha":855,"x_min":93,"x_max":786,"o":"m 744 756 q 774 575 761 672 q 786 365 786 479 q 732 144 786 230 q 592 17 679 58 q 402 -24 504 -24 q 179 46 266 -24 q 93 256 93 116 l 93 756 l 318 756 l 318 270 q 343 171 318 200 q 417 141 369 141 q 520 196 480 141 q 561 377 561 251 q 550 569 561 471 q 522 756 539 667 l 744 756 z "},"φ":{"ha":855,"x_min":26,"x_max":828,"o":"m 570 781 q 769 680 709 781 q 828 385 828 578 q 743 95 828 189 q 506 -19 657 0 l 506 -299 l 334 -316 l 334 -19 q 99 94 171 0 q 26 342 26 187 q 49 572 26 468 q 100 756 72 677 l 286 756 q 233 555 251 648 q 215 373 215 462 q 240 197 215 257 q 334 120 266 137 l 334 462 q 390 699 334 617 q 570 781 445 781 m 567 639 q 516 595 525 639 q 506 461 506 551 l 506 120 q 605 198 576 136 q 634 383 634 261 q 621 582 634 525 q 567 639 608 639 z "},"χ":{"ha":855,"x_min":21,"x_max":832,"o":"m 241 780 q 351 608 303 702 q 432 385 400 514 l 591 778 l 803 733 l 545 247 l 832 -276 l 610 -337 l 425 106 l 246 -336 l 21 -285 l 306 248 q 186 507 259 389 q 24 704 113 625 l 241 780 z "},"ψ":{"ha":855,"x_min":41,"x_max":825,"o":"m 515 756 l 515 130 q 592 166 566 140 q 627 240 618 192 q 637 370 637 289 q 628 557 637 466 q 605 756 620 647 l 786 756 q 815 573 804 670 q 825 365 825 476 q 755 99 825 189 q 515 -19 684 9 l 515 -292 l 341 -316 l 341 -19 q 160 36 226 -6 q 68 143 95 78 q 41 288 41 208 l 41 756 l 228 756 l 228 292 q 255 179 228 218 q 341 130 283 140 l 341 756 l 515 756 z "},"ω":{"ha":855,"x_min":21,"x_max":834,"o":"m 759 756 q 811 556 788 662 q 834 345 834 450 q 616 -24 834 -24 q 495 10 541 -24 q 426 125 448 43 q 358 11 402 46 q 244 -24 314 -24 q 78 68 136 -24 q 21 345 21 160 q 44 557 21 450 q 95 756 67 664 l 272 756 q 232 554 246 651 q 218 357 218 457 q 232 193 218 245 q 286 141 246 141 q 335 184 323 141 q 347 333 347 226 l 347 488 l 509 516 l 509 340 q 521 184 509 227 q 573 141 533 141 q 626 193 615 141 q 637 357 637 245 q 622 554 637 457 q 583 756 608 652 l 759 756 z "},"ϊ":{"ha":855,"x_min":53,"x_max":770,"o":"m 286 593 l 53 593 l 72 756 l 511 756 l 511 236 q 538 172 511 192 q 609 153 564 153 q 665 160 638 153 q 717 176 692 167 l 770 26 q 678 -9 732 6 q 552 -24 624 -24 q 358 44 429 -24 q 286 229 286 113 l 286 593 m 249 908 q 165 941 199 908 q 131 1022 131 974 q 165 1103 131 1070 q 249 1135 199 1135 q 332 1103 298 1135 q 365 1022 365 1070 q 332 941 365 974 q 249 908 298 908 m 578 908 q 495 941 530 908 q 461 1022 461 974 q 495 1103 461 1070 q 578 1135 530 1135 q 661 1103 627 1135 q 695 1022 695 1070 q 661 941 695 974 q 578 908 627 908 z "},"ϋ":{"ha":855,"x_min":93,"x_max":786,"o":"m 744 756 q 774 575 761 672 q 786 365 786 479 q 732 144 786 230 q 592 17 679 58 q 402 -24 504 -24 q 179 46 266 -24 q 93 256 93 116 l 93 756 l 318 756 l 318 270 q 343 171 318 200 q 417 141 369 141 q 520 196 480 141 q 561 377 561 251 q 550 569 561 471 q 522 756 539 667 l 744 756 m 263 908 q 179 941 214 908 q 145 1022 145 974 q 179 1103 145 1070 q 263 1135 214 1135 q 346 1103 313 1135 q 380 1022 380 1070 q 346 941 380 974 q 263 908 313 908 m 592 908 q 510 941 544 908 q 475 1022 475 974 q 510 1103 475 1070 q 592 1135 544 1135 q 676 1103 642 1135 q 709 1022 709 1070 q 676 941 709 974 q 592 908 642 908 z "},"ό":{"ha":855,"x_min":60,"x_max":795,"o":"m 427 781 q 626 731 544 781 q 751 592 708 682 q 795 380 795 501 q 698 83 795 191 q 427 -24 601 -24 q 157 82 254 -24 q 60 379 60 188 q 104 590 60 499 q 230 731 147 680 q 427 781 312 781 m 427 615 q 325 559 358 615 q 292 379 292 502 q 325 197 292 254 q 427 141 358 141 q 530 197 496 141 q 563 380 563 254 q 530 559 563 503 q 427 615 496 615 m 410 1207 l 627 1162 l 501 836 l 355 860 l 410 1207 z "},"ύ":{"ha":855,"x_min":93,"x_max":786,"o":"m 744 756 q 774 575 761 672 q 786 365 786 479 q 732 144 786 230 q 592 17 679 58 q 402 -24 504 -24 q 179 46 266 -24 q 93 256 93 116 l 93 756 l 318 756 l 318 270 q 343 171 318 200 q 417 141 369 141 q 520 196 480 141 q 561 377 561 251 q 550 569 561 471 q 522 756 539 667 l 744 756 m 410 1207 l 627 1162 l 501 836 l 355 860 l 410 1207 z "},"ώ":{"ha":855,"x_min":21,"x_max":834,"o":"m 759 756 q 811 556 788 662 q 834 345 834 450 q 616 -24 834 -24 q 495 10 541 -24 q 426 125 448 43 q 358 11 402 46 q 244 -24 314 -24 q 78 68 136 -24 q 21 345 21 160 q 44 557 21 450 q 95 756 67 664 l 272 756 q 232 554 246 651 q 218 357 218 457 q 232 193 218 245 q 286 141 246 141 q 335 184 323 141 q 347 333 347 226 l 347 488 l 509 516 l 509 340 q 521 184 509 227 q 573 141 533 141 q 626 193 615 141 q 637 357 637 245 q 622 554 637 457 q 583 756 608 652 l 759 756 m 410 1207 l 627 1162 l 501 836 l 355 860 l 410 1207 z "},"Ϗ":{"ha":855,"x_min":72,"x_max":829,"o":"m 306 0 l 72 0 l 72 987 l 306 987 l 306 0 m 313 527 l 553 987 l 791 987 l 548 544 l 729 179 l 829 179 l 829 -37 q 754 -250 829 -177 q 543 -323 679 -323 q 433 -304 478 -323 q 350 -259 388 -286 l 437 -127 q 474 -145 456 -137 q 521 -152 493 -152 q 576 -131 557 -152 q 595 -56 595 -109 l 595 0 l 555 0 l 313 527 z "},"ϐ":{"ha":855,"x_min":75,"x_max":781,"o":"m 476 1080 q 615 1051 561 1080 q 693 975 668 1021 q 717 876 717 928 q 658 715 717 786 q 467 601 600 645 q 551 614 514 614 q 720 538 658 614 q 781 329 781 463 q 737 147 781 227 q 613 21 693 67 q 425 -24 533 -24 q 224 38 301 -24 q 111 216 147 100 q 75 490 75 331 q 129 808 75 676 q 274 1010 183 940 q 476 1080 365 1080 m 461 923 q 395 896 428 923 q 338 802 363 868 q 306 619 313 735 l 338 632 q 477 726 438 670 q 516 855 516 782 q 501 907 516 890 q 461 923 486 923 m 330 484 l 303 472 q 318 276 304 348 q 359 171 332 203 q 426 140 385 140 q 516 186 483 140 q 548 322 548 231 q 521 461 548 412 q 435 510 493 510 q 387 503 411 510 q 330 484 363 496 z "},"ϑ":{"ha":855,"x_min":89,"x_max":786,"o":"m 379 -24 q 244 5 306 -24 q 146 97 182 34 q 109 257 109 159 l 109 503 l 325 503 l 325 244 q 343 163 325 187 q 390 138 362 138 q 456 177 430 138 q 495 309 482 215 q 508 570 508 404 l 508 572 l 400 571 q 166 638 243 571 q 89 815 89 706 q 126 947 89 887 q 228 1044 162 1008 q 377 1080 293 1080 q 615 986 528 1080 q 726 724 702 891 l 786 724 l 786 573 l 737 573 q 656 125 737 274 q 379 -24 575 -24 m 289 821 q 319 748 289 773 q 400 722 350 722 l 501 723 q 456 876 488 834 q 377 919 424 919 q 313 891 336 919 q 289 821 289 864 z "},"ϒ":{"ha":855,"x_min":18,"x_max":855,"o":"m 821 839 q 791 843 806 843 q 755 829 769 843 q 724 777 741 815 l 546 370 l 546 0 l 311 0 l 311 369 l 18 987 l 274 987 l 430 562 l 536 843 q 619 972 570 932 q 761 1012 668 1012 q 813 1008 790 1012 q 855 998 837 1004 l 821 839 z "},"ϓ":{"ha":855,"x_min":-275,"x_max":855,"o":"m 821 839 q 791 843 806 843 q 755 829 769 843 q 724 777 741 815 l 546 370 l 546 0 l 311 0 l 311 369 l 18 987 l 274 987 l 430 562 l 536 843 q 619 972 570 932 q 761 1012 668 1012 q 813 1008 790 1012 q 855 998 837 1004 l 821 839 z "},"ϔ":{"ha":855,"x_min":18,"x_max":855,"o":"m 821 839 q 791 843 806 843 q 755 829 769 843 q 724 777 741 815 l 546 370 l 546 0 l 311 0 l 311 369 l 18 987 l 274 987 l 430 562 l 536 843 q 619 972 570 932 q 761 1012 668 1012 q 813 1008 790 1012 q 855 998 837 1004 l 821 839 z "},"ϕ":{"ha":855,"x_min":26,"x_max":827,"o":"m 531 1079 l 531 750 q 675 701 607 742 q 785 581 742 660 q 827 382 827 502 q 785 181 827 261 q 676 59 743 101 q 533 8 608 16 l 531 -292 l 321 -316 l 322 8 q 179 57 247 16 q 69 176 112 98 q 26 376 26 255 q 69 578 26 498 q 178 700 111 657 q 321 750 246 742 l 321 1057 l 531 1079 m 630 382 q 598 559 630 506 q 515 620 566 613 l 515 140 q 600 204 570 147 q 630 382 630 261 m 223 376 q 255 203 223 259 q 338 140 287 147 l 338 618 q 254 556 285 612 q 223 376 223 500 z "},"ϖ":{"ha":855,"x_min":-22,"x_max":825,"o":"m 18 588 l -22 724 q 32 742 4 735 q 103 753 60 749 q 219 756 146 756 l 825 756 l 825 605 l 738 605 q 787 472 769 541 q 805 330 805 402 q 747 67 805 158 q 589 -24 689 -24 q 486 10 528 -24 q 422 125 444 43 q 359 11 399 46 q 264 -24 320 -24 q 102 66 162 -24 q 42 330 42 156 q 59 470 42 402 q 108 603 77 539 q 61 599 80 603 q 18 588 43 595 m 501 340 q 512 184 501 227 q 558 141 523 141 q 604 193 594 141 q 615 357 615 245 q 609 481 615 420 q 592 605 603 542 l 254 604 q 238 481 244 542 q 232 357 232 420 q 245 193 232 245 q 293 141 258 141 q 337 184 326 141 q 347 333 347 226 l 347 459 l 501 483 l 501 340 z "},"ϗ":{"ha":855,"x_min":62,"x_max":791,"o":"m 256 -19 l 123 31 l 123 503 q 110 578 123 553 q 62 620 96 603 l 127 781 q 276 707 222 762 q 330 561 330 652 q 319 461 330 517 q 292 349 308 405 q 262 246 276 292 l 595 776 l 730 726 l 730 255 q 744 170 730 194 q 791 128 757 145 l 791 127 l 791 127 l 791 -52 q 718 -256 791 -188 q 517 -324 645 -324 q 396 -306 449 -324 q 310 -263 344 -288 l 386 -131 q 439 -152 413 -144 q 503 -160 464 -160 q 570 -139 545 -160 q 595 -72 595 -118 l 595 52 q 541 109 560 74 q 523 197 523 144 q 533 297 523 241 q 560 409 544 353 q 589 511 575 466 l 256 -19 z "},"Ϙ":{"ha":855,"x_min":32,"x_max":823,"o":"m 316 -299 l 316 -10 q 104 159 177 27 q 32 494 32 291 q 77 767 32 651 q 210 948 122 883 q 427 1012 298 1012 q 645 949 557 1012 q 778 771 733 887 q 823 494 823 655 q 750 162 823 296 q 538 -10 678 29 l 538 -299 l 316 -299 m 583 494 q 547 759 583 677 q 427 842 511 842 q 308 759 344 842 q 271 494 271 676 q 308 229 271 312 q 427 147 345 147 q 548 230 513 147 q 583 494 583 314 z "},"ϙ":{"ha":855,"x_min":60,"x_max":795,"o":"m 427 781 q 626 731 544 781 q 751 592 708 682 q 795 380 795 501 q 728 121 795 223 q 537 -11 660 20 l 537 -292 l 318 -316 l 318 -11 q 127 120 194 19 q 60 379 60 221 q 104 590 60 499 q 230 731 147 680 q 427 781 312 781 m 427 615 q 325 559 358 615 q 292 379 292 502 q 325 197 292 254 q 427 141 358 141 q 530 197 496 141 q 563 380 563 254 q 530 559 563 503 q 427 615 496 615 z "},"Ϛ":{"ha":855,"x_min":61,"x_max":833,"o":"m 531 -318 l 448 -183 q 527 -131 496 -156 q 558 -74 558 -107 q 517 -21 558 -45 q 373 45 476 2 q 211 136 281 83 q 101 274 140 189 q 61 491 61 359 q 120 745 61 633 q 295 922 179 858 q 575 987 410 987 l 833 987 l 808 801 l 603 801 q 428 763 495 801 q 331 656 361 724 q 301 498 301 588 q 318 363 301 416 q 386 270 336 309 q 531 192 436 231 q 667 127 611 159 q 754 53 724 95 q 783 -51 783 11 q 723 -198 783 -135 q 531 -318 662 -262 z "},"ϛ":{"ha":855,"x_min":82,"x_max":762,"o":"m 572 835 l 762 819 q 733 681 762 729 q 648 608 704 633 q 513 559 593 583 q 398 517 442 538 q 335 463 355 496 q 316 369 316 429 q 333 281 316 316 q 395 219 350 246 q 519 165 439 192 q 687 81 630 126 q 744 -51 744 36 q 680 -199 744 -137 q 486 -318 615 -262 l 401 -183 q 483 -130 453 -155 q 512 -69 512 -105 q 474 -19 512 -40 q 342 36 436 1 q 200 105 258 66 q 112 204 142 143 q 82 360 82 264 q 114 524 82 461 q 207 626 147 587 q 348 690 266 665 q 471 731 426 715 q 537 762 516 748 q 566 792 559 776 q 572 835 572 809 z "},"Ϝ":{"ha":855,"x_min":123,"x_max":790,"o":"m 657 372 q 600 389 630 382 q 526 395 571 395 l 356 395 l 356 0 l 123 0 l 123 987 l 790 987 l 768 804 l 356 804 l 356 563 l 541 563 q 637 553 598 563 q 711 523 677 543 l 657 372 z "},"ϝ":{"ha":855,"x_min":130,"x_max":769,"o":"m 664 170 q 605 186 636 180 q 533 192 573 192 l 355 192 l 355 -285 l 130 -317 l 130 482 q 163 622 130 560 q 263 720 197 684 q 426 756 329 756 l 769 756 l 746 588 l 454 588 q 381 559 407 588 q 355 477 355 531 l 355 355 l 546 355 q 643 346 603 355 q 716 316 683 336 l 664 170 z "},"Ϟ":{"ha":855,"x_min":63,"x_max":791,"o":"m 236 0 l 544 405 l 100 405 l 63 588 l 370 987 l 617 987 l 311 588 l 753 588 l 791 405 l 790 405 l 483 0 l 236 0 z "},"ϟ":{"ha":855,"x_min":84,"x_max":772,"o":"m 140 358 l 84 510 l 217 785 q 271 906 251 856 q 304 998 292 957 q 323 1083 316 1039 l 523 1036 q 480 869 520 957 q 363 651 439 781 l 321 578 l 716 693 l 772 541 l 771 540 l 642 274 q 588 152 609 203 q 556 61 568 102 q 536 -24 543 19 l 335 22 q 379 191 339 103 q 495 407 419 279 l 533 472 l 140 358 z "},"Ϡ":{"ha":855,"x_min":6,"x_max":848,"o":"m 6 0 l 354 901 l 318 987 l 494 987 l 848 0 l 647 0 l 542 334 l 447 0 l 303 1 l 473 557 l 434 679 l 217 0 l 6 0 z "},"ϡ":{"ha":855,"x_min":12,"x_max":785,"o":"m 12 0 l 362 756 q 223 859 301 811 q 48 952 145 907 l 116 1085 q 484 869 335 997 q 709 559 632 741 q 785 130 785 377 q 776 -20 785 60 q 754 -176 768 -100 q 722 -314 739 -253 l 567 -289 q 599 -90 588 -193 q 611 130 611 14 q 594 341 611 246 l 456 0 l 310 0 l 533 532 q 479 627 510 582 l 192 0 l 12 0 z "},"ϰ":{"ha":855,"x_min":65,"x_max":791,"o":"m 259 -19 l 126 31 l 126 503 q 113 578 126 553 q 65 620 99 603 l 130 781 q 279 707 224 762 q 333 561 333 652 q 322 461 333 517 q 296 349 311 405 q 266 246 280 292 l 596 776 l 730 722 l 730 255 q 744 180 730 204 q 791 138 757 155 l 726 -24 q 577 51 632 -5 q 523 197 523 106 q 534 297 523 241 q 561 409 545 353 q 590 511 576 466 l 259 -19 z "},"ϱ":{"ha":855,"x_min":96,"x_max":795,"o":"m 528 -318 q 503 -283 519 -296 q 454 -262 488 -271 q 357 -245 421 -254 q 163 -160 230 -226 q 96 53 96 -93 l 96 392 q 182 681 96 580 q 442 781 268 781 q 703 683 611 781 q 795 412 795 585 q 759 222 795 308 q 657 82 723 135 q 501 30 592 30 q 405 50 451 30 q 321 120 360 71 l 321 23 q 337 -44 321 -20 q 392 -82 353 -68 q 497 -105 430 -95 q 651 -159 600 -121 q 722 -271 703 -197 l 528 -318 m 321 370 l 321 274 q 373 213 345 231 q 436 195 402 195 q 526 249 491 195 q 561 409 561 303 q 528 571 561 526 q 444 617 496 617 q 349 558 377 617 q 321 370 321 499 z "},"ϲ":{"ha":855,"x_min":98,"x_max":770,"o":"m 501 153 q 588 171 547 153 q 670 218 629 189 l 770 75 q 649 4 720 33 q 489 -24 577 -24 q 279 26 367 -24 q 145 166 192 76 q 98 373 98 255 q 146 584 98 491 q 282 729 194 676 q 493 781 371 781 q 646 757 579 781 q 770 687 714 734 l 672 551 q 591 593 634 578 q 502 608 548 608 q 379 554 426 608 q 333 373 333 501 q 355 242 333 290 q 415 173 377 194 q 501 153 453 153 z "},"ϳ":{"ha":855,"x_min":99,"x_max":673,"o":"m 527 1152 q 623 1116 585 1152 q 660 1026 660 1080 q 623 935 660 972 q 527 898 585 898 q 431 935 468 898 q 393 1026 393 972 q 431 1116 393 1080 q 527 1152 468 1152 m 673 756 l 673 219 q 612 -50 673 56 q 431 -218 551 -156 q 135 -316 311 -281 l 99 -144 q 291 -78 214 -118 q 408 28 369 -39 q 448 205 448 95 l 448 603 l 176 603 l 176 756 l 673 756 z "},"ϴ":{"ha":855,"x_min":32,"x_max":823,"o":"m 823 494 q 778 221 823 338 q 645 40 733 105 q 427 -24 557 -24 q 210 39 298 -24 q 77 218 122 102 q 32 494 32 334 q 77 767 32 651 q 210 948 122 883 q 427 1012 298 1012 q 645 949 557 1012 q 778 771 733 887 q 823 494 823 655 m 427 842 q 312 777 353 842 q 264 566 272 713 l 590 566 q 542 777 583 712 q 427 842 502 842 m 427 147 q 546 215 506 147 q 591 437 585 284 l 264 437 q 311 215 270 283 q 427 147 352 147 z "},"ϵ":{"ha":855,"x_min":98,"x_max":770,"o":"m 490 781 q 770 687 658 781 l 675 561 q 588 604 632 590 q 502 618 544 618 q 382 579 427 618 q 325 457 337 540 l 625 457 l 625 316 l 325 316 q 384 180 335 221 q 505 140 432 140 q 674 197 593 140 l 770 67 q 642 0 716 24 q 487 -24 568 -24 q 277 26 364 -24 q 144 166 189 76 q 98 373 98 255 q 146 584 98 491 q 282 729 194 676 q 490 781 370 781 z "},"϶":{"ha":855,"x_min":98,"x_max":770,"o":"m 395 781 q 598 730 514 781 q 726 587 682 679 q 770 376 770 496 q 724 168 770 258 q 589 27 677 78 q 375 -24 501 -24 q 220 0 288 -24 q 98 74 153 24 l 198 194 q 278 152 239 165 q 370 140 318 140 q 486 179 442 140 q 542 316 531 219 l 262 316 l 262 457 l 539 457 q 488 580 530 541 q 377 618 447 618 q 286 605 327 618 q 204 565 244 591 l 108 689 q 236 759 171 736 q 395 781 301 781 z "},"Ϸ":{"ha":855,"x_min":85,"x_max":821,"o":"m 319 987 l 319 828 l 398 828 q 710 748 598 828 q 821 504 821 668 q 717 248 821 330 q 429 166 612 166 l 319 166 l 319 0 l 85 0 l 85 987 l 319 987 m 404 661 l 319 661 l 319 335 l 414 335 q 534 373 490 335 q 578 503 578 410 q 533 624 578 586 q 404 661 489 661 z "},"ϸ":{"ha":855,"x_min":100,"x_max":795,"o":"m 325 1080 l 325 680 q 409 755 359 729 q 519 781 459 781 q 678 732 618 781 q 767 593 739 683 q 795 380 795 504 q 761 172 795 264 q 662 28 726 80 q 504 -24 597 -24 q 325 55 394 -24 l 325 -292 l 100 -316 l 100 1057 l 325 1080 m 449 615 q 380 592 410 615 q 325 528 350 568 l 325 209 q 374 157 348 174 q 436 141 400 141 q 529 196 496 141 q 563 377 563 250 q 549 523 563 472 q 510 595 536 575 q 449 615 484 615 z "},"Ϲ":{"ha":855,"x_min":48,"x_max":840,"o":"m 510 1012 q 691 984 616 1012 q 827 905 765 956 l 712 766 q 623 819 672 800 q 516 839 573 839 q 402 804 454 839 q 321 693 351 769 q 290 496 290 617 q 354 237 290 318 q 520 156 419 156 q 643 184 594 156 q 734 244 692 212 l 840 109 q 703 15 784 54 q 507 -24 622 -24 q 270 35 373 -24 q 107 210 166 95 q 48 496 48 326 q 109 776 48 661 q 275 952 170 892 q 510 1012 380 1012 z "},"Ϻ":{"ha":855,"x_min":25,"x_max":830,"o":"m 774 987 l 830 0 l 626 0 l 614 422 q 613 558 612 501 q 618 669 614 616 q 626 788 621 722 l 515 168 l 338 168 l 219 788 q 228 672 224 726 q 233 558 231 618 q 232 419 234 498 l 225 0 l 25 0 l 80 987 l 321 987 l 430 349 l 534 987 l 774 987 z "},"ϻ":{"ha":855,"x_min":2,"x_max":821,"o":"m 2 -316 l 102 756 l 350 756 l 425 273 l 513 756 l 757 756 l 821 0 l 623 0 l 613 205 q 610 339 610 277 q 612 465 610 402 q 618 603 614 528 l 512 95 l 323 95 l 241 599 q 243 460 242 524 q 243 334 244 396 q 236 200 241 272 l 197 -301 l 2 -316 z "},"ϼ":{"ha":855,"x_min":42,"x_max":828,"o":"m 42 -75 l 129 -75 l 129 392 q 214 680 129 579 q 476 781 300 781 q 739 679 650 781 q 828 380 828 578 q 793 175 828 266 q 693 30 759 83 q 534 -24 627 -24 q 435 -5 481 -24 q 354 56 389 15 l 354 -75 l 551 -75 l 551 -207 l 354 -207 l 354 -292 l 129 -316 l 129 -207 l 42 -207 l 42 -75 m 473 617 q 380 556 407 617 q 354 353 354 495 l 354 209 q 466 141 399 141 q 562 197 528 141 q 595 377 595 253 q 581 522 595 470 q 540 595 567 574 q 473 617 512 617 z "},"Ͻ":{"ha":855,"x_min":15,"x_max":806,"o":"m 359 1012 q 597 952 497 1012 q 752 776 697 892 q 806 496 806 661 q 748 210 806 326 q 585 35 689 95 q 348 -24 482 -24 q 152 15 234 -24 q 15 109 71 54 l 121 241 q 212 183 162 211 q 335 156 261 156 q 500 237 436 156 q 565 496 565 318 q 510 758 565 677 q 348 839 456 839 q 230 820 283 839 q 125 768 177 801 l 28 905 q 180 985 102 958 q 359 1012 258 1012 z "},"Ͼ":{"ha":855,"x_min":48,"x_max":840,"o":"m 510 1012 q 691 984 616 1012 q 827 905 765 956 l 712 766 q 623 819 672 800 q 516 839 573 839 q 402 804 454 839 q 321 693 351 769 q 290 496 290 617 q 354 237 290 318 q 520 156 419 156 q 643 184 594 156 q 734 244 692 212 l 840 109 q 703 15 784 54 q 507 -24 622 -24 q 270 35 373 -24 q 107 210 166 95 q 48 496 48 326 q 109 776 48 661 q 275 952 170 892 q 510 1012 380 1012 m 527 619 q 616 585 582 619 q 651 500 651 551 q 616 415 651 449 q 527 381 582 381 q 436 415 471 381 q 401 500 401 449 q 436 585 401 551 q 527 619 471 619 z "},"Ͽ":{"ha":855,"x_min":15,"x_max":806,"o":"m 359 1012 q 597 952 497 1012 q 752 776 697 892 q 806 496 806 661 q 748 210 806 326 q 585 35 689 95 q 348 -24 482 -24 q 152 15 234 -24 q 15 109 71 54 l 121 241 q 212 183 162 211 q 335 156 261 156 q 500 237 436 156 q 565 496 565 318 q 510 758 565 677 q 348 839 456 839 q 230 820 283 839 q 125 768 177 801 l 28 905 q 180 985 102 958 q 359 1012 258 1012 m 327 619 q 417 585 382 619 q 452 500 452 551 q 417 415 452 449 q 327 381 382 381 q 237 415 272 381 q 202 500 202 449 q 237 585 202 551 q 327 619 272 619 z "},"Ѐ":{"ha":855,"x_min":132,"x_max":778,"o":"m 345 1358 l 652 1184 l 598 1070 l 260 1189 l 345 1358 z "},"Ё":{"ha":855,"x_min":132,"x_max":778,"o":"m 366 821 l 366 583 l 708 583 l 708 420 l 366 420 l 366 167 l 778 167 l 778 0 l 132 0 l 132 987 l 778 987 l 754 821 l 366 821 z "},"Ђ":{"ha":855,"x_min":-11,"x_max":828,"o":"m 405 821 l 405 607 q 480 653 439 636 q 573 670 522 670 q 764 592 699 670 q 828 359 828 514 l 828 141 q 789 -51 828 24 q 682 -170 749 -125 q 531 -242 614 -214 l 470 -83 q 559 -28 529 -58 q 600 43 589 1 q 610 145 610 85 l 610 380 q 588 474 610 447 q 513 502 566 502 q 451 489 477 502 q 405 456 425 475 l 405 0 l 186 0 l 186 821 l -11 821 l -11 987 l 627 987 l 603 821 l 405 821 z "},"Ѓ":{"ha":855,"x_min":128,"x_max":796,"o":"m 796 987 l 774 804 l 362 804 l 362 0 l 128 0 l 128 987 l 796 987 m 585 1357 l 670 1189 l 331 1070 l 278 1184 l 585 1357 z "},"Є":{"ha":855,"x_min":48,"x_max":840,"o":"m 510 1012 q 689 983 616 1012 q 826 903 763 954 l 717 776 q 627 825 673 806 q 525 843 582 843 q 364 783 432 843 q 286 595 296 724 l 651 595 l 651 415 l 286 415 q 359 216 294 280 q 520 152 424 152 q 643 176 593 152 q 736 229 693 199 l 840 104 q 703 14 786 52 q 504 -24 621 -24 q 266 35 369 -24 q 105 210 163 95 q 48 496 48 326 q 108 776 48 661 q 274 952 169 892 q 510 1012 378 1012 z "},"Ѕ":{"ha":855,"x_min":17,"x_max":809,"o":"m 809 288 q 761 126 809 197 q 623 16 713 56 q 407 -24 533 -24 q 173 17 268 -24 q 17 118 79 58 l 135 249 q 256 176 190 202 q 402 150 323 150 q 521 181 475 150 q 566 271 566 213 q 528 355 566 325 q 387 417 490 386 q 141 542 214 470 q 68 726 68 613 q 118 880 68 816 q 253 978 168 944 q 439 1012 338 1012 q 642 979 554 1012 q 793 885 729 946 l 683 758 q 575 820 633 800 q 458 840 518 840 q 350 816 391 840 q 310 744 310 791 q 328 691 310 712 q 390 651 345 670 q 512 607 434 632 q 672 539 605 578 q 774 439 739 499 q 809 288 809 380 z "},"І":{"ha":855,"x_min":107,"x_max":748,"o":"m 748 987 l 748 816 l 544 816 l 544 172 l 748 172 l 748 0 l 107 0 l 107 172 l 311 172 l 311 816 l 107 816 l 107 987 l 748 987 z "},"Ї":{"ha":855,"x_min":107,"x_max":748,"o":"m 748 987 l 748 816 l 544 816 l 544 172 l 748 172 l 748 0 l 107 0 l 107 172 l 311 172 l 311 816 l 107 816 l 107 987 l 748 987 z "},"Ј":{"ha":855,"x_min":56,"x_max":751,"o":"m 751 987 l 751 355 q 647 80 751 182 q 354 -21 543 -21 q 189 3 259 -21 q 56 71 120 28 l 145 215 q 239 166 195 180 q 340 152 283 152 q 467 201 416 152 q 518 353 518 250 l 518 816 l 214 816 l 214 987 l 751 987 z "},"Љ":{"ha":855,"x_min":-21,"x_max":855,"o":"m 519 987 l 519 655 q 767 576 679 655 q 855 335 855 498 q 764 81 855 162 q 520 0 673 0 l 340 0 l 340 839 l 259 839 l 240 433 q 221 230 234 308 q 187 105 208 152 q 135 29 165 58 q 63 -28 104 -1 l -21 105 q 6 138 -6 118 q 28 195 19 158 q 45 295 38 232 q 58 459 53 358 l 87 987 l 519 987 m 533 508 l 519 508 l 519 151 l 540 151 q 634 199 605 151 q 662 334 662 248 q 632 463 662 417 q 533 508 603 508 z "},"Њ":{"ha":855,"x_min":41,"x_max":855,"o":"m 526 987 l 526 619 q 766 546 677 617 q 855 323 855 474 q 513 0 855 0 l 343 0 l 343 458 l 224 458 l 224 0 l 41 0 l 41 987 l 224 987 l 224 619 l 343 619 l 343 987 l 526 987 m 534 462 l 526 462 l 526 161 l 534 161 q 637 200 608 162 q 667 321 667 238 q 635 431 667 400 q 534 462 603 462 z "},"Ћ":{"ha":855,"x_min":-11,"x_max":828,"o":"m 627 987 l 603 821 l 405 821 l 405 607 q 480 653 439 636 q 573 670 521 670 q 764 592 699 670 q 828 359 828 514 l 828 0 l 610 0 l 610 380 q 588 474 610 447 q 513 502 566 502 q 451 489 477 502 q 405 456 425 475 l 405 0 l 186 0 l 186 821 l -11 821 l -11 987 l 627 987 z "},"Ќ":{"ha":855,"x_min":74,"x_max":867,"o":"m 397 429 l 308 429 l 308 0 l 74 0 l 74 987 l 308 987 l 308 599 l 394 599 l 613 987 l 840 987 l 588 539 l 867 0 l 612 0 l 397 429 m 573 1357 l 657 1189 l 319 1070 l 266 1184 l 573 1357 z "},"Ѝ":{"ha":855,"x_min":74,"x_max":781,"o":"m 74 0 l 74 987 l 288 987 l 288 652 q 282 472 288 551 q 268 328 277 392 q 249 204 259 264 l 523 987 l 781 987 l 781 0 l 567 0 l 567 328 q 578 581 567 472 q 605 781 589 690 l 336 0 l 74 0 m 316 1358 l 623 1184 l 569 1070 l 231 1189 l 316 1358 z "},"Ў":{"ha":855,"x_min":-7,"x_max":865,"o":"m 865 987 l 615 335 q 538 175 578 241 q 447 69 499 110 q 324 6 396 28 q 152 -24 252 -16 l 120 135 q 244 157 197 142 q 322 197 292 172 q 375 261 353 222 l 299 261 l -7 987 l 234 987 l 443 395 l 629 987 l 865 987 m 442 1070 q 311 1099 363 1070 q 231 1179 259 1129 q 196 1290 203 1229 l 321 1312 q 442 1226 347 1226 q 563 1312 536 1226 l 687 1290 q 619 1134 678 1198 q 442 1070 559 1070 z "},"Џ":{"ha":855,"x_min":74,"x_max":781,"o":"m 74 0 l 74 987 l 308 987 l 308 182 l 547 182 l 547 987 l 781 987 l 781 0 l 536 0 l 513 -249 l 342 -249 l 318 0 l 74 0 z "},"А":{"ha":855,"x_min":-16,"x_max":872,"o":"m 570 213 l 281 213 l 229 0 l -16 0 l 286 987 l 570 987 l 872 0 l 622 0 l 570 213 m 318 382 l 531 382 l 425 819 l 318 382 z "},"Б":{"ha":855,"x_min":81,"x_max":810,"o":"m 702 987 l 679 810 l 315 810 l 315 632 l 414 632 q 705 556 601 632 q 810 324 810 480 q 760 145 810 217 q 624 36 711 73 q 427 0 538 0 l 81 0 l 81 987 l 702 987 m 399 464 l 315 464 l 315 175 l 402 175 q 527 209 484 175 q 571 323 571 243 q 399 464 571 464 z "},"В":{"ha":855,"x_min":80,"x_max":813,"o":"m 813 289 q 781 147 813 204 q 691 59 748 91 q 561 14 634 27 q 407 0 488 0 l 80 0 l 80 987 l 392 987 q 580 964 494 987 q 718 886 666 942 q 771 735 771 831 q 717 594 771 647 q 590 523 662 541 q 694 490 642 514 q 780 417 746 465 q 813 289 813 368 m 536 712 q 499 796 536 770 q 385 822 462 822 l 313 822 l 313 593 l 392 593 q 502 621 468 593 q 536 712 536 649 m 573 298 q 528 407 573 377 q 410 437 484 437 l 313 437 l 313 170 l 400 170 q 485 180 445 170 q 548 217 524 189 q 573 298 573 245 z "},"Г":{"ha":855,"x_min":128,"x_max":796,"o":"m 796 987 l 774 804 l 362 804 l 362 0 l 128 0 l 128 987 l 796 987 z "},"Д":{"ha":855,"x_min":-14,"x_max":821,"o":"m -14 173 l 42 173 q 84 234 66 199 q 117 324 102 269 q 144 465 132 380 q 169 677 157 551 l 198 987 l 747 987 l 747 173 l 821 173 l 821 -249 l 642 -249 l 614 -1 l 194 0 l 165 -249 l -14 -249 l -14 173 m 533 822 l 393 822 l 383 697 q 350 431 370 533 q 301 271 331 330 q 225 173 271 212 l 533 173 l 533 822 z "},"Е":{"ha":855,"x_min":132,"x_max":778,"o":"m 366 821 l 366 583 l 708 583 l 708 420 l 366 420 l 366 167 l 778 167 l 778 0 l 132 0 l 132 987 l 778 987 l 754 821 l 366 821 z "},"Ж":{"ha":855,"x_min":4,"x_max":851,"o":"m 357 456 l 314 456 l 202 0 l 4 0 l 156 539 l 18 987 l 209 987 l 318 573 l 357 573 l 357 987 l 498 987 l 498 573 l 536 573 l 645 987 l 837 987 l 699 539 l 851 0 l 650 0 l 538 456 l 498 456 l 498 0 l 357 0 l 357 456 z "},"З":{"ha":855,"x_min":10,"x_max":801,"o":"m 403 1012 q 598 979 515 1012 q 726 886 680 945 q 771 749 771 827 q 713 603 771 659 q 547 526 654 547 q 732 453 662 514 q 801 282 801 392 q 693 60 801 145 q 385 -24 584 -24 q 169 13 264 -24 q 10 117 75 50 l 130 236 q 381 147 237 147 q 517 186 467 147 q 568 292 568 224 q 517 403 568 368 q 378 439 467 439 l 214 439 l 241 606 l 378 606 q 497 636 452 606 q 542 726 542 666 q 499 812 542 781 q 380 843 457 843 q 148 766 244 843 l 35 885 q 403 1012 179 1012 z "},"И":{"ha":855,"x_min":74,"x_max":781,"o":"m 74 0 l 74 987 l 288 987 l 288 652 q 282 472 288 551 q 268 328 277 392 q 249 204 259 264 l 523 987 l 781 987 l 781 0 l 567 0 l 567 328 q 578 581 567 472 q 605 781 589 690 l 336 0 l 74 0 z "},"Й":{"ha":855,"x_min":74,"x_max":781,"o":"m 74 0 l 74 987 l 288 987 l 288 652 q 282 472 288 551 q 268 328 277 392 q 249 204 259 264 l 523 987 l 781 987 l 781 0 l 567 0 l 567 328 q 578 581 567 472 q 605 781 589 690 l 336 0 l 74 0 z "},"К":{"ha":855,"x_min":74,"x_max":867,"o":"m 397 429 l 308 429 l 308 0 l 74 0 l 74 987 l 308 987 l 308 599 l 394 599 l 613 987 l 840 987 l 588 539 l 867 0 l 612 0 l 397 429 z "},"Л":{"ha":855,"x_min":-18,"x_max":781,"o":"m 781 987 l 781 0 l 547 0 l 547 809 l 392 809 l 377 650 q 338 357 360 473 q 283 168 316 241 q 199 52 249 96 q 74 -28 148 7 l -18 125 q 45 183 18 152 q 92 269 71 214 q 128 420 112 324 q 159 673 145 516 l 188 987 l 781 987 z "},"М":{"ha":855,"x_min":25,"x_max":830,"o":"m 774 987 l 830 0 l 626 0 l 614 422 q 613 558 612 501 q 618 669 614 616 q 626 788 621 722 l 515 168 l 338 168 l 219 788 q 228 672 224 726 q 233 558 231 618 q 232 419 234 498 l 225 0 l 25 0 l 80 987 l 321 987 l 430 349 l 534 987 l 774 987 z "},"Н":{"ha":855,"x_min":74,"x_max":781,"o":"m 547 0 l 547 416 l 308 416 l 308 0 l 74 0 l 74 987 l 308 987 l 308 608 l 547 608 l 547 987 l 781 987 l 781 0 l 547 0 z "},"О":{"ha":855,"x_min":32,"x_max":823,"o":"m 823 494 q 778 221 823 338 q 645 40 733 105 q 427 -24 557 -24 q 210 39 298 -24 q 77 218 122 102 q 32 494 32 334 q 77 767 32 651 q 210 948 122 883 q 427 1012 298 1012 q 645 949 557 1012 q 778 771 733 887 q 823 494 823 655 m 583 494 q 547 759 583 677 q 427 842 511 842 q 308 759 344 842 q 271 494 271 676 q 308 229 271 312 q 427 147 345 147 q 548 230 513 147 q 583 494 583 314 z "},"П":{"ha":855,"x_min":74,"x_max":781,"o":"m 547 0 l 547 808 l 308 808 l 308 0 l 74 0 l 74 987 l 781 987 l 781 0 l 547 0 z "},"Р":{"ha":855,"x_min":89,"x_max":821,"o":"m 821 666 q 772 476 821 551 q 635 365 723 402 q 429 328 546 328 l 323 328 l 323 0 l 89 0 l 89 987 l 400 987 q 711 907 600 987 q 821 666 821 828 m 580 665 q 402 821 580 821 l 323 821 l 323 498 l 415 498 q 537 538 493 498 q 580 665 580 578 z "},"С":{"ha":855,"x_min":48,"x_max":840,"o":"m 510 1012 q 691 984 616 1012 q 827 905 765 956 l 712 766 q 623 819 672 800 q 516 839 573 839 q 402 804 454 839 q 321 693 351 769 q 290 496 290 617 q 354 237 290 318 q 520 156 419 156 q 643 184 594 156 q 734 244 692 212 l 840 109 q 703 15 784 54 q 507 -24 622 -24 q 270 35 373 -24 q 107 210 166 95 q 48 496 48 326 q 109 776 48 661 q 275 952 170 892 q 510 1012 380 1012 z "},"Т":{"ha":855,"x_min":32,"x_max":831,"o":"m 543 808 l 543 0 l 309 0 l 309 808 l 32 808 l 32 987 l 831 987 l 807 808 l 543 808 z "},"У":{"ha":855,"x_min":-7,"x_max":865,"o":"m 865 987 l 615 335 q 538 175 578 241 q 447 69 499 110 q 324 6 396 28 q 152 -24 252 -16 l 120 135 q 244 157 197 142 q 322 197 292 172 q 375 261 353 222 l 299 261 l -7 987 l 234 987 l 443 395 l 629 987 l 865 987 z "},"Ф":{"ha":855,"x_min":6,"x_max":849,"o":"m 508 1039 l 508 934 q 765 815 681 923 q 849 499 849 707 q 765 178 849 292 q 508 54 680 65 l 508 -55 l 347 -55 l 347 54 q 90 177 174 64 q 6 499 6 291 q 89 815 6 707 q 347 934 173 923 l 347 1039 l 508 1039 m 360 808 q 255 730 285 801 q 224 499 224 660 q 252 265 224 340 q 360 182 281 191 l 360 808 m 494 808 l 494 182 q 603 265 575 191 q 630 499 630 340 q 601 730 630 660 q 494 808 571 801 z "},"Х":{"ha":855,"x_min":5,"x_max":850,"o":"m 27 987 l 278 987 l 427 670 l 580 987 l 826 987 l 564 534 l 850 0 l 599 0 l 425 377 l 253 0 l 5 0 l 286 524 l 27 987 z "},"Ц":{"ha":855,"x_min":74,"x_max":850,"o":"m 74 0 l 74 987 l 308 987 l 308 182 l 547 182 l 547 987 l 781 987 l 781 173 l 850 173 l 850 -249 l 671 -249 l 642 0 l 74 0 z "},"Ч":{"ha":855,"x_min":35,"x_max":781,"o":"m 269 987 l 269 625 q 301 494 269 532 q 407 455 333 455 q 491 470 458 455 q 547 506 524 485 l 547 987 l 781 987 l 781 0 l 547 0 l 547 346 q 455 298 506 316 q 343 281 404 281 q 116 367 197 281 q 35 618 35 452 l 35 987 l 269 987 z "},"Ш":{"ha":855,"x_min":51,"x_max":804,"o":"m 804 987 l 804 0 l 51 0 l 51 987 l 235 987 l 235 160 l 345 160 l 345 987 l 509 987 l 509 160 l 620 160 l 620 987 l 804 987 z "},"Щ":{"ha":855,"x_min":51,"x_max":873,"o":"m 873 173 l 873 -249 l 694 -249 l 666 0 l 51 0 l 51 987 l 235 987 l 235 160 l 345 160 l 345 987 l 509 987 l 509 160 l 620 160 l 620 987 l 804 987 l 804 173 l 873 173 z "},"Ъ":{"ha":855,"x_min":-4,"x_max":836,"o":"m 349 987 l 349 655 l 424 655 q 726 577 617 655 q 836 335 836 499 q 786 145 836 219 q 646 36 735 71 q 440 0 556 0 l 130 0 l 130 816 l -4 816 l -4 987 l 349 987 m 416 492 l 349 492 l 349 167 l 398 167 q 545 202 492 167 q 598 334 598 237 q 554 453 598 415 q 416 492 510 492 z "},"Ы":{"ha":855,"x_min":31,"x_max":824,"o":"m 221 987 l 221 658 l 234 658 q 501 578 405 658 q 596 337 596 499 q 498 80 596 161 q 237 0 400 0 l 31 0 l 31 987 l 221 987 m 824 987 l 824 0 l 634 0 l 634 987 l 824 987 m 254 501 l 221 501 l 221 161 l 240 161 q 356 198 315 161 q 397 335 397 234 q 254 501 397 501 z "},"Ь":{"ha":855,"x_min":78,"x_max":821,"o":"m 312 987 l 312 655 l 409 655 q 712 577 602 655 q 821 335 821 499 q 772 147 821 222 q 633 36 722 73 q 424 0 543 0 l 78 0 l 78 987 l 312 987 m 401 488 l 312 488 l 312 170 l 409 170 q 536 209 491 170 q 580 334 580 248 q 536 451 580 415 q 401 488 492 488 z "},"Э":{"ha":855,"x_min":20,"x_max":798,"o":"m 370 1012 q 685 882 572 1012 q 798 500 798 752 q 741 208 798 324 q 583 33 684 91 q 345 -24 481 -24 q 163 9 246 -24 q 20 101 80 41 l 128 228 q 227 173 177 193 q 344 152 277 152 q 497 214 439 152 q 561 422 556 276 l 195 422 l 195 588 l 561 588 q 500 786 554 728 q 351 843 446 843 q 230 819 281 843 q 140 766 179 795 l 31 889 q 181 979 99 945 q 370 1012 262 1012 z "},"Ю":{"ha":855,"x_min":45,"x_max":838,"o":"m 561 1012 q 726 955 666 1012 q 812 782 787 897 q 838 494 838 667 q 777 107 838 238 q 561 -24 716 -24 q 353 92 412 -24 q 288 431 293 209 l 223 431 l 223 0 l 45 0 l 45 987 l 223 987 l 223 589 l 289 589 q 360 902 298 791 q 561 1012 422 1012 m 561 858 q 511 828 529 858 q 485 720 493 798 q 478 496 478 641 q 485 271 478 351 q 510 161 491 192 q 561 130 528 130 q 612 160 594 130 q 637 270 630 191 q 644 494 644 350 q 637 719 644 640 q 613 828 630 798 q 561 858 595 858 z "},"Я":{"ha":855,"x_min":3,"x_max":781,"o":"m 781 987 l 781 0 l 547 0 l 547 357 l 427 357 l 254 0 l 3 0 l 221 401 q 96 504 139 439 q 53 675 53 570 q 458 987 53 987 l 781 987 m 547 823 l 462 823 q 293 669 293 823 q 339 550 293 584 q 467 516 385 516 l 547 516 l 547 823 z "},"а":{"ha":855,"x_min":50,"x_max":786,"o":"m 736 218 q 748 156 736 175 q 786 127 760 137 l 740 -21 q 627 8 673 -15 q 555 78 581 31 q 444 1 511 26 q 306 -24 376 -24 q 119 42 189 -24 q 50 214 50 109 q 146 404 50 337 q 418 471 243 471 l 520 471 l 520 499 q 370 615 520 615 q 277 605 334 615 q 163 575 220 595 l 111 725 q 264 767 184 753 q 406 781 343 781 q 656 713 575 781 q 736 514 736 644 l 736 218 m 383 137 q 459 158 420 137 q 520 220 499 180 l 520 343 l 464 343 q 326 314 370 343 q 282 229 282 285 q 309 161 282 186 q 383 137 335 137 z "},"б":{"ha":855,"x_min":63,"x_max":791,"o":"m 635 1081 l 717 938 q 638 892 676 911 q 558 859 600 874 q 459 828 515 845 q 364 784 401 809 q 308 717 328 759 q 282 609 289 676 q 501 714 364 714 q 648 671 583 714 q 752 546 714 627 q 791 349 791 464 q 744 143 791 226 q 615 18 697 60 q 427 -24 533 -24 q 157 84 252 -24 q 63 427 63 192 q 88 691 63 583 q 180 866 114 798 q 367 969 246 933 q 469 1002 427 986 q 549 1036 511 1018 q 635 1081 588 1055 m 288 373 q 322 197 288 256 q 427 137 355 137 q 499 155 467 137 q 550 218 531 172 q 568 346 568 263 q 534 507 568 461 q 434 554 500 554 q 347 526 383 554 q 288 464 311 497 l 288 373 z "},"в":{"ha":855,"x_min":113,"x_max":796,"o":"m 425 781 q 598 759 522 781 q 717 691 674 736 q 761 580 761 647 q 718 475 761 515 q 603 416 675 434 q 746 355 697 403 q 796 228 796 306 q 749 95 796 145 q 623 22 702 45 q 447 0 544 0 l 113 0 l 113 749 q 267 772 193 764 q 425 781 341 781 m 422 637 q 376 636 397 637 q 338 632 355 635 l 338 461 l 433 461 q 544 548 544 461 q 422 637 544 637 m 338 148 l 441 148 q 568 246 568 148 q 538 318 568 292 q 446 343 507 343 l 338 343 l 338 148 z "},"г":{"ha":855,"x_min":174,"x_max":767,"o":"m 399 0 l 174 0 l 174 756 l 767 756 l 742 583 l 399 583 l 399 0 z "},"д":{"ha":855,"x_min":19,"x_max":816,"o":"m 19 166 l 78 166 q 121 228 104 192 q 150 331 138 264 q 172 514 162 398 l 192 756 l 744 756 l 744 166 l 816 166 l 816 -249 l 647 -249 l 619 0 l 217 0 l 188 -249 l 19 -249 l 19 166 m 534 600 l 390 600 l 385 523 q 361 336 375 404 q 324 231 347 269 q 263 166 301 194 l 534 166 l 534 600 z "},"е":{"ha":855,"x_min":66,"x_max":789,"o":"m 295 313 q 355 180 306 220 q 476 140 405 140 q 577 157 528 140 q 670 202 625 174 l 761 80 q 631 5 707 34 q 459 -24 556 -24 q 241 27 329 -24 q 110 170 154 79 q 66 377 66 260 q 108 581 66 489 q 233 727 151 672 q 434 781 316 781 q 622 735 543 781 q 745 602 702 689 q 789 393 789 515 q 788 352 789 374 q 785 313 787 330 l 295 313 m 434 630 q 337 587 374 630 q 292 448 300 543 l 570 448 q 538 580 569 531 q 434 630 506 630 z "},"ж":{"ha":855,"x_min":-8,"x_max":864,"o":"m 351 0 l 351 331 l 314 331 l 194 0 l -8 0 l 166 406 l -3 756 l 193 756 l 311 456 l 351 456 l 351 756 l 504 756 l 504 456 l 543 456 l 667 756 l 858 756 l 690 406 l 864 0 l 666 0 l 541 331 l 504 331 l 504 0 l 351 0 z "},"з":{"ha":855,"x_min":37,"x_max":764,"o":"m 240 461 l 377 461 q 468 484 437 461 q 499 546 499 507 q 465 605 499 585 q 373 625 432 625 q 260 611 316 625 q 158 569 204 598 l 61 689 q 210 758 127 735 q 386 781 293 781 q 561 757 484 781 q 682 686 637 733 q 726 571 726 639 q 678 465 726 507 q 544 400 631 423 q 705 348 647 389 q 764 219 764 306 q 714 85 764 140 q 578 4 665 31 q 382 -24 492 -24 q 183 3 269 -24 q 37 75 98 30 l 134 205 q 252 153 194 170 q 380 137 310 137 q 493 162 456 137 q 531 231 531 187 q 392 317 531 317 l 227 317 l 240 461 z "},"и":{"ha":855,"x_min":100,"x_max":755,"o":"m 755 756 l 755 0 l 543 0 l 543 241 q 553 418 543 337 q 580 560 564 499 l 332 0 l 100 0 l 100 756 l 312 756 l 312 513 q 302 345 312 427 q 273 195 291 263 l 521 756 l 755 756 z "},"й":{"ha":855,"x_min":100,"x_max":755,"o":"m 755 756 l 755 0 l 543 0 l 543 241 q 553 418 543 337 q 580 560 564 499 l 332 0 l 100 0 l 100 756 l 312 756 l 312 513 q 302 345 312 427 q 273 195 291 263 l 521 756 l 755 756 m 427 872 q 297 903 349 872 q 216 986 244 935 q 182 1093 187 1036 l 306 1113 q 347 1050 316 1073 q 427 1027 378 1027 q 508 1050 476 1027 q 548 1113 539 1073 l 673 1093 q 639 986 667 1036 q 558 903 610 935 q 427 872 505 872 z "},"к":{"ha":855,"x_min":104,"x_max":835,"o":"m 104 0 l 104 756 l 329 756 l 329 468 l 433 468 l 597 756 l 815 756 l 606 406 l 835 0 l 598 0 l 427 318 l 329 318 l 329 0 l 104 0 z "},"л":{"ha":855,"x_min":20,"x_max":751,"o":"m 751 756 l 751 0 l 526 0 l 526 591 l 365 591 l 360 499 q 339 282 354 369 q 297 138 325 195 q 225 43 269 81 q 114 -28 180 4 l 20 114 q 67 156 47 133 q 103 218 88 179 q 128 322 118 256 q 147 490 139 387 l 167 756 l 751 756 z "},"м":{"ha":855,"x_min":29,"x_max":825,"o":"m 774 756 l 825 0 l 625 0 l 615 258 q 612 403 612 330 q 619 552 613 476 l 613 552 l 509 120 l 347 120 l 236 552 l 230 552 q 238 404 239 478 q 234 250 238 330 l 225 0 l 29 0 l 79 756 l 322 756 l 430 291 l 524 756 l 774 756 z "},"н":{"ha":855,"x_min":100,"x_max":755,"o":"m 530 0 l 530 301 l 325 301 l 325 0 l 100 0 l 100 756 l 325 756 l 325 468 l 530 468 l 530 756 l 755 756 l 755 0 l 530 0 z "},"о":{"ha":855,"x_min":60,"x_max":795,"o":"m 427 781 q 626 731 544 781 q 751 592 708 682 q 795 380 795 501 q 698 83 795 191 q 427 -24 601 -24 q 157 82 254 -24 q 60 379 60 188 q 104 590 60 499 q 230 731 147 680 q 427 781 312 781 m 427 615 q 325 559 358 615 q 292 379 292 502 q 325 197 292 254 q 427 141 358 141 q 530 197 496 141 q 563 380 563 254 q 530 559 563 503 q 427 615 496 615 z "},"п":{"ha":855,"x_min":100,"x_max":755,"o":"m 531 0 l 531 590 l 323 590 l 323 0 l 100 0 l 100 756 l 755 756 l 755 0 l 531 0 z "},"р":{"ha":855,"x_min":100,"x_max":795,"o":"m 519 781 q 678 732 618 781 q 767 593 739 683 q 795 380 795 504 q 761 172 795 264 q 662 28 726 80 q 504 -24 597 -24 q 325 55 394 -24 l 325 -292 l 100 -316 l 100 756 l 299 756 l 309 672 q 410 756 355 731 q 519 781 465 781 m 449 615 q 380 592 410 615 q 325 528 350 568 l 325 209 q 374 157 348 174 q 436 141 400 141 q 529 196 496 141 q 563 377 563 250 q 549 523 563 472 q 510 595 536 575 q 449 615 484 615 z "},"с":{"ha":855,"x_min":98,"x_max":770,"o":"m 501 153 q 588 171 547 153 q 670 218 629 189 l 770 75 q 649 4 720 33 q 489 -24 577 -24 q 279 26 367 -24 q 145 166 192 76 q 98 373 98 255 q 146 584 98 491 q 282 729 194 676 q 493 781 371 781 q 646 757 579 781 q 770 687 714 734 l 672 551 q 591 593 634 578 q 502 608 548 608 q 379 554 426 608 q 333 373 333 501 q 355 242 333 290 q 415 173 377 194 q 501 153 453 153 z "},"т":{"ha":855,"x_min":61,"x_max":803,"o":"m 803 756 l 776 590 l 540 590 l 540 0 l 315 0 l 315 590 l 61 590 l 61 756 l 803 756 z "},"у":{"ha":855,"x_min":40,"x_max":815,"o":"m 815 756 l 563 0 q 412 -229 513 -150 q 139 -317 311 -307 l 113 -158 q 234 -130 188 -149 q 308 -80 280 -112 q 357 0 336 -48 l 280 0 l 40 756 l 278 756 l 425 144 l 584 756 l 815 756 z "},"ф":{"ha":855,"x_min":21,"x_max":834,"o":"m 347 1080 l 508 1063 l 508 712 q 571 765 537 749 q 646 781 605 781 q 766 733 726 781 q 820 593 806 684 q 834 377 834 503 q 787 84 834 193 q 630 -24 741 -24 q 561 -7 591 -24 q 508 42 531 9 l 508 -298 l 347 -316 l 347 41 q 223 -24 298 -24 q 67 84 114 -24 q 21 377 21 193 q 38 593 21 503 q 99 733 56 684 q 220 781 142 781 q 347 713 297 781 l 347 1080 m 286 628 q 233 572 246 628 q 219 377 219 516 q 233 185 219 242 q 286 128 246 128 q 317 140 304 128 q 347 172 330 151 l 347 586 q 319 618 333 608 q 286 628 306 628 m 579 628 q 541 618 557 628 q 508 586 526 608 l 508 172 q 538 139 524 150 q 571 128 552 128 q 621 182 607 128 q 635 377 635 236 q 624 572 635 516 q 579 628 613 628 z "}}}
